<svg width="260" height="242" viewBox="0 0 260 242" fill="none" xmlns="http://www.w3.org/2000/svg">
<path d="M106.161 150.338C54.1104 160.187 33.9766 123.851 30.4159 104.452C25.2345 78.3795 35.1723 58.3745 45.6767 46.2547C67.3172 23.3115 115.04 6.05749 142.091 0.927913C199.061 -5.56333 218.483 23.5913 221.072 38.98C220.295 64.7212 224.849 85.8923 227.222 93.2603C241.465 126.164 221.072 142.504 202.622 141.105C163.001 133.719 119.648 146.142 106.161 150.338Z" fill="#FD9407" fill-opacity="0.6"/>
<path d="M143.832 73.8759C142.928 73.8582 140.078 73.4654 139.452 74.1193C138.46 75.1556 138.674 77.3493 136.64 77.3095C133.487 77.2481 131.333 74.6831 131.403 71.1101C131.473 67.5372 133.726 65.058 136.878 65.1194C138.912 65.1592 138.3 68.2813 139.646 68.7759C140.177 68.9712 141.506 68.9225 142.6 68.8744C143.144 68.8501 143.63 68.8257 143.931 68.8318C145.745 68.8672 147.244 67.4254 147.28 65.6113L147.079 44.6962L114.282 44.7421L91.8691 44.8002V64.6845C91.8337 66.4981 93.5787 67.7961 95.3928 67.8315C96.2974 67.8492 97.176 67.5012 97.8017 66.8472C98.7932 65.811 100.551 64.3581 102.585 64.3979C105.738 64.4593 107.892 67.0243 107.822 70.5973C107.752 74.1702 105.499 76.6494 102.347 76.588C100.314 76.5482 98.6134 75.0278 97.6629 73.9534C97.0631 73.2756 96.1989 72.8933 95.2943 72.8756C93.4802 72.8402 91.9808 74.282 91.9454 76.0962L91.8685 99.5142H124.861H144.217H146.6L147.053 77.2248C147.088 75.4107 145.646 73.9113 143.832 73.8759Z" fill="#035BA8"/>
<path d="M140.072 73.8759C139.167 73.8582 138.288 74.2062 137.663 74.8602C136.671 75.8964 134.913 77.3493 132.879 77.3095C129.727 77.2481 127.572 74.6831 127.643 71.1101C127.712 67.5372 129.965 65.058 133.118 65.1194C135.151 65.1592 136.851 66.6796 137.802 67.754C138.401 68.4318 139.265 68.8141 140.17 68.8318C141.984 68.8672 143.484 67.4254 143.519 65.6113L143.319 44.6962L110.521 44.7421L88.1085 44.8002V64.6845C88.0731 66.4981 89.818 67.7961 91.6322 67.8315C92.5368 67.8492 93.4154 67.5012 94.0411 66.8472C95.0326 65.811 96.7908 64.3581 98.8246 64.3979C101.977 64.4593 104.132 67.0243 104.061 70.5973C103.992 74.1702 101.739 76.6494 98.5862 76.588C96.5524 76.5482 94.8528 75.0278 93.9022 73.9534C93.3025 73.2756 92.4383 72.8933 91.5337 72.8756C89.7196 72.8402 88.2202 74.282 88.1848 76.0962L88.1079 99.5142H121.101H140.457H142.84L143.292 77.2248C143.328 75.4107 141.886 73.9113 140.072 73.8759Z" fill="#0079E3"/>
<path d="M140.072 73.8759C140.072 73.8759 140.23 73.8659 140.537 73.9102C140.842 73.9528 141.306 74.0656 141.823 74.3982C142.333 74.724 142.899 75.3044 143.175 76.1741C143.322 76.6035 143.349 77.1047 143.324 77.6187C143.315 78.1366 143.305 78.6887 143.295 79.2746C143.209 83.9696 143.084 90.8301 142.924 99.5158L142.923 99.5988H142.84C128.987 99.6104 110.095 99.6259 88.1079 99.6447H87.9773L87.9779 99.5136C87.9906 94.9326 88.0044 90.1994 88.0182 85.334C88.0254 82.9018 88.0326 80.4359 88.0404 77.9402C88.0426 77.3161 88.0454 76.6898 88.0481 76.0613C88.0675 75.4046 88.2766 74.7578 88.6517 74.215C89.3892 73.114 90.8156 72.5281 92.1273 72.7981C92.7807 72.9226 93.4015 73.2413 93.8745 73.7188C94.3138 74.2051 94.7476 74.6516 95.2478 75.0516C96.2265 75.8455 97.4232 76.4569 98.6979 76.4425C99.971 76.4602 101.243 75.97 102.158 75.0732C103.087 74.1835 103.634 72.9376 103.823 71.6529C103.93 71.01 103.937 70.3494 103.88 69.6982C103.826 69.0464 103.684 68.3997 103.437 67.7939C102.96 66.58 102.044 65.5222 100.84 64.9871C99.6445 64.4472 98.2238 64.3857 97.0027 64.9008C96.3869 65.1493 95.8137 65.5039 95.2832 65.915C95.0187 66.1224 94.7636 66.3426 94.5191 66.5745C94.274 66.798 94.0549 67.0691 93.7617 67.2887C93.2743 67.6577 92.6867 67.889 92.0825 67.9537C91.475 68.0223 90.8687 67.9222 90.3005 67.7275C89.7367 67.5217 89.2094 67.198 88.7939 66.7576C88.379 66.3189 88.0808 65.7567 87.9983 65.1504C87.953 64.8455 87.9668 64.5479 87.9646 64.2646V63.4004C87.9646 62.825 87.9646 62.2507 87.9646 61.677C87.9651 60.53 87.9651 59.3865 87.9651 58.2478C87.9657 53.6923 87.9662 49.2047 87.9668 44.8002L87.9673 44.6586H88.1079C108.437 44.6292 127.173 44.6016 143.318 44.5783H143.435L143.436 44.6951C143.476 49.2921 143.515 53.6878 143.552 57.8605C143.57 59.9469 143.587 61.9779 143.604 63.9503C143.609 64.4433 143.612 64.9329 143.617 65.4181C143.627 65.9078 143.542 66.4162 143.348 66.8671C142.968 67.7806 142.171 68.476 141.264 68.7643C140.355 69.0581 139.346 68.9402 138.549 68.4782C138.146 68.2586 137.811 67.9145 137.53 67.5897C137.232 67.271 136.919 66.9717 136.591 66.6973C135.936 66.1484 135.209 65.702 134.433 65.4414C133.66 65.1647 132.834 65.1575 132.06 65.2842C130.491 65.536 129.213 66.5938 128.535 67.8591C127.832 69.1294 127.65 70.5574 127.732 71.8576C127.827 73.16 128.236 74.3838 128.956 75.3005C129.655 76.2339 130.637 76.827 131.614 77.0804C132.594 77.3471 133.567 77.3011 134.381 77.0306C135.2 76.7634 135.873 76.3412 136.431 75.9207C136.994 75.4997 137.425 75.0571 137.811 74.6803C138.216 74.3202 138.638 74.126 138.984 74.0175C139.332 73.9074 139.611 73.8847 139.794 73.8737C139.978 73.8648 140.072 73.8759 140.072 73.8759C140.072 73.8759 139.978 73.877 139.795 73.8919C139.613 73.9085 139.338 73.9373 138.995 74.0518C138.655 74.1641 138.241 74.3617 137.847 74.7202C137.471 75.0953 137.036 75.5495 136.474 75.9766C135.915 76.4049 135.238 76.8364 134.408 77.1136C133.581 77.3935 132.587 77.4466 131.588 77.1805C130.59 76.9277 129.581 76.3246 128.861 75.3736C128.121 74.4386 127.699 73.1915 127.597 71.8675C127.51 70.5463 127.687 69.0935 128.404 67.7872C129.094 66.487 130.412 65.3872 132.032 65.1232C132.826 64.9899 133.685 64.9954 134.487 65.2798C135.29 65.5471 136.035 66.0035 136.704 66.5612C137.04 66.84 137.359 67.1438 137.662 67.4669C137.957 67.8044 138.252 68.1053 138.64 68.3189C139.394 68.7538 140.35 68.8622 141.206 68.5834C142.061 68.3095 142.811 67.6511 143.167 66.7902C143.554 65.9332 143.375 64.9307 143.402 63.9492C143.381 61.9774 143.36 59.9469 143.337 57.8605C143.294 53.6884 143.248 49.2933 143.201 44.6973L143.319 44.8135C127.174 44.8511 108.438 44.8942 88.109 44.9413L88.2501 44.8002C88.2506 49.2053 88.2512 53.6934 88.2517 58.2495C88.2517 59.3887 88.2523 60.5323 88.2523 61.6792C88.2523 62.2529 88.2523 62.8278 88.2523 63.4031V64.2673C88.2539 64.5595 88.2423 64.8422 88.2833 65.1089C88.4271 66.2143 89.3538 67.0857 90.3978 67.4564C90.9251 67.6378 91.4972 67.7308 92.0504 67.6677C92.6054 67.6085 93.1426 67.3961 93.5874 67.0591C93.8452 66.8688 94.0616 66.6038 94.3205 66.3659C94.5717 66.1274 94.8339 65.9017 95.1061 65.6876C95.6533 65.2638 96.248 64.8947 96.8948 64.6336C98.1883 64.0903 99.6988 64.1523 100.959 64.7249C102.236 65.2925 103.205 66.4162 103.703 67.6876C103.962 68.3222 104.109 68.9961 104.166 69.6722C104.224 70.3477 104.216 71.0288 104.106 71.6966C103.909 73.0288 103.34 74.3362 102.357 75.2779C101.39 76.2278 100.033 76.7468 98.6979 76.7263C97.3336 76.7401 96.0771 76.0889 95.0702 75.2718C94.5606 74.8657 94.0953 74.3849 93.6754 73.9179C93.2433 73.4814 92.6745 73.1887 92.0742 73.0742C90.8676 72.8258 89.5607 73.3625 88.8813 74.3738C88.5367 74.8718 88.3447 75.4671 88.3259 76.0674C88.3231 76.6948 88.3203 77.32 88.317 77.9435C88.3082 80.4387 88.2993 82.9041 88.2905 85.3362C88.2728 90.2011 88.255 94.9337 88.2384 99.5147L88.1079 99.3841C110.095 99.4024 128.987 99.4184 142.84 99.4301L142.755 99.5125C142.948 90.8273 143.101 83.9674 143.205 79.273C143.219 78.6871 143.232 78.1349 143.244 77.6171C143.272 77.0981 143.25 76.6195 143.11 76.1946C142.846 75.3409 142.296 74.7644 141.797 74.4369C141.292 74.1027 140.835 73.9832 140.534 73.9334C140.23 73.882 140.071 73.8858 140.072 73.8759Z" fill="#17282F"/>
<path d="M256.329 73.8759C255.424 73.8582 252.575 73.4654 251.949 74.1193C250.957 75.1556 251.17 77.3493 249.137 77.3095C245.984 77.2481 243.83 74.6831 243.9 71.1101C243.97 67.5366 246.223 65.058 249.375 65.1194C251.409 65.1592 250.797 68.2813 252.143 68.7759C252.938 69.068 255.523 68.8141 256.428 68.8318C258.242 68.8672 259.741 67.4254 259.776 65.6113L259.576 44.6962L226.779 44.7421L204.366 44.8002V64.6845C204.331 66.4981 206.075 67.7961 207.89 67.8315C208.794 67.8492 209.673 67.5012 210.299 66.8472C211.29 65.811 213.048 64.3581 215.082 64.3979C218.235 64.4593 220.388 67.0243 220.319 70.5973C220.249 74.1702 217.996 76.6494 214.844 76.588C212.81 76.5482 211.11 75.0278 210.16 73.9534C209.56 73.2756 208.696 72.8933 207.791 72.8756C205.977 72.8402 204.478 74.282 204.442 76.0962L204.365 99.5142H237.358H256.714H259.097L259.55 77.2248C259.585 75.4107 258.143 73.9113 256.329 73.8759Z" fill="#035BA8"/>
<path d="M252.874 73.8759C251.97 73.8582 251.091 74.2062 250.465 74.8602C249.473 75.8964 247.716 77.3493 245.682 77.3095C242.529 77.2481 240.375 74.6831 240.445 71.1101C240.515 67.5366 242.767 65.058 245.92 65.1194C247.954 65.1592 249.654 66.6796 250.604 67.754C251.203 68.4318 252.068 68.8141 252.973 68.8318C254.787 68.8672 256.286 67.4254 256.322 65.6113L256.121 44.6962L223.323 44.7421L200.911 44.8002V64.6845C200.876 66.4981 202.621 67.7961 204.435 67.8315C205.34 67.8492 206.218 67.5012 206.843 66.8472C207.835 65.811 209.594 64.3581 211.627 64.3979C214.78 64.4593 216.934 67.0243 216.864 70.5973C216.794 74.1702 214.541 76.6494 211.389 76.588C209.355 76.5482 207.655 75.0278 206.704 73.9534C206.105 73.2756 205.241 72.8933 204.336 72.8756C202.522 72.8402 201.023 74.282 200.988 76.0962L200.911 99.5142H233.903H253.259H255.642L256.094 77.2248C256.13 75.4107 254.688 73.9113 252.874 73.8759Z" fill="#0079E3"/>
<path d="M252.874 73.8759C252.874 73.8759 253.033 73.8659 253.34 73.9102C253.645 73.9528 254.109 74.0656 254.625 74.3982C255.135 74.724 255.701 75.3044 255.978 76.1741C256.125 76.6035 256.151 77.1047 256.126 77.6187C256.118 78.1366 256.108 78.6887 256.098 79.2746C256.012 83.9696 255.886 90.8301 255.726 99.5158L255.725 99.5988H255.642C241.79 99.6104 222.897 99.6259 200.911 99.6447H200.78V99.5136C200.793 94.9326 200.807 90.1988 200.821 85.334C200.828 82.9018 200.835 80.4359 200.843 77.9402C200.845 77.3161 200.848 76.6898 200.85 76.0613C200.87 75.4046 201.079 74.7578 201.454 74.215C202.192 73.114 203.618 72.5281 204.93 72.7981C205.583 72.9226 206.204 73.2413 206.677 73.7188C207.116 74.2051 207.55 74.6516 208.05 75.0516C209.029 75.8455 210.225 76.4569 211.5 76.4425C212.773 76.4602 214.046 75.97 214.961 75.0732C215.89 74.1835 216.436 72.9376 216.626 71.6529C216.732 71.01 216.739 70.3494 216.683 69.6982C216.629 69.0464 216.487 68.3997 216.239 67.7939C215.762 66.58 214.847 65.5222 213.643 64.9871C212.447 64.4472 211.026 64.3857 209.805 64.9008C209.19 65.1493 208.616 65.5039 208.085 65.915C207.821 66.1224 207.566 66.3426 207.322 66.5745C207.077 66.798 206.858 67.0691 206.564 67.2887C206.077 67.6583 205.489 67.889 204.885 67.9537C204.277 68.0218 203.671 67.9222 203.103 67.7275C202.539 67.5217 202.012 67.198 201.597 66.7576C201.182 66.3189 200.883 65.7567 200.801 65.1504C200.756 64.8455 200.77 64.5479 200.767 64.2646V63.4004C200.767 62.825 200.767 62.2507 200.767 61.677C200.767 60.53 200.767 59.3865 200.768 58.2478C200.768 53.6923 200.769 49.2047 200.77 44.8002V44.6586H200.911C221.24 44.6292 239.976 44.6016 256.121 44.5783H256.238L256.239 44.6951C256.279 49.2921 256.318 53.6878 256.354 57.8605C256.372 59.9469 256.39 61.9779 256.407 63.9503C256.411 64.4433 256.415 64.9324 256.419 65.4181C256.43 65.9078 256.344 66.4162 256.151 66.8671C255.771 67.7806 254.974 68.476 254.067 68.7643C253.158 69.0581 252.149 68.9402 251.351 68.4782C250.948 68.2586 250.613 67.9145 250.333 67.5897C250.035 67.271 249.722 66.9717 249.393 66.6973C248.739 66.1484 248.012 65.702 247.236 65.4414C246.463 65.1647 245.636 65.1575 244.862 65.2842C243.293 65.536 242.015 66.5938 241.338 67.8591C240.634 69.1294 240.453 70.5574 240.534 71.8576C240.63 73.16 241.038 74.3838 241.758 75.3005C242.457 76.2339 243.439 76.827 244.417 77.0804C245.397 77.3471 246.37 77.3011 247.183 77.0306C248.002 76.7634 248.676 76.3412 249.233 75.9207C249.796 75.4997 250.228 75.0571 250.614 74.6803C251.019 74.3202 251.441 74.126 251.787 74.0175C252.135 73.9074 252.413 73.8847 252.597 73.8737C252.781 73.8648 252.874 73.8759 252.874 73.8759C252.874 73.8759 252.78 73.877 252.598 73.8919C252.416 73.9085 252.141 73.9373 251.798 74.0518C251.457 74.1641 251.044 74.3617 250.649 74.7202C250.273 75.0953 249.839 75.5495 249.276 75.9766C248.718 76.4049 248.041 76.8364 247.211 77.1136C246.384 77.3941 245.389 77.4466 244.391 77.1805C243.392 76.9277 242.383 76.3246 241.664 75.3736C240.924 74.4386 240.502 73.1915 240.4 71.8675C240.313 70.5463 240.49 69.0935 241.207 67.7872C241.896 66.487 243.214 65.3872 244.834 65.1232C245.628 64.9899 246.487 64.9954 247.29 65.2798C248.093 65.5471 248.838 66.0035 249.507 66.5612C249.842 66.84 250.161 67.1438 250.465 67.4669C250.76 67.8044 251.055 68.1053 251.443 68.3189C252.197 68.7538 253.153 68.8622 254.009 68.5834C254.864 68.3095 255.614 67.6511 255.97 66.7902C256.357 65.9332 256.177 64.9307 256.204 63.9492C256.183 61.9774 256.162 59.9469 256.14 57.8605C256.097 53.6884 256.051 49.2933 256.004 44.6973L256.121 44.8135C239.977 44.8511 221.24 44.8942 200.912 44.9413L201.052 44.8002C201.053 49.2053 201.054 53.6934 201.054 58.2495C201.054 59.3887 201.054 60.5323 201.054 61.6792C201.055 62.2529 201.055 62.8278 201.055 63.4031V64.2673C201.057 64.5595 201.045 64.8422 201.085 65.1089C201.23 66.2143 202.157 67.0857 203.201 67.4564C203.728 67.6378 204.3 67.7308 204.853 67.6677C205.408 67.6085 205.945 67.3961 206.39 67.0591C206.648 66.8688 206.864 66.6038 207.123 66.3659C207.374 66.128 207.637 65.9017 207.909 65.6876C208.456 65.2638 209.051 64.8947 209.698 64.6336C210.991 64.0903 212.501 64.1523 213.761 64.7249C215.039 65.2925 216.008 66.4162 216.505 67.6876C216.765 68.3222 216.912 68.9961 216.969 69.6722C217.027 70.3477 217.019 71.0288 216.908 71.6966C216.711 73.0288 216.142 74.3362 215.159 75.2779C214.192 76.2278 212.836 76.7468 211.5 76.7263C210.136 76.7401 208.879 76.0889 207.873 75.2718C207.363 74.8657 206.897 74.3849 206.478 73.9179C206.046 73.4814 205.477 73.1887 204.877 73.0742C203.67 72.8258 202.363 73.3625 201.684 74.3738C201.339 74.8718 201.147 75.4671 201.129 76.0674C201.126 76.6948 201.123 77.32 201.12 77.9435C201.111 80.4387 201.102 82.9041 201.093 85.3362C201.075 90.2011 201.058 94.9337 201.041 99.5147L200.911 99.3841C222.897 99.4024 241.79 99.4184 255.642 99.4301L255.558 99.5125C255.751 90.8273 255.903 83.9674 256.008 79.273C256.021 78.6871 256.035 78.1349 256.047 77.6171C256.075 77.0981 256.052 76.6195 255.912 76.1946C255.649 75.3409 255.098 74.7644 254.6 74.4369C254.094 74.1027 253.638 73.9832 253.336 73.9334C253.033 73.882 252.873 73.8858 252.874 73.8759Z" fill="#17282F"/>
<path d="M39.2059 65.5592C39.1704 67.3734 37.671 68.8152 35.8572 68.7798C34.9525 68.7621 34.088 68.3798 33.4885 67.702C32.538 66.6281 30.8382 65.1072 28.8045 65.0674C25.6518 65.006 23.399 67.4846 23.3292 71.0581C23.2593 74.6311 25.4136 77.1961 28.5661 77.2575C30.5998 77.2973 32.3579 75.8444 33.3497 74.8082C33.9754 74.1542 34.8539 73.8062 35.7586 73.8239C37.5727 73.8593 39.0144 75.3587 38.9787 77.1728L38.5267 99.4622H88.0891L88.1654 76.0441C88.2008 74.23 89.7007 72.7882 91.5143 72.8236C92.4195 72.8413 93.2837 73.2236 93.8828 73.9014C94.8334 74.9758 96.5335 76.4962 98.5673 76.536C101.72 76.5974 103.972 74.1182 104.042 70.5453C104.112 66.9723 101.958 64.4073 98.8058 64.3459C96.772 64.3061 95.0137 65.759 94.0217 66.7952C93.3965 67.4492 92.5179 67.7972 91.6133 67.7795C89.7992 67.7441 88.0542 66.4461 88.0896 64.6325V44.7482H39.0064L39.2059 65.5592Z" fill="#0079E3"/>
<path d="M39.2058 65.5592C39.2058 65.5592 39.1976 65.4414 39.192 65.2084C39.1875 64.9705 39.1808 64.6253 39.1719 64.1711C39.1587 63.2504 39.139 61.8933 39.1135 60.1239C39.0712 56.5725 39.0091 51.3718 38.9305 44.7487L38.9294 44.6718H39.0063C51.0394 44.6596 67.9646 44.643 88.089 44.6226H88.2146V44.7482C88.2173 49.6739 88.2195 54.8165 88.2223 60.1455C88.2229 61.4778 88.2234 62.8222 88.2245 64.1771C88.2312 64.5202 88.2041 64.8521 88.2732 65.1653C88.3363 65.4812 88.4525 65.7882 88.6273 66.0638C88.9792 66.6137 89.5153 67.0447 90.1244 67.3097C90.7308 67.5758 91.4169 67.6943 92.0764 67.6179C92.7364 67.5377 93.3721 67.24 93.8496 66.772C94.8145 65.7667 95.9763 64.8388 97.3761 64.4117C97.7235 64.3027 98.0876 64.2452 98.4527 64.2153C98.8212 64.1971 99.1852 64.222 99.5471 64.2729C100.271 64.378 100.979 64.6347 101.599 65.0375C102.855 65.8397 103.677 67.2052 103.998 68.6481C104.303 70.0976 104.235 71.6357 103.73 73.0554C103.224 74.4645 102.151 75.7282 100.711 76.2914C100 76.5797 99.2278 76.6986 98.4616 76.6721C97.6865 76.64 96.9335 76.3954 96.259 76.0314C95.5802 75.6701 94.9721 75.1926 94.4183 74.6654C94.1422 74.4076 93.8789 74.1038 93.6316 73.846C93.3754 73.5909 93.0684 73.3884 92.7386 73.2396C92.0752 72.9431 91.3068 72.8872 90.6047 73.0836C89.9031 73.2811 89.2746 73.7304 88.8597 74.334C88.4303 74.9442 88.2765 75.6734 88.3081 76.4386C88.3059 77.2076 88.3031 77.9778 88.3009 78.749C88.2771 85.7976 88.2539 92.7222 88.2312 99.4627L88.2306 99.6049H88.089C70.1001 99.5977 53.3129 99.5916 38.5266 99.586H38.4001L38.4027 99.4599C38.5088 94.4147 38.6104 89.5808 38.707 84.9849C38.7556 82.6866 38.803 80.4481 38.849 78.2715C38.849 77.731 38.9028 77.1777 38.8395 76.6698C38.7736 76.1542 38.5728 75.6635 38.2713 75.2502C37.6805 74.4098 36.6731 73.9162 35.6805 73.9257C35.1839 73.9257 34.692 74.0424 34.2558 74.262C34.038 74.3716 33.8327 74.5049 33.6488 74.662C33.4661 74.8153 33.3023 75.0062 33.1188 75.1777C32.4019 75.8715 31.6032 76.4707 30.7175 76.8734C28.9423 77.7365 26.8108 77.3548 25.4079 76.2422C24.7055 75.6751 24.1754 74.9409 23.8277 74.1547C23.4762 73.3669 23.3116 72.5287 23.2619 71.7115C23.1767 70.0794 23.5448 68.4754 24.3945 67.2461C25.23 66.0051 26.5575 65.2433 27.8676 65.069C29.1837 64.8389 30.4564 65.2328 31.4162 65.8475C32.4028 66.4433 33.1357 67.2444 33.7899 67.936C34.5076 68.5745 35.4205 68.793 36.1899 68.7316C36.966 68.6608 37.6154 68.3427 38.0569 67.9482C38.5119 67.5615 38.7764 67.1188 38.9342 66.7498C39.2437 65.9968 39.1768 65.5526 39.2058 65.5592C39.2058 65.5592 39.2049 65.6638 39.1937 65.8707C39.1667 66.0748 39.1289 66.3863 38.9698 66.7648C38.8162 67.1404 38.5534 67.5935 38.0948 67.9919C37.6493 68.3974 36.9899 68.7289 36.1959 68.8069C35.4095 68.876 34.4715 68.6597 33.7276 68.0063C33.0542 67.3036 32.3373 66.5285 31.3581 65.9421C30.4054 65.3412 29.1743 64.9661 27.8864 65.1957C26.6083 65.3722 25.3236 66.1163 24.5134 67.3274C23.6898 68.528 23.3327 70.0998 23.4214 71.7021C23.5031 73.2938 24.1395 75.0056 25.5166 76.1055C26.8749 77.1739 28.9289 77.5396 30.6393 76.7014C31.4975 76.3091 32.2796 75.721 32.9826 75.0377C33.1605 74.8706 33.3214 74.6814 33.521 74.5116C33.7168 74.3439 33.9349 74.2017 34.1666 74.0844C34.6297 73.8493 35.1523 73.7243 35.6798 73.7232C36.7347 73.711 37.8095 74.2344 38.4405 75.1279C38.7625 75.5678 38.9776 76.0911 39.0491 76.6405C39.1174 77.1988 39.0616 77.7305 39.0639 78.276C39.0215 80.452 38.978 82.691 38.9335 84.9893C38.8434 89.5858 38.7489 94.4197 38.6502 99.4649L38.5266 99.3387C53.3129 99.3332 70.1001 99.3266 88.089 99.3199L87.9462 99.4616C87.9678 92.7206 87.9899 85.7954 88.0126 78.7462C88.0148 77.9744 88.0176 77.2043 88.0204 76.4353C87.9844 75.6701 88.1543 74.8208 88.6223 74.1713C89.0749 73.5124 89.7604 73.0216 90.5272 72.8064C91.2951 72.5923 92.1306 72.6531 92.8553 72.9768C93.2161 73.1395 93.5519 73.3613 93.833 73.6413C94.109 73.9295 94.3409 74.199 94.6169 74.4579C95.1558 74.9708 95.745 75.4333 96.3946 75.7785C97.0402 76.1271 97.7506 76.3562 98.4737 76.3866C99.2007 76.4115 99.9338 76.2981 100.604 76.027C101.961 75.4958 102.977 74.3069 103.464 72.9563C103.948 71.5997 104.016 70.1021 103.722 68.71C103.414 67.3236 102.631 66.03 101.447 65.2726C100.862 64.8925 100.193 64.6496 99.5061 64.5495C99.1631 64.5008 98.8118 64.4765 98.4699 64.4936C98.1274 64.5224 97.7855 64.5749 97.4557 64.6784C96.1246 65.0845 95.0009 65.9703 94.0421 66.9689C93.5198 67.4807 92.8271 67.8038 92.1101 67.8901C91.3903 67.972 90.6661 67.8447 90.0143 67.5592C89.3631 67.2749 88.7833 66.8123 88.3977 66.2087C88.2063 65.9061 88.0768 65.5658 88.0071 65.2162C87.9318 64.8615 87.9617 64.5069 87.9545 64.1744C87.9551 62.8194 87.9556 61.4756 87.9562 60.1439C87.959 54.8154 87.9617 49.6733 87.9639 44.7482L88.089 44.8732C67.9646 44.8527 51.0394 44.8361 39.0063 44.824L39.0822 44.7471C39.1304 51.3713 39.168 56.5725 39.1937 60.1239C39.2022 61.8933 39.2086 63.2504 39.213 64.1716C39.213 64.6253 39.2127 64.9711 39.2127 65.2084C39.2116 65.4414 39.2058 65.5592 39.2058 65.5592Z" fill="#17282F"/>
<path d="M36.0119 73.8759C35.1851 73.8582 34.3815 74.2062 33.8097 74.8602C32.9028 75.8964 31.2955 77.3493 29.4365 77.3095C26.5539 77.2481 24.5846 74.6831 24.6484 71.1101C24.7121 67.5366 26.772 65.058 29.6541 65.1194C31.5134 65.1592 33.0678 66.6796 33.9366 67.754C34.4848 68.4318 35.275 68.8141 36.1023 68.8318C37.7606 68.8672 39.1311 67.4254 39.1636 65.6113L38.9806 44.6962L8.99513 44.7421L0.144203 44.8002V64.6845L0.143555 99.5142H18.6675H36.3642H38.5427L38.9561 77.2248C38.9885 75.4107 37.6704 73.9113 36.0119 73.8759Z" fill="#0079E3"/>
<path d="M36.0118 73.8758C36.0118 73.8758 36.0519 73.8742 36.1314 73.878C36.2107 73.8819 36.3302 73.8841 36.4847 73.9168C36.7908 73.9732 37.2602 74.1087 37.7482 74.4949C38.2318 74.8733 38.7233 75.524 38.9163 76.4181C39.0216 76.8645 38.9965 77.3597 38.9898 77.8748C38.982 78.3938 38.9738 78.9465 38.9651 79.5318C38.8882 84.2257 38.7769 91.032 38.6377 99.5157L38.6364 99.6092H38.5426C28.0656 99.6197 14.9606 99.6319 0.143719 99.6463H0.0114543V99.5141C0.00799638 86.28 0.00410626 71.6257 0 56.225C0.000216119 52.361 0.000432238 48.5446 0.000864475 44.8001V44.6579L0.143071 44.6568C7.13777 44.5987 13.9237 44.5893 20.4224 44.5866C26.9211 44.5799 33.1329 44.5738 38.9803 44.5683L39.1071 44.5678L39.108 44.695C39.1428 49.0686 39.1763 53.2656 39.2081 57.2624C39.2236 59.2608 39.2388 61.2088 39.2534 63.1038C39.2508 64.0554 39.2898 64.9755 39.253 65.9149C39.1663 66.8604 38.6857 67.7512 37.952 68.3138C37.2258 68.8903 36.231 69.0785 35.3704 68.8234C34.9393 68.7017 34.5423 68.4798 34.214 68.1883C33.8801 67.89 33.653 67.5371 33.3623 67.2438C32.7995 66.6397 32.1721 66.1091 31.4762 65.7318C30.7837 65.3461 30.0085 65.1619 29.2502 65.2244C27.7099 65.2864 26.4058 66.2629 25.7017 67.4585C24.9762 68.663 24.7242 70.0351 24.7275 71.3042C24.7279 72.5779 24.9946 73.7945 25.5435 74.7887C26.0723 75.7934 26.9139 76.5376 27.8249 76.9149C28.7386 77.2861 29.7031 77.3448 30.5092 77.1185C31.3232 76.8961 31.9799 76.4645 32.5214 76.0463C33.0618 75.618 33.4856 75.1782 33.8377 74.7848C34.2019 74.3926 34.605 74.1674 34.9412 74.0423C35.2805 73.9179 35.555 73.8841 35.7368 73.8736C35.9194 73.8631 36.0118 73.8758 36.0118 73.8758C36.0173 73.8996 35.6269 73.8299 34.9559 74.0805C34.6268 74.21 34.2343 74.4368 33.8824 74.8258C33.5358 75.223 33.1124 75.6723 32.5713 76.1088C32.0282 76.5365 31.367 76.9796 30.5356 77.2137C29.709 77.4516 28.7202 77.3985 27.7803 77.0228C26.8417 76.641 25.9719 75.8786 25.4257 74.8534C24.8589 73.8382 24.5822 72.5994 24.5762 71.3048C24.568 70.0151 24.8167 68.6148 25.5586 67.3716C25.9293 66.7553 26.4322 66.1899 27.0637 65.7699C27.6909 65.3461 28.4497 65.085 29.2385 65.0418C30.0263 64.9738 30.8514 65.1674 31.5661 65.5641C32.2879 65.9531 32.9309 66.4953 33.5062 67.1094C33.8038 67.4093 34.0428 67.7711 34.3469 68.0383C34.6542 68.31 35.0247 68.5147 35.4258 68.627C36.228 68.8616 37.1471 68.6862 37.8234 68.1473C38.5065 67.6206 38.9578 66.7835 39.0367 65.8939C39.0693 64.9948 39.03 64.0454 39.03 63.1027C39.0114 61.2083 38.9924 59.2608 38.9729 57.2629C38.9347 53.2667 38.8947 49.0702 38.8527 44.6972L38.9805 44.8234C33.1336 44.8355 26.9217 44.8488 20.4232 44.8621C13.9246 44.8698 7.13904 44.8831 0.145015 44.9434L0.287438 44.8001C0.287654 48.5446 0.28787 52.361 0.288086 56.225C0.283764 71.6257 0.279658 86.28 0.275768 99.5141L0.143719 99.3818C14.9606 99.3962 28.0656 99.4089 38.5426 99.4189L38.4475 99.5124C38.6233 91.0292 38.7643 84.2235 38.8616 79.5302C38.8746 78.9448 38.8869 78.3921 38.8983 77.8731C38.9094 77.3536 38.9377 76.8701 38.8391 76.4347C38.6584 75.5583 38.1847 74.9154 37.7147 74.5364C37.2405 74.1508 36.7811 74.008 36.4796 73.9433C36.174 73.8791 36.0108 73.8885 36.0118 73.8758Z" fill="#17282F"/>
<path d="M39.0103 99.3382C39.2542 96.7107 42.1787 65.4712 43.5935 61.3356C45.0704 57.0179 58.2937 53.0936 58.2937 53.0936L61.8081 49.9367L63.1248 46.8262V44.8483C65.9304 44.8511 68.8456 44.8538 71.8609 44.8572L70.829 48.8285L61.1657 53.0886C61.1657 53.0886 55.0234 54.4651 52.2972 59.32C52.0483 59.6531 51.8637 59.9685 51.7757 60.2484C51.7537 60.3192 51.7284 60.4332 51.7008 60.5865C51.4459 61.246 51.2529 61.9591 51.1386 62.7298C49.8339 71.535 48.6907 91.6926 48.6907 91.6926C48.5681 92.9989 48.473 93.9577 48.4151 94.4324C48.253 95.7613 48.0911 97.5357 48.1058 99.3349C44.9984 99.336 41.9655 99.3371 39.0103 99.3382Z" fill="#035BA8"/>
<path d="M48.1076 99.5142H38.9937C38.9937 99.5142 38.9993 99.4544 39.0101 99.3382C41.9653 99.3371 44.9983 99.336 48.1056 99.3349C48.1061 99.3947 48.1067 99.4544 48.1076 99.5142ZM71.8607 44.8572C68.8454 44.8539 65.9303 44.8511 63.1246 44.8484V44.7482H71.8889L71.8607 44.8572Z" fill="#0F191D"/>
<path d="M103.299 24.4843L105.288 20.4339C104.394 17.9995 104.141 15.2952 104.695 12.567C106.289 4.72062 113.941 -0.347824 121.787 1.24558C129.632 2.83953 134.701 10.4912 133.108 18.337C131.514 26.1834 123.862 31.2518 116.016 29.6584C112.74 28.9929 109.951 27.2689 107.926 24.9175L107.93 24.9247L103.299 24.4843Z" fill="white"/>
<path d="M103.299 24.4843C103.299 24.4843 103.409 24.4882 103.612 24.5042C103.827 24.5208 104.123 24.5446 104.507 24.575C105.298 24.642 106.446 24.7383 107.935 24.8639L107.874 24.9518L107.87 24.9446L107.666 24.528L107.973 24.8777C109.191 26.268 111.082 27.8957 113.776 28.911C115.114 29.4272 116.648 29.7431 118.291 29.8106C119.933 29.8786 121.695 29.6678 123.435 29.0825C125.174 28.5005 126.887 27.5455 128.385 26.221C129.884 24.9004 131.164 23.2079 132.031 21.2499C133.779 17.3555 133.716 12.3202 131.3 8.25376L130.845 7.49634L130.324 6.78593L130.065 6.43242L129.775 6.10432L129.194 5.45367C128.369 4.64203 127.494 3.88684 126.519 3.30204C124.597 2.09593 122.439 1.38165 120.299 1.1609C118.154 0.955088 116.04 1.24391 114.148 1.91059C112.251 2.57561 110.576 3.61131 109.215 4.84951C106.478 7.34196 105.051 10.5642 104.649 13.3903C104.225 16.2412 104.721 18.6833 105.344 20.4128L105.354 20.4377L105.342 20.461C104.69 21.7528 104.186 22.7509 103.838 23.4386C103.668 23.7712 103.537 24.029 103.442 24.2149C103.352 24.3902 103.299 24.4843 103.299 24.4843C103.299 24.4843 103.333 24.4008 103.413 24.2292C103.501 24.0439 103.622 23.7872 103.778 23.4558C104.114 22.7515 104.602 21.7302 105.233 20.4073L105.231 20.4549C104.579 18.7193 104.053 16.2545 104.463 13.3626C104.849 10.4983 106.279 7.21639 109.052 4.67137C110.431 3.40661 112.132 2.34655 114.061 1.66438C115.986 0.97999 118.14 0.68067 120.326 0.886484C122.508 1.10724 124.708 1.83202 126.671 3.06026C127.665 3.65613 128.559 4.42573 129.401 5.25341L129.993 5.91733L130.289 6.2515L130.553 6.61223L131.084 7.33644L131.549 8.10934C134.013 12.2572 134.073 17.3964 132.284 21.3611C131.396 23.3557 130.088 25.0769 128.558 26.4174C127.029 27.7618 125.282 28.7278 123.512 29.3121C121.74 29.9002 119.948 30.1066 118.282 30.0286C116.614 29.9517 115.06 29.6208 113.709 29.0886C110.985 28.0407 109.089 26.3759 107.879 24.9579L107.981 24.891L107.985 24.8981L108.032 24.9977L107.924 24.9861C106.419 24.8262 105.259 24.7034 104.46 24.6187C104.084 24.5767 103.794 24.5446 103.585 24.5214C103.391 24.4992 103.299 24.4843 103.299 24.4843Z" fill="#17282F"/>
<path d="M111.993 15.7201L113.869 13.8439L117.487 17.0601L124.59 10.2256L126.332 12.1017L117.219 20.6784L111.993 15.7201Z" fill="#FD9407"/>
<path d="M87.5276 215.206L87.0639 227.404C87.0639 227.404 99.3071 231.973 99.441 234.236L75.7569 234.186L75.6993 215.15L87.5276 215.206Z" fill="#17282F"/>
<path d="M79.7421 226.363C79.2834 226.488 78.9658 227.002 79.0715 227.465C79.1766 227.929 79.6973 228.256 80.1581 228.14C80.619 228.024 81.0196 227.418 80.8624 226.969C80.7059 226.52 80.0735 226.169 79.6541 226.392" fill="#DADBD8"/>
<path d="M75.7568 234.186L75.826 232.267L98.5082 233.032C98.5082 233.032 99.5616 233.493 99.441 234.236L75.7568 234.186Z" fill="#33535F"/>
<path d="M87.4478 227.285C87.444 227.401 86.8652 227.452 86.2954 227.822C85.7161 228.178 85.4218 228.678 85.315 228.633C85.2088 228.61 85.3825 227.919 86.0807 227.483C86.774 227.039 87.4733 227.179 87.4478 227.285Z" fill="white"/>
<path d="M89.9298 228.317C89.9558 228.43 89.4545 228.626 89.0606 229.113C88.6528 229.59 88.5527 230.119 88.4371 230.114C88.3286 230.132 88.2501 229.454 88.7513 228.856C89.2471 228.254 89.9276 228.207 89.9298 228.317Z" fill="white"/>
<path d="M91.3345 231.294C91.2293 231.318 91.0694 230.74 91.3677 230.107C91.6614 229.472 92.2075 229.224 92.2562 229.32C92.3215 229.415 91.9696 229.754 91.7328 230.278C91.4833 230.795 91.4495 231.282 91.3345 231.294Z" fill="white"/>
<path d="M87.2453 224.493C87.1961 224.598 86.6661 224.438 86.0121 224.481C85.3576 224.511 84.8486 224.729 84.7883 224.63C84.7219 224.546 85.2193 224.119 85.99 224.079C86.7601 224.033 87.3018 224.402 87.2453 224.493Z" fill="white"/>
<path d="M58.5348 213.547L57.2529 228.26L59.5938 240.19C59.7625 241.05 59.1678 241.873 58.2986 241.982C57.8117 242.044 57.3287 241.87 56.9973 241.508C54.8864 239.207 47.1639 230.702 47.3179 229.63C47.4965 228.39 47.6404 214.021 47.6404 214.021L58.5348 213.547Z" fill="#17282F"/>
<path d="M58.2985 241.982L47.3816 228.636L47.3417 229.261C47.3071 229.8 47.4624 230.335 47.786 230.769C48.6513 231.929 51.1108 235.079 56.9524 241.505C57.2927 241.879 57.7994 242.059 58.2985 241.982Z" fill="#33535F"/>
<path d="M50.1797 225.626C50.0033 225.626 49.8287 225.575 49.6875 225.467C49.3299 225.195 49.2073 224.518 49.5106 224.185C49.6757 224.005 49.9527 223.902 50.2164 223.902C50.4366 223.902 50.6476 223.974 50.7759 224.133C51.0738 224.427 51.1319 224.944 50.8849 225.285C50.7245 225.506 50.4504 225.626 50.1797 225.626Z" fill="#9BA6A6"/>
<path d="M55.3429 235.327C55.4237 235.373 55.8054 234.622 56.7089 234.263C57.6013 233.878 58.4019 234.138 58.4268 234.048C58.4417 234.013 58.2625 233.886 57.9206 233.815C57.582 233.743 57.0802 233.759 56.5844 233.964C56.0898 234.17 55.7236 234.513 55.5354 234.804C55.344 235.096 55.3071 235.313 55.3429 235.327Z" fill="white"/>
<path d="M56.2664 237.367C56.3322 237.436 56.8362 236.987 57.6125 236.817C58.3848 236.631 59.0338 236.815 59.0637 236.724C59.1107 236.652 58.4219 236.294 57.5394 236.502C56.6559 236.7 56.1922 237.323 56.2664 237.367Z" fill="white"/>
<path d="M53.5513 232.672C53.6162 232.746 54.3873 232.052 55.5716 231.683C56.7501 231.295 57.7814 231.412 57.7902 231.313C57.8195 231.236 56.7374 230.961 55.4726 231.374C54.2038 231.773 53.4831 232.626 53.5513 232.672Z" fill="white"/>
<path d="M53.5675 228.167C53.6011 228.258 54.4371 227.969 55.4991 227.999C56.5613 228.015 57.3846 228.338 57.4222 228.248C57.467 228.179 56.6476 227.694 55.5057 227.675C54.3645 227.646 53.5251 228.096 53.5675 228.167Z" fill="white"/>
<path d="M53.8345 223.838C53.8747 223.926 54.7249 223.488 55.8409 223.611C56.959 223.709 57.7065 224.306 57.7635 224.226C57.7895 224.197 57.6406 224.002 57.3131 223.784C56.9889 223.566 56.4738 223.348 55.8724 223.288C55.2708 223.229 54.7234 223.342 54.3627 223.492C53.9992 223.642 53.8146 223.804 53.8345 223.838Z" fill="white"/>
<path d="M55.8674 222.785C55.8862 222.787 55.9322 222.591 55.9233 222.229C55.9134 221.87 55.8436 221.339 55.5736 220.741C55.432 220.456 55.2887 220.094 54.8898 219.873C54.6916 219.762 54.3843 219.781 54.1973 219.965C54.0117 220.143 53.9415 220.382 53.9213 220.615C53.8768 221.551 54.6218 222.508 55.6655 222.71C56.7145 222.894 57.7104 222.352 58.1806 221.571C58.2852 221.368 58.3654 221.115 58.2669 220.859C58.1707 220.6 57.8774 220.481 57.6639 220.504C57.2218 220.541 56.9297 220.776 56.6608 220.946C56.1264 221.322 55.7844 221.731 55.5814 222.027C55.3772 222.324 55.3058 222.512 55.3222 222.521C55.3717 222.563 55.7413 221.822 56.7881 221.137C57.0509 220.981 57.3552 220.782 57.6722 220.773C57.8265 220.767 57.9549 220.837 58.0014 220.964C58.0506 221.087 58.0075 221.27 57.9173 221.429C57.5211 222.067 56.6099 222.561 55.7258 222.391C54.8444 222.23 54.1909 221.388 54.2196 220.634C54.2293 220.453 54.2892 220.273 54.3929 220.172C54.4952 220.072 54.6421 220.053 54.7743 220.116C55.0538 220.25 55.2263 220.572 55.3673 220.84C55.9189 221.962 55.801 222.796 55.8674 222.785Z" fill="white"/>
<path d="M98.9358 112.376C98.9358 112.376 100.732 119.329 100.08 127.799C99.8282 131.076 88.7679 221.751 88.7679 221.751H73.8342L78.0318 136.53L76.8091 136.795C76.8091 136.795 68.6573 173.142 67.9923 179.026C67.3942 184.316 60.5193 222.744 60.5193 222.744L46.8651 222.901L51.2258 172.071L56.3007 123.299L58.21 109.102L98.9358 112.376Z" fill="#17282F"/>
<path d="M77.4885 130.747C77.4824 130.755 77.5151 130.789 77.5853 130.849C77.6584 130.904 77.7773 130.977 77.9494 131.021C78.2869 131.118 78.8501 131.068 79.3657 130.686C79.9024 130.309 80.2238 129.559 80.3323 128.756C80.4396 127.944 80.4557 127.072 80.5165 126.149C80.6167 124.304 80.6914 122.634 80.7306 121.424C80.7699 120.214 80.7743 119.464 80.7345 119.462C80.6941 119.46 80.6172 120.206 80.5254 121.412C80.4335 122.62 80.3262 124.288 80.2261 126.133C80.1658 127.052 80.1558 127.942 80.0673 128.719C79.976 129.491 79.6988 130.172 79.2401 130.523C78.7898 130.889 78.2863 130.966 77.9732 130.91C77.6506 130.86 77.5051 130.72 77.4885 130.747Z" fill="#33535F"/>
<path d="M55.5195 121.979C55.5151 121.997 55.6622 122.056 55.9378 122.13C56.2139 122.205 56.6211 122.285 57.1317 122.331C58.147 122.427 59.6032 122.332 61.0676 121.743C62.5332 121.154 63.6514 120.216 64.3175 119.444C64.6545 119.058 64.8935 118.718 65.0406 118.473C65.1883 118.229 65.2542 118.085 65.2381 118.076C65.1961 118.047 64.8636 118.583 64.1665 119.304C63.4766 120.024 62.375 120.904 60.9592 121.473C59.5445 122.042 58.1403 122.168 57.1439 122.125C56.1419 122.087 55.5306 121.93 55.5195 121.979Z" fill="#33535F"/>
<path d="M92.9848 118.186C92.9544 118.189 92.9793 118.773 93.2111 119.686C93.4401 120.595 93.9176 121.824 94.7132 123.026C95.5132 124.225 96.461 125.141 97.2112 125.704C97.9625 126.272 98.4909 126.521 98.5053 126.494C98.5733 126.418 96.5113 125.241 94.9555 122.865C93.3671 120.51 93.0816 118.154 92.9848 118.186Z" fill="#33535F"/>
<path d="M91.5552 21.5613C92.9046 21.6465 94.2307 20.5915 94.4509 19.257C94.6711 17.9231 93.7549 16.4973 92.4498 16.1443C93.241 15.2469 93.3787 13.8339 92.7762 12.8004C92.1737 11.7669 90.8757 11.191 89.705 11.4372C89.596 10.2615 88.8348 9.16658 87.7692 8.65592C86.7041 8.14581 85.3741 8.23709 84.3887 8.88884C83.0294 7.83764 80.927 7.90235 79.6345 9.03488C78.4782 8.88107 77.2599 9.55495 76.7747 10.615C76.2895 11.6762 76.5766 13.0383 77.4486 13.8123" fill="#17282F"/>
<path d="M79.1799 11.7847L79.7852 11.7548C85.8789 11.4516 91.1836 15.8783 91.9753 21.9277C92.7111 27.5543 93.4525 33.7802 93.5659 36.8127C93.7999 43.0917 87.5718 44.3797 87.5718 44.3797L88.4775 51.8924L73.224 52.1774L70.518 24.9014C69.6328 18.4133 72.6702 12.4906 79.1799 11.7847Z" fill="#B96357"/>
<path d="M87.6237 44.3681C87.6237 44.3681 83.6281 44.8079 79.2816 42.3697C79.2816 42.3697 81.4393 46.7897 87.673 45.9139L87.6237 44.3681Z" fill="#6F3430"/>
<path d="M90.4554 27.717C90.4958 28.1894 90.1284 28.6132 89.636 28.6641C89.1442 28.715 88.7126 28.3748 88.6722 27.9017C88.6318 27.4298 88.9987 27.0055 89.4905 26.9546C89.9829 26.9031 90.415 27.2445 90.4554 27.717Z" fill="#17282F"/>
<path d="M90.7785 25.0652C90.6734 25.1875 89.9696 24.7183 89.0053 24.7692C88.0415 24.8057 87.3582 25.3368 87.2481 25.224C87.1939 25.1742 87.2968 24.9579 87.5933 24.7183C87.886 24.4793 88.3923 24.2364 88.9931 24.2093C89.5939 24.1827 90.1101 24.3786 90.4122 24.591C90.7198 24.8035 90.831 25.0099 90.7785 25.0652Z" fill="#17282F"/>
<path d="M81.5273 27.9599C81.5677 28.4323 81.2009 28.8561 80.7085 28.9065C80.2167 28.9579 79.7846 28.6171 79.7442 28.1446C79.7043 27.6721 80.0712 27.2484 80.5625 27.1975C81.0554 27.146 81.4875 27.4874 81.5273 27.9599Z" fill="#17282F"/>
<path d="M81.3089 25.7159C81.2032 25.8382 80.4984 25.3695 79.5351 25.4199C78.5713 25.457 77.8881 25.9881 77.778 25.8752C77.7237 25.8254 77.8255 25.6086 78.1238 25.369C78.4159 25.1305 78.9221 24.8877 79.523 24.8605C80.1238 24.834 80.64 25.0298 80.9421 25.2417C81.2491 25.4547 81.3603 25.6611 81.3089 25.7159Z" fill="#17282F"/>
<path d="M85.1641 32.6937C85.1563 32.6389 85.7511 32.5056 86.716 32.333C86.9611 32.2959 87.1918 32.235 87.225 32.0652C87.2737 31.8843 87.1575 31.6237 87.0241 31.3432C86.763 30.7589 86.4897 30.1465 86.2025 29.5041C85.0589 26.885 84.218 24.7261 84.3237 24.6808C84.4299 24.6359 85.4424 26.7223 86.5865 29.342C86.8626 29.9882 87.1265 30.604 87.3777 31.1932C87.485 31.4688 87.6609 31.778 87.5536 32.1537C87.4966 32.3407 87.3224 32.4834 87.1669 32.5338C87.0109 32.5897 86.8725 32.5996 86.7514 32.6123C85.7765 32.7136 85.1702 32.7479 85.1641 32.6937Z" fill="#17282F"/>
<path d="M81.9606 21.9642C81.8455 22.2148 81.0062 21.9908 79.9871 22.0085C78.9674 22.003 78.1198 22.2375 78.0141 21.988C77.9676 21.8691 78.1375 21.6406 78.4944 21.4264C78.8484 21.2123 79.394 21.0336 80.0053 21.0298C80.6161 21.0264 81.1556 21.1985 81.5013 21.4082C81.8499 21.6179 82.0115 21.8447 81.9606 21.9642Z" fill="#17282F"/>
<path d="M90.628 21.0862C90.4355 21.3152 89.6282 21.1276 88.6705 21.1642C87.7123 21.1736 86.9106 21.3993 86.7125 21.1797C86.6251 21.0723 86.7419 20.8466 87.086 20.622C87.4246 20.3979 88 20.1998 88.6584 20.1838C89.3168 20.1688 89.8966 20.3387 90.2407 20.5467C90.5898 20.7547 90.7121 20.9749 90.628 21.0862Z" fill="#17282F"/>
<path d="M91.2289 19.08C91.2289 19.08 89.3782 15.232 87.4379 14.4093C85.0887 13.4129 84.2262 15.98 82.0093 15.4777C79.7929 14.9753 77.55 14.0187 75.3994 15.8196C73.0458 17.7909 74.2564 19.0318 74.2437 21.8236C74.1922 33.1428 72.289 36.4375 71.4386 31.1494C71.3451 30.5702 69.7058 30.1868 69.344 27.738C68.8742 24.5617 68.5594 20.6927 69.1592 18.3923C69.6648 16.4536 70.6873 15.081 72.5673 13.5296C75.5339 11.0809 79.7636 10.8214 82.6522 10.968C85.5402 11.1141 91.246 14.146 91.2289 19.08Z" fill="#17282F"/>
<path d="M71.8297 30.9587C71.7422 29.9921 70.8697 29.269 69.9093 29.409C68.7446 29.5783 67.4749 30.3075 67.6724 32.7219C68.0226 37.0053 72.2507 35.7704 72.2479 35.647C72.2463 35.5629 71.9923 32.7501 71.8297 30.9587Z" fill="#B96357"/>
<path d="M71.1847 34.111C71.1648 34.0994 71.1139 34.1697 70.9927 34.2377C70.8743 34.3041 70.6663 34.36 70.4361 34.2947C69.9697 34.1658 69.5299 33.4787 69.4463 32.708C69.4037 32.3196 69.4546 31.9417 69.568 31.623C69.6732 31.2988 69.8574 31.0631 70.082 31.0045C70.3044 30.9331 70.4771 31.0565 70.539 31.1727C70.6065 31.2877 70.586 31.3757 70.6093 31.3812C70.6226 31.3912 70.6956 31.3016 70.6469 31.1273C70.622 31.0443 70.5634 30.9469 70.456 30.8733C70.3465 30.7981 70.1921 30.7677 70.0344 30.7976C69.7064 30.8479 69.4336 31.176 69.3097 31.5256C69.1675 31.8781 69.1005 32.3035 69.1487 32.7406C69.2466 33.6015 69.7545 34.3727 70.388 34.5011C70.6961 34.5553 70.9396 34.4441 71.0613 34.3323C71.1852 34.2156 71.2002 34.1177 71.1847 34.111Z" fill="#6F3430"/>
<path d="M71.5005 22.6424C72.077 22.9954 72.685 23.3578 73.3595 23.391C74.0345 23.4242 74.783 23.0004 74.8632 22.3298C74.8992 22.0283 74.809 21.6858 74.9938 21.4452C75.214 21.158 75.6511 21.2228 76.0124 21.2432C77.2661 21.3135 78.6548 19.8634 78.9126 18.6346C79.254 19.0949 79.9583 19.2045 80.4241 18.8697C80.89 18.5356 81.057 18.3497 81.4122 17.8993C81.7674 17.4495 82.277 17.0373 82.8485 17.0899C83.1677 17.1192 83.4737 17.2929 83.7918 17.2492C84.3528 17.1707 84.5946 16.4973 84.6521 15.9341C84.7097 15.3709 84.7434 14.7153 85.2054 14.3872C85.6336 14.084 86.2151 14.2179 86.7374 14.2688C87.2597 14.3191 87.9236 14.1642 88.0309 13.6508C88.0874 13.3813 87.9596 13.1069 87.8002 12.8818C87.0804 11.8637 85.6004 11.4687 84.4685 11.9932C83.9783 10.5962 82.5973 9.55885 81.1196 9.47696C79.6412 9.39508 78.1546 10.2731 77.5128 11.607C76.5651 10.8291 75.2301 10.5497 74.0499 10.8811C72.8698 11.2125 71.8762 12.1465 71.4723 13.3039C70.415 13.0815 69.2454 13.544 68.6269 14.4298C68.0083 15.3156 67.9762 16.5726 68.5488 17.4888C67.7997 17.9679 67.1773 18.7668 67.2055 19.6559C67.2337 20.5445 68.1427 21.386 68.9881 21.1099C68.6761 21.8186 69.0047 22.7431 69.6935 23.0961C70.3829 23.4491 71.3246 23.1752 71.7179 22.5085" fill="#17282F"/>
<path d="M84.8497 13.2398C84.8535 13.2398 84.8541 13.2663 84.853 13.3183C84.8497 13.3698 84.8502 13.4483 84.8369 13.5485C84.8071 13.7488 84.7423 14.0464 84.5664 14.3911C84.3893 14.7308 84.1077 15.127 83.6657 15.4523C83.2325 15.7809 82.6294 16.0443 81.9328 16.0409L82.0009 15.9425C82.1525 16.3026 82.1381 16.7447 81.9738 17.1309C81.82 17.5231 81.5638 17.8767 81.2922 18.2225C81.1522 18.389 81.0332 18.5826 80.8363 18.7387C80.6448 18.8891 80.4108 18.9821 80.169 19.0247C79.6883 19.1105 79.1344 18.9882 78.7632 18.5987L78.9214 18.5445C78.8545 19.4031 78.4119 20.2806 77.6672 20.8389C77.2744 21.1542 76.7786 21.3595 76.2813 21.3705C75.7844 21.3905 75.3158 21.2676 74.8782 21.1348L74.9899 21.079C74.7858 21.6234 74.4544 22.0959 74.0405 22.4533C73.635 22.8096 73.0817 23.0348 72.5661 22.9346C71.5431 22.7708 70.8294 21.962 70.6546 21.1758L70.7541 21.2162C70.2651 21.5149 69.7273 21.568 69.2902 21.5061C68.8476 21.4474 68.4941 21.2743 68.2396 21.0983C67.984 20.9191 67.8285 20.7299 67.7344 20.5982C67.6465 20.4604 67.6099 20.3841 67.6144 20.3819C67.6348 20.363 67.7726 20.7005 68.2799 21.0386C68.5328 21.199 68.878 21.3567 69.3035 21.4026C69.7234 21.453 70.2324 21.3905 70.6833 21.105L70.7613 21.0557L70.7829 21.1459C70.9555 21.8784 71.6416 22.6325 72.5899 22.7736C73.0568 22.8588 73.5426 22.6585 73.9271 22.321C74.3138 21.9847 74.6298 21.5293 74.819 21.0176L74.8489 20.9362L74.9313 20.9611C75.3623 21.0906 75.8143 21.2051 76.2735 21.1852C76.7333 21.1725 77.1781 20.9893 77.5532 20.6911C78.257 20.1622 78.6725 19.3417 78.7394 18.529L78.7566 18.3243L78.8976 18.4747C79.2113 18.8084 79.7071 18.9273 80.1392 18.851C80.356 18.8139 80.5635 18.732 80.7306 18.6026C80.8938 18.4781 81.0183 18.2866 81.1605 18.1184C81.4321 17.7787 81.6811 17.4379 81.8283 17.0733C81.9849 16.7121 81.9987 16.3231 81.8681 15.9967L81.8283 15.896L81.9362 15.8977C82.5929 15.9093 83.1744 15.6692 83.5976 15.3599C84.0303 15.055 84.3124 14.6777 84.4956 14.3529C84.8541 13.6851 84.8187 13.2315 84.8497 13.2398Z" fill="#33535F"/>
<path d="M85.1175 36.0038C85.0854 35.845 84.0408 36.1178 83.0643 35.4195C82.0861 34.7235 81.9102 33.5799 81.7619 33.6104C81.6928 33.6131 81.6247 33.9113 81.7354 34.3844C81.841 34.8497 82.1664 35.4832 82.7633 35.9108C83.362 36.3358 84.0297 36.4104 84.4674 36.3335C84.9144 36.2583 85.1424 36.0735 85.1175 36.0038Z" fill="#17282F"/>
<path d="M129.866 73.1716L113.779 85.6991C113.779 85.6991 111.644 76.3086 105.948 62.2789C105.086 60.1577 104.173 58.4902 103.313 57.1811C103.245 57.0428 103.179 56.9145 103.119 56.8016C100.987 52.8203 96.5048 51.0587 93.7224 50.8878C93.2997 50.8618 92.2496 50.8944 90.778 50.9691L89.7417 50.6299L88.5511 47.0891L85.7073 50.231L72.1319 43.8132L70.8289 48.8285L61.1656 53.0886C61.1656 53.0886 52.2721 55.0809 51.1385 62.7298C49.8338 71.535 48.6906 91.6927 48.6906 91.6927L59.7089 86.0455L57.0504 106.196L57.7022 113.621L82.9836 117.755C84.3463 117.953 85.73 117.951 87.0921 117.75L99.5472 115.912L101.055 112.364L99.6479 89.8873L99.649 88.4301C101.194 92.4086 104.781 100.653 108.441 102.026C111.991 103.357 130.891 85.6991 130.891 85.6991L129.866 73.1716Z" fill="#DADBD8"/>
<path d="M72.1323 43.8131C72.1323 43.8131 73.6499 44.2519 77.5482 46.3321C81.3668 48.3698 85.7072 50.231 85.7072 50.231L85.3774 56.3606L70.9301 49.1079L72.1323 43.8131Z" fill="#DADBD8"/>
<path d="M88.5509 47.089L85.7072 50.2309L87.227 56.8015L89.7598 50.8628L88.5509 47.089Z" fill="#DADBD8"/>
<path d="M86.6401 58.4708L72.1943 49.7425L85.3775 56.3606L85.7604 50.9088C85.803 50.9414 85.9236 51.8382 86.0641 53.0051L85.6624 53.1622L85.3775 56.3606L86.6605 58.4674L86.6401 58.4708Z" fill="#8F9192"/>
<path d="M85.6624 78.8603C85.4444 73.1318 86.3473 58.5179 86.3473 58.5179L88.235 58.2141C88.235 58.2141 91.7615 72.4203 93.0783 89.8282C93.6111 96.8729 93.6111 105.033 93.6111 105.033L89.819 113.172L85.6281 105.086C85.6281 105.086 85.9263 85.8209 85.6624 78.8603Z" fill="#33535F"/>
<path d="M58.3329 54.8419C58.3107 54.8701 58.7251 55.1932 59.3116 55.7974C59.8986 56.3988 60.6345 57.3089 61.2442 58.4376C61.85 59.5695 62.2024 60.6855 62.3811 61.5071C62.5609 62.3292 62.6019 62.8526 62.6373 62.8498C62.6517 62.8487 62.6517 62.7176 62.6406 62.4797C62.6328 62.2418 62.5936 61.8988 62.52 61.4789C62.3761 60.6396 62.0381 59.4949 61.4212 58.3424C60.801 57.1927 60.0325 56.2798 59.4117 55.6961C59.1025 55.4035 58.838 55.1816 58.6438 55.0438C58.4513 54.9033 58.3417 54.8308 58.3329 54.8419Z" fill="#17282F"/>
<path d="M85.6624 53.1622L86.9548 52.6576L88.1808 54.76L88.4021 58.214L86.6754 58.4923L85.3774 56.3606L85.6624 53.1622Z" fill="#33535F"/>
<path d="M99.6478 63.4368C99.5919 63.4368 99.5471 70.9136 99.5471 80.1343C99.5471 89.3584 99.5919 96.8335 99.6478 96.8335C99.7031 96.8335 99.748 89.3584 99.748 80.1343C99.748 70.9136 99.7031 63.4368 99.6478 63.4368Z" fill="#17282F"/>
<path d="M85.571 50.1779C85.5461 50.195 85.8493 50.6592 86.3085 51.4272C86.7666 52.1945 87.3735 53.2712 87.9523 54.5055C87.9993 54.6073 88.0458 54.7075 88.0895 54.8015L88.1796 54.9963L88.2715 54.8032C88.8286 53.6303 89.2308 52.5392 89.4804 51.742C89.6054 51.3436 89.6956 51.0194 89.7504 50.7937C89.8057 50.568 89.8284 50.4418 89.8156 50.4385C89.788 50.4302 89.6331 50.9165 89.3498 51.6977C89.0676 52.4795 88.6466 53.5539 88.09 54.7169L88.272 54.7185C88.2283 54.6234 88.1813 54.5221 88.1343 54.4203C87.5517 53.1771 86.9204 52.1033 86.4291 51.3514C86.1829 50.9752 85.9732 50.6786 85.8227 50.4772C85.6722 50.2764 85.5821 50.1701 85.571 50.1779Z" fill="#17282F"/>
<path d="M70.8289 48.8284C70.8255 48.8351 70.8941 48.8755 71.0269 48.9479C71.1802 49.0282 71.3744 49.1294 71.6128 49.2539C72.1462 49.5305 72.8781 49.9095 73.7711 50.372C75.5919 51.3192 78.0855 52.6686 80.849 54.1447C82.5315 55.0416 84.1254 55.8726 85.5119 56.5658L85.6397 56.63L85.6414 56.4878C85.6591 54.6897 85.674 53.1743 85.6845 52.0783C85.6834 51.5638 85.6829 51.1483 85.6818 50.8357C85.6785 50.548 85.6718 50.3942 85.6624 50.3942C85.6525 50.3942 85.6403 50.5474 85.6265 50.8346C85.6143 51.1466 85.5988 51.5621 85.5789 52.0766C85.5501 53.1721 85.5108 54.6869 85.4632 56.485L85.5927 56.407C84.214 55.7011 82.6256 54.8634 80.9436 53.9671C78.1812 52.491 75.6749 51.161 73.8358 50.2453C72.9174 49.7867 72.1683 49.4259 71.6477 49.1836C71.402 49.073 71.2023 48.9828 71.0446 48.9114C70.9058 48.8511 70.8316 48.8223 70.8289 48.8284Z" fill="#17282F"/>
<path d="M97.9008 53.5523C97.872 53.57 98.0994 53.9556 98.3915 54.6101C98.6853 55.2641 99.0211 56.2002 99.2203 57.2746C99.4167 58.3502 99.4355 59.3449 99.394 60.0603C99.3536 60.7762 99.2784 61.2172 99.3116 61.2233C99.3249 61.226 99.3564 61.1187 99.4018 60.9206C99.4499 60.7231 99.4969 60.4327 99.5357 60.0714C99.6142 59.3494 99.6181 58.3341 99.4184 57.2381C99.2153 56.1438 98.8507 55.196 98.5204 54.5492C98.3556 54.2256 98.2084 53.9711 98.0933 53.8034C97.9804 53.6347 97.9124 53.5451 97.9008 53.5523Z" fill="#17282F"/>
<path d="M86.9913 58.7153C87.0206 58.7623 87.3493 58.6085 87.7244 58.3717C88.1001 58.1344 88.38 57.9042 88.3501 57.8572C88.3208 57.8102 87.9922 57.9645 87.6171 58.2013C87.2419 58.4381 86.9614 58.6683 86.9913 58.7153Z" fill="#17282F"/>
<path d="M86.3701 57.8722C86.421 57.8943 86.8144 57.1114 87.2481 56.1233C87.6824 55.1352 87.9928 54.3163 87.9419 54.2937C87.891 54.2715 87.4982 55.0544 87.0639 56.0425C86.6301 57.0306 86.3192 57.8495 86.3701 57.8722Z" fill="#17282F"/>
<path d="M56.8168 55.2409C56.8168 55.2409 52.3356 58.4664 51.7754 60.2485C51.2155 62.03 48.8349 90.9873 48.4148 94.4324C47.9946 97.8782 47.5746 104.319 50.2351 106.42C52.8958 108.52 58.637 110.095 58.637 110.095L63.9412 99.138L61.1317 93.2568L63.9412 71.2645L56.8168 55.2409Z" fill="#DADBD8"/>
<path d="M57.3586 109.709C57.3592 109.701 57.4577 109.694 57.6452 109.688C57.8333 109.681 58.1122 109.685 58.4696 109.635C59.1722 109.546 60.2528 109.362 61.3366 108.598C62.4282 107.861 63.4307 106.546 64.0708 104.855C64.7143 103.169 65.0889 101.136 65.1082 98.9614L65.1331 99.0361C63.8584 97.2717 62.4669 95.3453 61.0174 93.3391L60.9853 93.2943L60.9919 93.239C61.0107 93.0929 61.0307 92.9347 61.0511 92.7765C61.8428 86.6087 62.5593 81.0268 63.0822 76.9542C63.3422 74.9503 63.5541 73.3198 63.7046 72.1607C63.776 71.6147 63.8329 71.1803 63.875 70.8578C63.911 70.5607 63.9309 70.4041 63.9414 70.4041C63.9458 70.4041 63.9475 70.4434 63.9464 70.5203C63.9441 70.5972 63.9419 70.7128 63.9314 70.8633C63.9021 71.1881 63.8628 71.6241 63.813 72.1729C63.7002 73.3093 63.5165 74.9509 63.2797 76.9786C62.8066 81.0334 62.1178 86.6314 61.3305 92.8119C61.3101 92.9701 61.2901 93.1283 61.2713 93.2744L61.2459 93.1748C62.6904 95.1843 64.0775 97.1135 65.3483 98.8812L65.3738 98.9166L65.3732 98.9564C65.3433 101.178 64.9516 103.221 64.28 104.937C63.6133 106.653 62.5649 107.995 61.4285 108.734C60.8691 109.114 60.3026 109.35 59.7952 109.49C59.6685 109.525 59.5463 109.559 59.4284 109.591C59.3083 109.612 59.1933 109.632 59.0826 109.65C58.863 109.695 58.6605 109.715 58.4779 109.722C58.1144 109.758 57.8339 109.741 57.6447 109.733C57.456 109.725 57.3586 109.716 57.3586 109.709Z" fill="#17282F"/>
<path d="M51.9441 95.2872C51.9257 95.2634 52.3432 94.896 53.1204 94.4506C53.8945 94.0047 55.0484 93.5139 56.3941 93.25C57.7419 92.9906 58.995 93.0138 59.8803 93.1372C60.7677 93.2595 61.2922 93.4431 61.2839 93.4724C61.2772 93.5704 59.0979 92.9928 56.4478 93.5261C53.7921 94.0241 51.9871 95.3751 51.9441 95.2872Z" fill="#17282F"/>
<path d="M77.9877 80.0032C77.8217 81.9087 76.1425 83.3184 74.2376 83.1524C73.2871 83.07 72.4052 82.6063 71.8226 81.8511C70.8992 80.6539 69.2195 78.9338 67.0834 78.7479C63.7721 78.4596 61.2271 80.9067 60.9001 84.6595C60.5731 88.4123 62.6567 91.2633 65.968 91.5515C68.1036 91.738 70.0561 90.3343 71.1726 89.3147C71.8769 88.6718 72.8257 88.368 73.7757 88.4505C75.6811 88.6165 77.0908 90.2956 76.9248 92.2011L74.8678 115.611L126.994 119.128L128.736 94.5043C128.902 92.5989 130.581 91.1891 132.486 91.3551C133.437 91.4381 134.319 91.9012 134.901 92.6564C135.824 93.8537 137.504 95.5732 139.641 95.7597C142.952 96.0479 145.497 93.6008 145.824 89.848C146.151 86.0952 144.067 83.2443 140.756 82.956C138.62 82.7701 136.668 84.1732 135.551 85.1929C134.847 85.8358 133.898 86.1395 132.948 86.0571C131.043 85.8911 129.3 84.4023 129.466 82.4974L130.876 61.584L79.2546 58.1012L77.9877 80.0032Z" fill="#F2575D"/>
<path d="M126.994 119.128L93.2024 116.848L74.8678 115.611L76.9248 92.2011C76.9337 92.1004 76.9381 92.0008 76.9381 91.9017C76.9409 90.123 75.5804 88.6082 73.7756 88.4505C73.6733 88.4416 73.5709 88.4372 73.4686 88.4372C72.6238 88.4372 71.8011 88.7409 71.1725 89.3147C70.1236 90.2724 68.3382 91.5687 66.3553 91.5687C66.2269 91.5687 66.0974 91.5631 65.968 91.5515C64.1433 91.3927 62.6916 90.4555 61.8102 89.0187C61.7305 88.8887 61.6553 88.7548 61.585 88.6165C61.1192 87.7008 60.8652 86.6142 60.8663 85.4158C60.8663 85.1685 60.8774 84.9162 60.9001 84.6595C61.2094 81.1076 63.506 78.7247 66.5589 78.7247C66.7315 78.7247 66.9063 78.7324 67.0834 78.7479C69.2195 78.9338 70.8992 80.6539 71.8226 81.8511C72.4052 82.6063 73.2871 83.07 74.2376 83.1524C74.34 83.1613 74.4412 83.1657 74.5419 83.1657C76.3185 83.1657 77.8305 81.8063 77.9876 80.0032L79.2546 58.1012L130.876 61.584L129.466 82.4974C129.458 82.5826 129.454 82.6672 129.454 82.7513C129.456 84.5334 131.128 85.8983 132.948 86.0571C133.051 86.0659 133.153 86.0703 133.255 86.0703C134.1 86.0703 134.923 85.7666 135.551 85.1929C136.6 84.2352 138.385 82.9394 140.368 82.9394C140.497 82.9394 140.626 82.9444 140.756 82.956C143.841 83.2249 145.86 85.7174 145.858 89.0917C145.857 89.339 145.846 89.5913 145.824 89.848C145.621 92.1728 144.567 93.997 143.007 94.9795C142.956 95.0116 142.905 95.0426 142.854 95.0725C142.065 95.5323 141.155 95.7829 140.165 95.7829C139.993 95.7829 139.818 95.7751 139.641 95.7597C137.504 95.5732 135.824 93.8537 134.901 92.6564C134.319 91.9012 133.437 91.4381 132.486 91.3551C132.384 91.3463 132.283 91.3418 132.182 91.3418C130.406 91.3418 128.893 92.7012 128.736 94.5043L126.994 119.128Z" fill="#AE6502"/>
<path d="M74.4804 79.7504C74.3144 81.6559 72.6353 83.0661 70.7298 82.9002C69.7799 82.8172 68.8974 82.3541 68.3154 81.5989C67.392 80.4016 65.7117 78.6815 63.5761 78.4956C60.2648 78.2068 57.7193 80.6545 57.3923 84.4073C57.0653 88.16 59.1489 91.0105 62.4602 91.2993C64.5963 91.4852 66.5483 90.0815 67.6647 89.0624C68.369 88.419 69.3179 88.1152 70.2684 88.1982C72.1738 88.3642 73.5836 90.0433 73.4176 91.9488L71.36 115.359L123.486 118.876L125.228 94.2515C125.395 92.3466 127.074 90.9363 128.979 91.1023C129.929 91.1853 130.811 91.6484 131.394 92.4036C132.317 93.6014 133.997 95.3209 136.133 95.5068C139.444 95.7956 141.989 93.348 142.316 89.5952C142.643 85.8424 140.56 82.992 137.249 82.7032C135.113 82.5173 133.16 83.9209 132.044 84.9406C131.339 85.5835 130.391 85.8872 129.441 85.8042C127.535 85.6383 125.792 84.15 125.958 82.2445L127.369 61.3317L75.7474 57.8489L74.4804 79.7504Z" fill="#FD9407"/>
<path d="M74.4805 79.7504C74.4805 79.7504 74.4805 79.6259 74.4915 79.3808C74.5037 79.1307 74.5214 78.7672 74.5446 78.2887C74.5961 77.3193 74.6719 75.8908 74.7709 74.028C74.979 70.2907 75.2838 64.8161 75.6716 57.8444L75.6755 57.7681L75.7524 57.7731C88.4083 58.6146 106.21 59.7986 127.377 61.2066L127.503 61.2149L127.494 61.34C127.147 66.5207 126.784 71.9294 126.409 77.5346C126.315 78.936 126.221 80.3496 126.125 81.7748C126.108 82.1355 126.056 82.4835 126.106 82.8193C126.15 83.1568 126.251 83.4888 126.416 83.792C126.748 84.3967 127.282 84.8886 127.905 85.2111C128.525 85.5348 129.239 85.7079 129.94 85.6747C130.641 85.6371 131.333 85.3688 131.869 84.909C132.955 83.9209 134.242 83.0279 135.742 82.6788C136.115 82.5886 136.501 82.5543 136.887 82.5488C137.275 82.5554 137.655 82.6074 138.032 82.6871C138.785 82.8487 139.511 83.1685 140.134 83.6349C141.395 84.5666 142.162 86.0593 142.397 87.5979C142.615 89.1426 142.434 90.7543 141.803 92.2093C141.171 93.6545 139.955 94.9054 138.403 95.395C137.636 95.6468 136.816 95.7176 136.013 95.6357C135.202 95.5466 134.428 95.2368 133.746 94.8064C133.058 94.3787 132.453 93.8337 131.908 93.2406C131.636 92.9496 131.381 92.6127 131.139 92.3228C130.887 92.0356 130.578 91.8005 130.241 91.6196C129.562 91.2599 128.756 91.1465 128.002 91.3036C127.248 91.4619 126.554 91.8912 126.073 92.4976C125.578 93.1101 125.364 93.8697 125.343 94.6763C125.286 95.4847 125.228 96.2946 125.171 97.1057C124.646 104.517 124.13 111.798 123.628 118.886L123.618 119.028L123.476 119.018C104.558 117.735 86.9029 116.537 71.3518 115.482L71.2262 115.474L71.2372 115.348C71.7064 110.049 72.1557 104.973 72.5833 100.146C72.7974 97.7326 73.006 95.3812 73.2091 93.0957C73.2472 92.5269 73.343 91.9493 73.3125 91.4093C73.2799 90.8616 73.1028 90.3304 72.8146 89.8734C72.2519 88.9462 71.2256 88.3547 70.1794 88.2939C69.656 88.2585 69.1299 88.3464 68.6546 88.5473C68.4172 88.6474 68.1921 88.7736 67.9868 88.9257C67.7832 89.0745 67.5979 89.2632 67.3926 89.4308C66.5898 90.1091 65.7074 90.6823 64.7486 91.0431C62.8221 91.8243 60.609 91.2721 59.2143 90.0035C58.516 89.3578 58.0109 88.5489 57.7011 87.698C57.3874 86.8449 57.274 85.9519 57.2795 85.0899C57.3055 83.3682 57.8062 81.7078 58.7866 80.4757C59.7526 79.2309 61.2016 78.5244 62.5908 78.4336C63.9906 78.2853 65.3002 78.7894 66.2656 79.5036C67.2609 80.2002 67.9746 81.0937 68.6137 81.8677C69.324 82.5908 70.269 82.8852 71.0834 82.8752C71.905 82.8559 72.611 82.567 73.1034 82.1831C73.6096 81.8085 73.9195 81.3609 74.1109 80.9836C74.4899 80.2135 74.4511 79.7415 74.4805 79.7504C74.4805 79.7504 74.4716 79.8605 74.4451 80.0774C74.4019 80.2898 74.3399 80.6151 74.1457 81.0013C73.9576 81.3853 73.6489 81.8428 73.1382 82.229C72.6414 82.624 71.9244 82.925 71.0845 82.951C70.253 82.9671 69.2825 82.6733 68.5473 81.9336C67.8889 81.1474 67.1901 80.2804 66.2014 79.5944C65.2421 78.8945 63.9729 78.4115 62.6008 78.5614C61.2436 78.656 59.8383 79.3482 58.8994 80.5653C57.9473 81.7703 57.4598 83.3986 57.4394 85.091C57.4361 85.9375 57.5506 86.8111 57.8588 87.641C58.1625 88.4693 58.6555 89.2516 59.3315 89.8746C60.6854 91.0956 62.8215 91.6268 64.6822 90.866C65.6133 90.5141 66.4781 89.9509 67.2665 89.2815C67.4651 89.1182 67.6482 88.9307 67.8695 88.7669C68.0869 88.6048 68.326 88.4704 68.5777 88.3642C69.0806 88.15 69.6383 88.056 70.1921 88.0919C71.3009 88.1539 72.3925 88.7796 72.9916 89.7628C73.2987 90.2475 73.4874 90.8124 73.5239 91.3944C73.556 91.9847 73.4597 92.5402 73.4226 93.1145C73.224 95.4 73.0193 97.7519 72.8091 100.166C72.388 104.994 71.9454 110.07 71.4834 115.37L71.3684 115.236C86.9201 116.279 104.576 117.464 123.495 118.734L123.344 118.866C123.845 111.777 124.359 104.496 124.883 97.0836C124.941 96.272 124.998 95.462 125.055 94.6537C125.072 93.8464 125.31 92.9684 125.848 92.3194C126.369 91.66 127.124 91.1935 127.943 91.022C128.765 90.8516 129.637 90.9745 130.375 91.3656C130.742 91.562 131.078 91.8187 131.353 92.1319C131.623 92.4539 131.848 92.7549 132.12 93.047C132.651 93.6251 133.238 94.1535 133.898 94.5635C134.553 94.9762 135.285 95.2678 136.044 95.3508C136.808 95.4293 137.589 95.3618 138.314 95.1239C139.781 94.6609 140.935 93.4802 141.544 92.0932C142.15 90.6995 142.328 89.1277 142.118 87.641C141.891 86.1594 141.159 84.7414 139.965 83.86C139.376 83.418 138.69 83.1142 137.973 82.9599C137.615 82.8846 137.247 82.8343 136.885 82.8276C136.522 82.8332 136.158 82.8647 135.804 82.9499C134.374 83.2835 133.128 84.1361 132.048 85.1187C131.464 85.6189 130.714 85.9088 129.955 85.9486C129.194 85.984 128.442 85.7987 127.778 85.4529C127.115 85.1082 126.539 84.5815 126.177 83.9203C125.997 83.5895 125.885 83.2238 125.838 82.852C125.784 82.4747 125.84 82.1045 125.856 81.7538C125.952 80.3291 126.049 78.9155 126.144 77.5146C126.524 71.9106 126.892 66.503 127.244 61.3234L127.36 61.4567C106.196 60.0083 88.3962 58.7905 75.7425 57.9247L75.8232 57.8533C75.4044 64.8233 75.0758 70.2968 74.8512 74.0335C74.735 75.8952 74.6459 77.3232 74.5856 78.2914C74.5529 78.7694 74.5286 79.1329 74.512 79.3825C74.4943 79.627 74.4805 79.7504 74.4805 79.7504Z" fill="#17282F"/>
<path d="M68.4016 103.72C68.4016 103.72 70.197 102.33 71.5292 102.272C72.8615 102.214 74.5993 102.735 74.9473 102.561C75.2948 102.388 76.1058 101.626 76.627 102.268C77.1482 102.909 77.7855 105.226 75.0048 105.863H73.0933C73.0933 105.863 73.3251 107.775 73.7888 108.528C74.2518 109.281 80.74 117.449 80.74 117.449C80.74 117.449 81.5505 118.26 81.145 119.071C80.74 119.881 79.0022 119.418 79.0022 119.418C79.0022 119.418 77.7855 120.519 76.3952 119.998C75.0048 119.476 74.4256 119.071 74.4256 119.071C74.4256 119.071 72.9196 120.287 71.298 119.071C69.6758 117.854 64.2671 111.076 64.2671 111.076L66.2002 103.489L68.4016 103.72Z" fill="#B96357"/>
<path d="M62.7711 99.2369L68.4017 103.72L64.2671 111.076L56.0229 108.083C56.0229 108.083 56.2597 99.3946 62.7711 99.2369Z" fill="#B96357"/>
<path d="M126.322 69.0458C126.322 69.0458 126.61 67.0823 130.744 67.749C133.334 68.1672 131.98 69.8469 131.98 69.8469C131.98 69.8469 133.431 71.2423 131.699 72.4362L131.968 72.6382C131.968 72.6382 134.031 73.6711 132.252 75.5091C132.252 75.5091 132.905 76.6953 132.015 77.5849C131.125 78.474 128.902 77.2884 128.902 77.2884C128.902 77.2884 125.756 77.2375 125.579 76.407C125.401 75.5771 126.025 75.2418 126.203 75.1234C126.381 75.005 128.398 74.8568 128.398 74.8568C128.398 74.8568 125.649 74.8285 125.4 74.2874C124.956 73.3275 125.071 72.3472 128.398 72.4683C128.398 72.4683 125.924 72.4191 125.639 71.899C125.31 71.302 125.704 70.5828 126.594 70.1673C127.483 69.7523 128.279 69.8165 128.279 69.8165C128.279 69.8165 125.967 70.2912 126.322 69.0458Z" fill="#B96357"/>
</svg>
