<svg width="203" height="165" viewBox="0 0 203 165" fill="none" xmlns="http://www.w3.org/2000/svg">
<path d="M77.1606 163.338C25.1104 173.187 4.97656 136.851 1.41591 117.452C-3.76554 91.3795 6.17235 71.3745 16.6767 59.2547C38.3172 36.3115 86.0397 19.0575 113.091 13.9279C170.061 7.43667 189.483 36.5913 192.072 51.98C191.295 77.7212 195.849 98.8923 198.222 106.26C212.465 139.164 192.072 155.504 173.622 154.105C134.001 146.719 90.6479 159.142 77.1606 163.338Z" fill="#FD9407" fill-opacity="0.6"/>
<path d="M69.4451 51.0171C69.459 50.3056 69.3599 49.0154 68.3912 47.9929C67.6149 47.1741 66.7126 46.9583 66.7435 45.3588C66.7922 42.8785 68.81 41.1839 71.6211 41.2387C74.4323 41.2935 76.3825 43.0661 76.3338 45.5458C76.3028 47.1459 74.3443 47.5592 73.9553 48.6186C73.7252 49.2445 73.4275 50.383 73.4137 51.0944C73.3855 52.5215 74.5197 53.701 75.9471 53.7291L92.4017 53.5716L92.3652 27.7689L92.3198 10.1365H76.6763C75.2489 10.1088 74.2281 11.482 74.2004 12.9089C74.1866 13.6203 74.4605 14.3119 74.9745 14.8038C75.79 15.5837 76.933 16.9669 76.9015 18.567C76.8533 21.0472 74.835 22.742 72.0245 22.6871C69.2133 22.6318 67.2631 20.8599 67.3118 18.3801C67.3427 16.7799 68.5389 15.4422 69.3843 14.6949C69.9176 14.2229 70.2181 13.543 70.2319 12.8312C70.2601 11.404 69.1254 10.2244 67.6985 10.1968L49.2748 10.1365V36.0923V51.3203V53.1947L66.8105 53.5504C68.2379 53.5781 69.4169 52.4439 69.4451 51.0171Z" fill="#DADBD8"/>
<path d="M75.9471 53.7291C74.5363 53.7015 73.412 52.5491 73.4132 51.1448C73.4132 51.1277 73.4131 51.1111 73.4137 51.0944C73.4275 50.383 73.7252 49.2445 73.9553 48.6186C74.3443 47.5592 76.3028 47.1459 76.3338 45.5458C76.3344 45.5171 76.3349 45.4883 76.3349 45.4589C76.3366 43.0246 74.3991 41.2928 71.6211 41.2387C71.5769 41.2377 71.5326 41.2377 71.4889 41.2377C68.7469 41.2377 66.7911 42.9173 66.7435 45.3588C66.743 45.3865 66.743 45.4146 66.743 45.4418C66.7441 46.9661 67.6288 47.1885 68.3912 47.9929C69.3085 48.9618 69.4462 50.1701 69.4462 50.8997C69.4462 50.9401 69.4457 50.9795 69.4451 51.0171C69.4175 52.4268 68.2661 53.551 66.8619 53.551C66.8453 53.551 66.8276 53.5504 66.8105 53.5504L49.2748 53.1947V51.3203V36.0923V10.1364L67.6985 10.1968C69.1088 10.2244 70.233 11.3768 70.2324 12.7809C70.2324 12.7975 70.2324 12.8148 70.2319 12.8312C70.2181 13.5429 69.9176 14.2229 69.3843 14.6948C68.5389 15.4422 67.3427 16.7799 67.3118 18.3801C67.3112 18.4089 67.3106 18.4376 67.3106 18.467C67.309 20.9014 69.2465 22.6329 72.0245 22.6871C72.0687 22.6878 72.1124 22.6882 72.1567 22.6882C74.8981 22.6882 76.8539 21.0081 76.9015 18.567C76.902 18.5454 76.9026 18.5234 76.9026 18.5017C76.902 16.9293 75.7789 15.5734 74.9745 14.8038C74.4721 14.3236 74.1993 13.6529 74.1999 12.9585C74.1999 12.9419 74.1999 12.9255 74.2004 12.9089C74.2281 11.4959 75.229 10.1364 76.6337 10.1364C76.6475 10.1364 76.6619 10.1364 76.6763 10.1364H92.3198L92.3652 27.7689L92.4017 53.5716L75.9471 53.7291Z" fill="#8F9192"/>
<path d="M66.1973 51.0171C66.2117 50.3056 65.9378 49.614 65.4233 49.1217C64.6078 48.3415 63.4647 46.9583 63.4963 45.3588C63.5444 42.8785 65.5627 41.1839 68.3739 41.2387C71.1845 41.2935 73.1347 43.0661 73.0866 45.5458C73.055 47.1459 71.8589 48.4831 71.0135 49.231C70.4807 49.7024 70.1797 50.383 70.1659 51.0944C70.1382 52.5215 71.2724 53.701 72.6993 53.7291L89.1539 53.5716L89.118 27.7689L89.072 10.1365H73.4285C72.0016 10.1088 70.9808 11.482 70.9526 12.9089C70.9388 13.6203 71.2127 14.3119 71.7272 14.8038C72.5422 15.5837 73.6858 16.9675 73.6542 18.567C73.6055 21.0472 71.5878 22.742 68.7766 22.6871C65.9661 22.6318 64.0158 20.8599 64.0639 18.3801C64.0955 16.7799 65.2916 15.4422 66.137 14.6949C66.6698 14.2229 66.9708 13.543 66.9846 12.8312C67.0123 11.404 65.8781 10.2244 64.4512 10.1968L46.0275 10.1365V36.0923V51.3203V53.1947L63.5632 53.5504C64.9901 53.5781 66.1697 52.4439 66.1973 51.0171Z" fill="#E7E8E5"/>
<path d="M66.1973 51.017C66.1973 51.017 66.2073 51.1421 66.173 51.3837C66.1404 51.6238 66.0524 51.9897 65.7907 52.3973C65.5345 52.7995 65.0775 53.2466 64.3915 53.4658C64.0534 53.5818 63.6562 53.6028 63.2529 53.5836C62.8457 53.5775 62.4108 53.5702 61.9499 53.5626C58.2536 53.4967 52.8576 53.4005 46.0259 53.2787L45.9429 53.2776V53.1946C45.9313 42.2948 45.9158 27.433 45.897 10.1363V10.0058H46.0281C49.6321 10.0158 53.3561 10.0261 57.1836 10.0367C59.0973 10.0423 61.037 10.0478 63.0006 10.0533C63.4919 10.0549 63.9848 10.0573 64.4789 10.0594C65.0017 10.075 65.5157 10.2414 65.9478 10.5396C66.8236 11.1262 67.2895 12.2608 67.0748 13.3042C66.9758 13.8233 66.7224 14.3178 66.3423 14.6941C65.9578 15.0416 65.6098 15.3796 65.2961 15.7723C64.6742 16.5393 64.1973 17.4742 64.2089 18.4673C64.1951 19.4621 64.5774 20.4547 65.2778 21.1684C65.9716 21.8936 66.9459 22.3209 67.9512 22.4691C68.9565 22.6164 70.0209 22.5498 70.9709 22.167C71.9203 21.794 72.7452 21.0793 73.1629 20.1399C73.584 19.2064 73.6321 18.0984 73.2299 17.1451C73.0357 16.6642 72.7579 16.2155 72.4365 15.7995C72.2738 15.5925 72.1012 15.3928 71.9192 15.2009C71.7449 15.01 71.5314 14.8367 71.3554 14.6029C71.0616 14.2149 70.8774 13.7475 70.8259 13.2662C70.7717 12.7825 70.8508 12.3019 71.0058 11.8504C71.32 10.9645 72.0691 10.1523 73.0578 10.0197C73.5519 9.96693 73.9779 10.0041 74.4388 9.99304H75.7948C76.6972 9.99304 77.5968 9.99304 78.4925 9.99304C82.0766 9.99348 85.6069 9.99459 89.072 9.9952H89.2137V10.1363C89.2352 26.1289 89.2546 40.8691 89.2718 53.5708V53.6875L89.155 53.6886C85.5383 53.7197 82.0804 53.7495 78.7968 53.7776C77.1558 53.791 75.558 53.8049 74.0061 53.8176C73.6183 53.8209 73.2332 53.8243 72.8514 53.8269C72.4653 53.8354 72.0603 53.7673 71.7034 53.6134C70.9792 53.3119 70.4276 52.6806 70.1996 51.9614C69.9673 51.2404 70.0608 50.441 70.427 49.8093C70.6002 49.4899 70.8763 49.2227 71.1297 49.0031C71.3803 48.7696 71.6155 48.524 71.8307 48.2662C72.2617 47.7527 72.6119 47.1835 72.816 46.5753C73.0329 45.9702 73.0384 45.3239 72.9394 44.7169C72.743 43.4876 71.9153 42.4867 70.9233 41.9551C69.928 41.4029 68.8071 41.26 67.7863 41.3232C66.7639 41.3973 65.8034 41.7178 65.0842 42.2821C64.3522 42.8297 63.8864 43.5993 63.6872 44.3661C63.4775 45.1353 63.5129 45.8982 63.7248 46.5372C63.9334 47.18 64.2648 47.7091 64.5945 48.1482C64.9254 48.5908 65.2723 48.9301 65.5688 49.2344C65.8521 49.554 66.0054 49.8871 66.0894 50.1605C66.1758 50.4349 66.1935 50.6541 66.2012 50.7984C66.2073 50.9435 66.1973 51.017 66.1973 51.017C66.1802 51.0197 66.2261 50.7148 66.0557 50.1715C65.9666 49.9037 65.8112 49.5791 65.529 49.2703C65.2341 48.9755 64.8756 48.633 64.5386 48.191C64.2017 47.7509 63.8603 47.2189 63.6418 46.5642C63.42 45.9124 63.3773 45.1275 63.587 44.3395C63.7862 43.5524 64.2615 42.7556 65.0117 42.1874C65.7492 41.6032 66.7323 41.2702 67.7769 41.1887C68.8181 41.1196 69.964 41.2586 70.9952 41.8239C72.0221 42.3679 72.8918 43.4089 73.1004 44.6881C73.2061 45.3155 73.2017 45.995 72.9776 46.6291C72.7668 47.2643 72.4066 47.8523 71.9668 48.3797C71.7471 48.6446 71.5076 48.8958 71.2531 49.1354C70.9858 49.3689 70.754 49.5969 70.5864 49.9005C70.2472 50.4892 70.1626 51.235 70.3806 51.9032C70.5947 52.5706 71.1087 53.1559 71.7803 53.4332C72.4465 53.7347 73.2338 53.5942 74.0072 53.6152C75.5586 53.5985 77.1558 53.5814 78.7968 53.5637C82.0793 53.5287 85.5372 53.4917 89.1528 53.4535L89.0366 53.5715C89.0056 40.8696 88.9697 26.1296 88.931 10.1368L89.072 10.2779C85.6064 10.2786 82.0755 10.279 78.4909 10.2801C76.7093 10.2906 74.8692 10.2563 73.0993 10.3045C71.3598 10.5684 70.4835 13.0425 71.585 14.4285C71.7316 14.6277 71.9391 14.7976 72.1283 15.0022C72.3159 15.2009 72.4946 15.4077 72.6639 15.6229C72.9986 16.0552 73.2902 16.5255 73.4971 17.0377C73.9275 18.0623 73.8789 19.2607 73.4246 20.2582C72.9748 21.2712 72.0835 22.0398 71.0777 22.4337C70.0674 22.8387 68.9598 22.9062 67.9075 22.7523C66.8541 22.5962 65.8189 22.1461 65.0731 21.367C64.3201 20.6008 63.9085 19.5252 63.9245 18.4673C63.914 17.3845 64.4308 16.3898 65.0759 15.5948C65.3962 15.1927 65.778 14.8229 66.1431 14.4948C66.4823 14.1596 66.7097 13.7177 66.7987 13.251C66.9918 12.3129 66.5752 11.2971 65.789 10.7692C65.4017 10.5014 64.9392 10.3521 64.4728 10.3371C63.9799 10.335 63.488 10.3326 62.9973 10.3304C61.0343 10.3233 59.0945 10.3161 57.1813 10.3088C53.3544 10.2946 49.631 10.2801 46.027 10.2662L46.1576 10.1363C46.1393 27.433 46.1233 42.2948 46.1116 53.1946L46.0292 53.1101C52.8604 53.2654 58.2558 53.3882 61.9516 53.4723C62.4125 53.484 62.8473 53.4945 63.2545 53.5045C63.6634 53.5265 64.0374 53.5094 64.371 53.3999C65.041 53.1941 65.4941 52.763 65.752 52.372C66.0153 51.9752 66.1099 51.6167 66.1503 51.3798C66.1913 51.1415 66.189 51.0163 66.1973 51.017Z" fill="#17282F"/>
<path d="M130.587 24.5987C130.564 26.1484 129.289 27.386 127.739 27.3628C126.966 27.3512 126.226 27.028 125.711 26.451C124.895 25.5371 123.437 24.2446 121.699 24.2185C119.006 24.1781 117.091 26.3045 117.045 29.3573C116.999 32.4103 118.849 34.5935 121.543 34.6337C123.28 34.6603 124.777 33.4122 125.62 32.5224C126.152 31.9616 126.902 31.661 127.674 31.6726C129.224 31.696 130.462 32.9713 130.439 34.5215L130.138 53.5659L172.481 53.3744L172.456 33.3668C172.479 31.817 173.755 30.5795 175.305 30.6026C176.078 30.6143 176.818 30.9374 177.333 31.5145C178.149 32.4284 179.607 33.7208 181.345 33.7469C184.038 33.7874 185.953 31.661 185.999 28.6081C186.045 25.5552 184.195 23.3722 181.501 23.3317C179.764 23.3056 178.267 24.5539 177.424 25.443C176.892 26.0038 176.143 26.3049 175.37 26.2933C173.82 26.2695 172.324 25.1679 172.347 23.6177L172.27 6.62964L130.337 6.81941L130.587 24.5987Z" fill="#F2575D"/>
<path d="M130.138 53.5659L130.438 34.5215C130.438 34.506 130.438 34.491 130.438 34.4761C130.437 32.9463 129.209 31.696 127.674 31.6726C127.66 31.6726 127.646 31.6722 127.631 31.6722C126.873 31.6722 126.142 31.972 125.62 32.5224C124.785 33.4027 123.311 34.6343 121.596 34.6343C121.578 34.6343 121.561 34.6343 121.543 34.6337C118.881 34.5939 117.042 32.4611 117.044 29.4646C117.044 29.4287 117.044 29.3933 117.044 29.3573C117.09 26.3332 118.97 24.2181 121.624 24.2181C121.649 24.2181 121.674 24.2181 121.699 24.2185C123.437 24.2446 124.895 25.5371 125.711 26.451C126.226 27.028 126.966 27.3512 127.739 27.3628C127.753 27.3628 127.768 27.3632 127.782 27.3632C129.313 27.3632 130.565 26.134 130.587 24.5987L130.337 6.81941L172.27 6.62964L172.347 23.6177C172.347 23.63 172.347 23.6421 172.347 23.6542C172.347 25.1852 173.831 26.2701 175.37 26.2933C175.384 26.2933 175.398 26.2933 175.413 26.2933C176.17 26.2933 176.902 25.9935 177.424 25.443C178.258 24.5628 179.733 23.3311 181.447 23.3311C181.465 23.3311 181.483 23.3317 181.501 23.3317C184.163 23.3715 186.002 25.5044 186 28.5013C186 28.5367 185.999 28.5722 185.999 28.6081C185.953 31.6323 184.074 33.7474 181.42 33.7474C181.395 33.7474 181.37 33.7474 181.345 33.7469C179.607 33.7208 178.149 32.4284 177.333 31.5145C176.817 30.9374 176.078 30.6143 175.305 30.6026C175.29 30.6026 175.276 30.6026 175.262 30.6026C173.731 30.6026 172.479 31.8315 172.456 33.3668L172.481 53.3744L130.138 53.5659Z" fill="#AE6502"/>
<path d="M127.461 24.5987C127.438 26.1484 126.162 27.386 124.613 27.3628C123.84 27.3512 123.1 27.028 122.585 26.4517C121.769 25.5371 120.31 24.2446 118.573 24.2185C115.879 24.1781 113.964 26.3045 113.919 29.3573C113.873 32.4103 115.723 34.5935 118.417 34.6337C120.154 34.6603 121.65 33.4122 122.494 32.5224C123.026 31.9616 123.775 31.661 124.548 31.6726C126.098 31.696 127.335 32.9713 127.312 34.5209L127.012 53.5659L169.355 53.3744L169.33 33.3668C169.353 31.817 170.629 30.5795 172.178 30.6026C172.951 30.6143 173.692 30.9374 174.206 31.5145C175.022 32.4284 176.481 33.7208 178.218 33.7469C180.912 33.7878 182.826 31.661 182.872 28.6081C182.918 25.5552 181.068 23.3722 178.375 23.3317C176.637 23.3056 175.141 24.5539 174.297 25.443C173.766 26.0038 173.016 26.3049 172.243 26.2933C170.693 26.2695 169.197 25.1679 169.221 23.6177L169.144 6.62964L127.21 6.81941L127.461 24.5987Z" fill="#FD9407"/>
<path d="M127.461 24.5987C127.461 24.5987 127.453 24.4976 127.446 24.299C127.442 24.0941 127.434 23.7997 127.424 23.4131C127.408 22.6247 127.386 21.4657 127.356 19.9552C127.304 16.92 127.23 12.4779 127.134 6.82082L127.133 6.74386L127.21 6.74319C137.492 6.68504 151.951 6.60272 169.143 6.50485L169.269 6.50418L169.269 6.62933C169.291 10.838 169.313 15.2315 169.337 19.7842C169.342 20.9227 169.348 22.0708 169.354 23.229C169.361 23.522 169.34 23.8049 169.399 24.0692C169.454 24.3359 169.554 24.5959 169.703 24.8282C170.003 25.2931 170.459 25.6566 170.978 25.8797C171.494 26.1031 172.077 26.2011 172.636 26.1336C173.196 26.0627 173.733 25.8081 174.136 25.4092C174.957 24.5466 175.949 23.7462 177.148 23.3744C177.446 23.2791 177.758 23.229 178.072 23.2013C178.388 23.184 178.7 23.2045 179.011 23.2465C179.633 23.334 180.242 23.5514 180.776 23.8944C181.857 24.5782 182.567 25.7474 182.848 26.9828C183.115 28.2243 183.063 29.5416 182.636 30.7605C182.206 31.9716 181.291 33.0604 180.057 33.5495C179.448 33.7995 178.786 33.9046 178.128 33.8853C177.462 33.8603 176.814 33.6535 176.235 33.3435C175.651 33.0366 175.128 32.6293 174.652 32.1806C174.415 31.9617 174.187 31.7004 173.977 31.483C173.759 31.2683 173.498 31.0978 173.217 30.9723C172.654 30.724 172.003 30.6797 171.408 30.8485C170.814 31.0188 170.283 31.4021 169.933 31.9157C169.572 32.4352 169.445 33.0505 169.475 33.7038C169.475 34.3606 169.476 35.0189 169.477 35.6779C169.484 41.6996 169.491 47.6156 169.497 53.3745V53.5163L169.355 53.5174C153.987 53.5798 139.645 53.638 127.012 53.6894L126.886 53.6898L126.888 53.5638C126.96 49.2534 127.028 45.1231 127.094 41.196C127.127 39.2326 127.159 37.3199 127.19 35.4604C127.188 34.9983 127.231 34.5244 127.176 34.0944C127.118 33.6567 126.946 33.2402 126.688 32.8906C126.183 32.1785 125.325 31.7631 124.482 31.7745C124.06 31.7762 123.642 31.8774 123.273 32.0657C122.889 32.2476 122.611 32.5376 122.308 32.8501C121.697 33.446 121.016 33.9616 120.258 34.3102C118.741 35.056 116.912 34.7373 115.707 33.789C114.482 32.8129 113.925 31.3049 113.852 29.9168C113.773 28.5208 114.082 27.1465 114.806 26.0908C115.516 25.0254 116.65 24.3686 117.771 24.2142C118.897 24.0124 119.989 24.3455 120.812 24.8682C121.658 25.3739 122.288 26.0578 122.848 26.6447C123.462 27.187 124.24 27.3696 124.896 27.3147C125.558 27.2523 126.111 26.9788 126.486 26.6408C126.873 26.3099 127.097 25.9311 127.231 25.6156C127.494 24.9722 127.435 24.5927 127.461 24.5987C127.461 24.5987 127.462 24.6878 127.454 24.8648C127.432 25.0392 127.401 25.3063 127.267 25.6305C127.137 25.9525 126.915 26.3415 126.524 26.6841C126.145 27.0337 125.582 27.3203 124.903 27.3906C124.23 27.453 123.426 27.2721 122.786 26.7156C122.207 26.117 121.592 25.4595 120.754 24.9633C119.938 24.4543 118.888 24.1395 117.79 24.3409C116.702 24.4965 115.611 25.136 114.924 26.1723C114.227 27.1986 113.929 28.5403 114.012 29.9068C114.087 31.2638 114.637 32.7207 115.815 33.6513C116.976 34.5557 118.726 34.8596 120.18 34.1386C120.91 33.8006 121.574 33.296 122.171 32.7101C122.454 32.4164 122.778 32.0777 123.182 31.8886C123.579 31.6851 124.027 31.5755 124.48 31.572C125.386 31.5571 126.311 32.0025 126.857 32.7676C127.135 33.1439 127.322 33.5925 127.386 34.0645C127.446 34.5443 127.401 34.9973 127.404 35.4637C127.377 37.3234 127.349 39.2358 127.32 41.1994C127.262 45.127 127.2 49.2572 127.136 53.5677L127.011 53.4422C139.644 53.3795 153.986 53.3082 169.354 53.2323L169.212 53.3745C169.205 47.6151 169.197 41.6985 169.189 35.6761C169.188 35.0167 169.187 34.3589 169.186 33.7021C169.152 33.0481 169.295 32.3135 169.695 31.7536C170.083 31.1847 170.67 30.7605 171.329 30.5718C171.989 30.3849 172.708 30.4339 173.333 30.7095C173.644 30.8485 173.934 31.0382 174.177 31.2773C174.416 31.5251 174.613 31.7518 174.85 31.972C175.311 32.4075 175.815 32.7987 176.369 33.0902C176.92 33.3846 177.525 33.5761 178.139 33.5992C178.757 33.6176 179.38 33.5184 179.949 33.2856C181.1 32.8292 181.959 31.8145 182.368 30.663C182.776 29.5072 182.828 28.2304 182.572 27.0458C182.304 25.8669 181.633 24.7703 180.624 24.1306C180.126 23.8099 179.556 23.6056 178.971 23.5231C178.383 23.4364 177.791 23.4617 177.229 23.6404C176.098 23.9912 175.145 24.7491 174.33 25.6056C173.883 26.0478 173.287 26.3283 172.671 26.4057C172.052 26.4787 171.43 26.372 170.869 26.1297C170.308 25.8872 169.808 25.4928 169.474 24.9739C169.308 24.7144 169.195 24.4221 169.134 24.1207C169.067 23.8153 169.092 23.5106 169.084 23.2273C169.08 22.0697 169.075 20.9217 169.07 19.7836C169.053 15.2315 169.035 10.8385 169.019 6.63039L169.144 6.75553C151.952 6.81301 137.493 6.86121 127.211 6.89534L127.287 6.81844C127.351 12.4762 127.401 16.9194 127.436 19.9552C127.449 21.4657 127.459 22.624 127.465 23.4131C127.466 23.7997 127.467 24.0941 127.468 24.299C127.467 24.4976 127.461 24.5987 127.461 24.5987Z" fill="#17282F"/>
<path d="M135.577 28.6917C134.7 28.6747 131.934 28.2934 131.328 28.928C130.365 29.9333 130.572 32.0616 128.599 32.0234C125.541 31.9631 123.451 29.4745 123.519 26.0084C123.586 22.5416 125.772 20.1366 128.831 20.1963C130.804 20.235 130.21 23.2641 131.516 23.7439C132.288 24.0276 134.795 23.7808 135.673 23.7981C137.433 23.8323 138.887 22.4338 138.922 20.6737L138.727 0.381737L106.908 0.426556L85.1638 0.48299V19.7742C85.1295 21.5341 86.8224 22.7934 88.5824 22.8276C89.4599 22.8448 90.3124 22.5068 90.9194 21.8727C91.8815 20.8673 93.5872 19.4578 95.5601 19.4965C98.6186 19.5562 100.709 22.0448 100.641 25.5111C100.573 28.9776 98.3879 31.3828 95.3294 31.323C93.3559 31.2843 91.7067 29.8093 90.7844 28.767C90.2029 28.1091 89.3641 27.7384 88.4867 27.7213C86.7267 27.687 85.2722 29.0857 85.2379 30.8456L85.1632 53.5659H117.172H135.951H138.263L138.702 31.9411C138.736 30.1805 137.338 28.7261 135.577 28.6917Z" fill="#035BA8"/>
<path d="M132.226 28.6917C131.348 28.6747 130.496 29.0127 129.889 29.6468C128.926 30.6519 127.221 32.0616 125.248 32.0234C122.189 31.9631 120.099 29.4745 120.167 26.0084C120.235 22.5416 122.421 20.1366 125.479 20.1963C127.452 20.235 129.101 21.7106 130.024 22.7524C130.605 23.4102 131.444 23.7808 132.321 23.7981C134.081 23.8323 135.536 22.4338 135.57 20.6737L135.376 0.381737L103.556 0.426556L81.8121 0.48299V19.7742C81.7778 21.5341 83.4708 22.7934 85.2308 22.8276C86.1082 22.8448 86.9608 22.5068 87.5677 21.8727C88.5299 20.8673 90.2356 19.4578 92.2085 19.4965C95.267 19.5562 97.3572 22.0448 97.2891 25.5111C97.2217 28.9776 95.0363 31.3828 91.9773 31.323C90.0043 31.2843 88.355 29.8093 87.4328 28.767C86.8513 28.1091 86.0125 27.7384 85.135 27.7213C83.3751 27.687 81.9206 29.0857 81.8857 30.8456L81.8116 53.5659H113.821H132.6H134.911L135.35 31.9411C135.385 30.1805 133.985 28.7261 132.226 28.6917Z" fill="#0079E3"/>
<path d="M132.226 28.6917C132.226 28.6917 132.38 28.6818 132.678 28.725C132.974 28.7659 133.423 28.8754 133.925 29.1979C134.42 29.5145 134.97 30.077 135.238 30.9214C135.38 31.3379 135.406 31.8248 135.382 32.3227C135.374 32.8257 135.364 33.3612 135.355 33.93C135.271 38.4852 135.15 45.1408 134.996 53.5676L134.994 53.65H134.911C121.472 53.6616 103.143 53.6777 81.8115 53.696H81.681V53.5653C81.6937 49.1203 81.707 44.5282 81.7202 39.8085C81.7274 37.4482 81.7346 35.0564 81.7413 32.6348C81.744 32.029 81.7468 31.4215 81.749 30.8118C81.7684 30.1739 81.9714 29.5461 82.3355 29.0181C83.0519 27.9491 84.4373 27.3799 85.712 27.6422C86.3466 27.7633 86.9497 28.0726 87.4095 28.5367C87.8355 29.0088 88.2559 29.4414 88.7412 29.8292C89.69 30.5994 90.8502 31.192 92.0856 31.1775C93.3194 31.1946 94.5532 30.72 95.4395 29.8504C96.3402 28.9883 96.8697 27.7799 97.0534 26.5347C97.1569 25.9116 97.164 25.2703 97.1093 24.6391C97.0567 24.0071 96.919 23.3797 96.6788 22.7928C96.2169 21.6156 95.3289 20.5907 94.162 20.0718C93.0029 19.5484 91.6264 19.4892 90.4424 19.9884C89.846 20.2296 89.29 20.5732 88.7749 20.9715C88.5193 21.173 88.2714 21.3865 88.0341 21.6117C87.7973 21.828 87.5843 22.0908 87.2994 22.3043C86.8258 22.6633 86.2554 22.8881 85.6678 22.9506C85.0775 23.0169 84.4888 22.9201 83.9372 22.731C83.3894 22.5311 82.8777 22.2168 82.4743 21.7887C82.071 21.3627 81.7811 20.8159 81.7009 20.2274C81.6572 19.9307 81.6705 19.6413 81.6682 19.3671V18.5288C81.6682 17.9705 81.6682 17.4129 81.6682 16.8562C81.6682 15.7436 81.6682 14.6343 81.6688 13.5295C81.6693 9.11004 81.6699 4.75641 81.6705 0.482998V0.341358H81.8115C101.534 0.313141 119.712 0.286583 135.376 0.264454L135.493 0.263901L135.494 0.380638C135.532 4.84105 135.57 9.1055 135.605 13.1545C135.623 15.1782 135.64 17.1484 135.656 19.0621C135.66 19.5402 135.664 20.0154 135.668 20.4868C135.678 20.9616 135.595 21.4556 135.407 21.8933C135.038 22.78 134.264 23.4556 133.383 23.7357C132.5 24.0205 131.522 23.906 130.747 23.4573C130.355 23.2442 130.03 22.9094 129.758 22.5952C129.469 22.286 129.165 21.9955 128.847 21.7294C128.212 21.1967 127.508 20.7641 126.755 20.5112C126.005 20.2428 125.204 20.2361 124.453 20.3591C122.931 20.6031 121.692 21.6281 121.035 22.8554C120.353 24.0875 120.177 25.4722 120.256 26.7337C120.349 27.9969 120.745 29.1841 121.443 30.0732C122.121 30.9782 123.073 31.5538 124.021 31.7993C124.972 32.0578 125.915 32.0135 126.704 31.7513C127.498 31.4924 128.152 31.0824 128.693 30.6753C129.239 30.2664 129.658 29.8369 130.032 29.4719C130.425 29.1227 130.835 28.9335 131.171 28.829C131.508 28.7222 131.778 28.7 131.956 28.6896C132.135 28.6811 132.226 28.6917 132.226 28.6917C132.226 28.6974 132.135 28.6934 131.957 28.7077C131.781 28.7237 131.514 28.752 131.182 28.8633C130.851 28.9722 130.45 29.1637 130.068 29.5117C129.703 29.8756 129.281 30.3161 128.736 30.7311C128.193 31.146 127.537 31.5655 126.732 31.8343C125.929 32.1064 124.964 32.1579 123.995 31.8996C123.026 31.6538 122.047 31.069 121.348 30.1458C120.63 29.2389 120.221 28.0285 120.121 26.7432C120.037 25.4618 120.209 24.0514 120.905 22.7835C121.574 21.522 122.853 20.4542 124.424 20.1981C125.196 20.0686 126.03 20.074 126.808 20.3495C127.588 20.6091 128.311 21.0521 128.96 21.5933C129.286 21.8632 129.595 22.1582 129.89 22.4718C130.177 22.8001 130.462 23.091 130.838 23.2981C131.569 23.7195 132.496 23.8252 133.326 23.5542C134.154 23.2892 134.882 22.6506 135.226 21.8164C135.601 20.9858 135.427 20.0137 135.454 19.0611C135.433 17.148 135.412 15.1782 135.391 13.1545C135.349 9.10617 135.304 4.84216 135.258 0.382854L135.376 0.499592C119.713 0.536106 101.535 0.578156 81.8126 0.624077L81.9532 0.482998C81.9543 4.75696 81.9548 9.11115 81.9554 13.5316C81.9554 14.6367 81.9554 15.746 81.9554 16.859C81.9559 17.4158 81.9559 17.9729 81.9559 18.5316V19.3697C81.9576 19.6537 81.9465 19.9275 81.9858 20.1853C82.1252 21.256 83.0232 22.1001 84.0345 22.4598C84.5452 22.6352 85.1001 22.7253 85.6362 22.6644C86.1735 22.6069 86.6941 22.4016 87.1251 22.0752C87.3746 21.8904 87.5848 21.6337 87.8355 21.4025C88.0795 21.1716 88.334 20.9521 88.5984 20.7442C89.1296 20.3329 89.7072 19.975 90.3346 19.7211C91.5905 19.1933 93.0572 19.254 94.2804 19.8097C95.5214 20.3612 96.4625 21.4522 96.9455 22.6866C97.1972 23.3024 97.34 23.9568 97.3953 24.6131C97.4518 25.2686 97.444 25.9297 97.3367 26.5783C97.1452 27.8718 96.5925 29.141 95.6382 30.055C94.6993 30.9772 93.3825 31.4814 92.0856 31.4613C90.7606 31.4747 89.5406 30.8428 88.5636 30.0494C88.0689 29.6554 87.6169 29.1886 87.2097 28.7354C86.7915 28.3127 86.2404 28.0295 85.6589 27.9183C84.4893 27.6777 83.2235 28.197 82.5651 29.1769C82.2315 29.6599 82.045 30.2365 82.0273 30.8179C82.024 31.4265 82.0212 32.0334 82.0184 32.638C82.0096 35.0592 82.0013 37.451 81.9924 39.8106C81.9753 44.53 81.9581 49.1217 81.9415 53.5659L81.8115 53.4354C103.143 53.4542 121.472 53.4698 134.911 53.4812L134.827 53.5642C135.015 45.1379 135.163 38.4828 135.265 33.9279C135.278 33.3597 135.291 32.8242 135.303 32.3217C135.33 31.8177 135.308 31.3541 135.172 30.9417C134.917 30.1136 134.383 29.5549 133.9 29.2368C133.409 28.9124 132.966 28.7963 132.674 28.7477C132.379 28.6978 132.225 28.7017 132.226 28.6917Z" fill="#17282F"/>
</svg>
