<svg width="166" height="147" viewBox="0 0 166 147" fill="none" xmlns="http://www.w3.org/2000/svg">
<path d="M63.0968 127.623C20.5336 135.787 4.0695 105.666 1.15784 89.5853C-3.07921 67.9725 5.04734 51.3894 13.6371 41.3427C31.3332 22.324 70.3576 8.02134 92.4781 3.76919C139.065 -1.61171 154.946 22.556 157.064 35.3124C156.429 56.6505 160.152 74.2002 162.093 80.3079C173.74 107.583 157.064 121.128 141.976 119.969C109.578 113.846 74.1258 124.144 63.0968 127.623Z" fill="#0079E3" fill-opacity="0.2"/>
<path d="M29.8604 15.7499H28.4097V14.2992H29.8604V15.7499Z" fill="#DADBD8"/>
<path d="M22.7182 18.8342H21.2673V17.3832H22.7182V18.8342Z" fill="#DADBD8"/>
<path d="M26.289 18.8342H24.8381V17.3832H26.289V18.8342Z" fill="#E7E8E5"/>
<path d="M29.8604 18.8342H28.4097V17.3832H29.8604V18.8342Z" fill="#DADBD8"/>
<path d="M22.7182 21.9185H21.2673V20.4678H22.7182V21.9185Z" fill="#DADBD8"/>
<path d="M26.3553 21.8525H24.9043V20.4018H26.3553V21.8525Z" fill="#DADBD8"/>
<path d="M29.8604 21.9185H28.4097V20.4678H29.8604V21.9185Z" fill="#DADBD8"/>
<path d="M57 82H129V35H57V82Z" fill="#F3F2F1"/>
<path d="M128.906 81.9114C128.906 81.9114 128.899 81.6165 128.896 81.0528C128.894 80.4868 128.89 79.6524 128.885 78.563C128.88 76.3817 128.872 73.183 128.861 69.0998C128.849 60.9396 128.833 49.2464 128.813 35.098L128.906 35.1787C108.601 35.1836 83.8293 35.1897 57.12 35.1961H57.1139L57.2282 35.098C57.2238 51.9386 57.2203 67.883 57.2168 81.911L57.1139 81.8228C78.3833 81.8409 96.3187 81.856 108.941 81.8669C115.257 81.8771 120.242 81.885 123.653 81.8903C125.357 81.8952 126.668 81.8986 127.556 81.9012C127.997 81.9031 128.332 81.905 128.562 81.9061C128.788 81.908 128.906 81.9114 128.906 81.9114C128.906 81.9114 128.796 81.9148 128.573 81.9167C128.347 81.9174 128.015 81.9193 127.579 81.9216C126.695 81.9242 125.393 81.9276 123.697 81.9321C120.291 81.9378 115.314 81.9457 109.007 81.9559C96.3695 81.9664 78.4113 81.9815 57.1139 81.9996L57.0114 82V81.911C57.0079 67.883 57.0039 51.9386 57 35.098V35H57.1139H57.12C83.8293 35.0064 108.601 35.0124 128.906 35.0173H129V35.098C128.98 49.2671 128.963 60.9781 128.951 69.1503C128.941 73.226 128.933 76.4183 128.927 78.5955C128.922 79.678 128.919 80.5076 128.916 81.0702C128.913 81.6282 128.906 81.9114 128.906 81.9114Z" fill="#17282F"/>
<path d="M128.906 81.9114C128.906 81.9114 128.899 81.6165 128.896 81.0528C128.894 80.4868 128.89 79.6524 128.885 78.563C128.88 76.3817 128.872 73.183 128.861 69.0998C128.849 60.9396 128.833 49.2464 128.813 35.098L128.906 35.1787C108.601 35.1836 83.8293 35.1897 57.12 35.1961H57.1139L57.2282 35.098C57.2238 51.9386 57.2203 67.883 57.2168 81.911L57.1139 81.8228C78.3833 81.8409 96.3187 81.856 108.941 81.8669C115.257 81.8771 120.242 81.885 123.653 81.8903C125.357 81.8952 126.668 81.8986 127.556 81.9012C127.997 81.9031 128.332 81.905 128.562 81.9061C128.788 81.908 128.906 81.9114 128.906 81.9114C128.906 81.9114 128.796 81.9148 128.573 81.9167C128.347 81.9174 128.015 81.9193 127.579 81.9216C126.695 81.9242 125.393 81.9276 123.697 81.9321C120.291 81.9378 115.314 81.9457 109.007 81.9559C96.3695 81.9664 78.4113 81.9815 57.1139 81.9996L57.0114 82V81.911C57.0079 67.883 57.0039 51.9386 57 35.098V35H57.1139H57.12C83.8293 35.0064 108.601 35.0124 128.906 35.0173H129V35.098C128.98 49.2671 128.963 60.9781 128.951 69.1503C128.941 73.226 128.933 76.4183 128.927 78.5955C128.922 79.678 128.919 80.5076 128.916 81.0702C128.913 81.6282 128.906 81.9114 128.906 81.9114" stroke="#A5ADAD" stroke-width="0.25"/>
<path d="M78.4497 60.7548V73.9382H83.3243V60.7548H78.4497Z" fill="#FD9407"/>
<path d="M99.1343 60.7548V73.9382H104.008V60.7548H99.1343Z" fill="#FD9407"/>
<path d="M106.029 53.0129V73.9382H110.903V53.0129H106.029Z" fill="#FD9407"/>
<path d="M72.1415 69.788V74.2249H77.0161V69.788H72.1415Z" fill="#FD9407"/>
<path d="M85.3449 66.708V73.9382H90.2191V66.708H85.3449Z" fill="#FD9407"/>
<path d="M92.2397 65.0481V73.9382H97.1139V65.0481H92.2397Z" fill="#FD9407"/>
<path d="M76.7491 55.752C76.7491 56.3298 76.2806 56.7984 75.7028 56.7984C75.1246 56.7984 74.656 56.3298 74.656 55.752C74.656 55.1738 75.1246 54.7052 75.7028 54.7052C76.2806 54.7052 76.7491 55.1738 76.7491 55.752Z" fill="#0079E3"/>
<path d="M91.8606 37.8369C91.9245 37.8369 91.9756 42.6499 91.9756 48.5858C91.9756 54.5235 91.9245 59.3356 91.8606 59.3356C91.7977 59.3356 91.7466 54.5235 91.7466 48.5858C91.7466 42.6499 91.7977 37.8369 91.8606 37.8369Z" fill="#17282F"/>
<path d="M124.25 45.6906C124.25 45.706 123.979 45.7215 123.49 45.7351C122.962 45.7444 122.263 45.7567 121.417 45.7717C119.666 45.7924 117.247 45.8051 114.576 45.8051C113.243 45.802 111.972 45.799 110.811 45.7959C110.52 45.7998 110.236 45.7765 109.986 45.8236C109.73 45.869 109.495 45.976 109.296 46.116C108.895 46.3983 108.652 46.8237 108.576 47.2333C108.534 47.4363 108.545 47.6424 108.539 47.8419C108.537 48.0374 108.534 48.2233 108.53 48.3986C108.523 48.7363 108.517 49.0336 108.511 49.2908C108.497 49.78 108.482 50.0509 108.466 50.0509C108.45 50.0509 108.435 49.78 108.422 49.2908C108.416 49.0336 108.41 48.7363 108.402 48.3986C108.4 48.2233 108.397 48.0374 108.393 47.8419C108.393 47.6481 108.375 47.4337 108.417 47.2051C108.489 46.7559 108.745 46.2816 109.185 45.9615C109.403 45.8025 109.663 45.6796 109.948 45.6259C110.239 45.5686 110.524 45.592 110.811 45.5849C111.972 45.5819 113.243 45.5788 114.576 45.5757C117.247 45.5757 119.666 45.5885 121.417 45.6096C122.263 45.6241 122.962 45.6365 123.49 45.6457C123.979 45.6594 124.25 45.6748 124.25 45.6906Z" fill="#17282F"/>
<path d="M114.614 52.0078C114.613 52.0118 114.572 52.0003 114.495 51.9748C114.406 51.9435 114.294 51.9043 114.154 51.8555C114.004 51.8044 113.822 51.7295 113.601 51.6604C113.376 51.5961 113.119 51.523 112.832 51.441C111.673 51.1345 109.925 50.8721 107.784 51.0835C105.663 51.3199 103.126 52.0712 100.846 53.7685C99.7001 54.6039 98.7005 55.7194 97.6479 56.8613C96.5915 57.9851 95.4509 59.1997 93.9104 59.9004C93.1455 60.2417 92.3127 60.424 91.4936 60.4024C90.6736 60.383 89.8844 60.184 89.1503 59.907C87.6786 59.3428 86.4362 58.4568 85.2516 57.6804C84.0595 56.9045 82.8854 56.2245 81.7105 55.77C80.5399 55.2988 79.3597 55.1513 78.2905 55.2226C76.1445 55.349 74.4842 56.014 73.4379 56.5861C72.9103 56.8732 72.5245 57.1383 72.2682 57.3241C72.1506 57.4131 72.0555 57.4844 71.9802 57.5412C71.9141 57.5892 71.8789 57.6121 71.8767 57.6091C71.8767 57.6091 72.3413 57.1136 73.3947 56.5081C74.4375 55.907 76.1044 55.2099 78.2812 55.0606C79.3637 54.9769 80.5857 55.12 81.7783 55.5925C82.9766 56.047 84.1656 56.7287 85.3656 57.5025C86.5635 58.282 87.7891 59.1478 89.2309 59.6969C89.9478 59.9664 90.7123 60.1567 91.4993 60.1743C92.2845 60.1937 93.0794 60.0193 93.8162 59.6912C95.2998 59.0187 96.4285 57.8279 97.4832 56.708C98.5344 55.5732 99.5495 54.4458 100.72 53.5989C103.045 51.8832 105.621 51.1407 107.768 50.9223C109.934 50.7289 111.695 51.0196 112.855 51.3552C113.142 51.445 113.398 51.5252 113.622 51.5956C113.843 51.6718 114.023 51.7542 114.171 51.8123C114.307 51.87 114.417 51.9162 114.504 51.9528C114.578 51.9858 114.616 52.0043 114.614 52.0078Z" fill="#0079E3"/>
<path d="M92.9074 60.0542C92.9074 60.6324 92.4388 61.101 91.8606 61.101C91.2828 61.101 90.8143 60.6324 90.8143 60.0542C90.8143 59.4764 91.2828 59.0078 91.8606 59.0078C92.4388 59.0078 92.9074 59.4764 92.9074 60.0542Z" fill="#0079E3"/>
<path d="M109.638 50.9273C109.638 51.5051 109.169 51.9736 108.591 51.9736C108.013 51.9736 107.545 51.5051 107.545 50.9273C107.545 50.3491 108.013 49.8805 108.591 49.8805C109.169 49.8805 109.638 50.3491 109.638 50.9273Z" fill="#0079E3"/>
<path d="M77.018 75.9565C77.018 76.0199 75.9157 76.0714 74.5567 76.0714C73.1972 76.0714 72.0958 76.0199 72.0958 75.9565C72.0958 75.8935 73.1972 75.842 74.5567 75.842C75.9157 75.842 77.018 75.8935 77.018 75.9565Z" fill="#17282F"/>
<path d="M83.414 75.9565C83.414 76.0199 82.3117 76.0714 80.9527 76.0714C79.5932 76.0714 78.4914 76.0199 78.4914 75.9565C78.4914 75.8935 79.5932 75.842 80.9527 75.842C82.3117 75.842 83.414 75.8935 83.414 75.9565Z" fill="#17282F"/>
<path d="M90.5457 75.9565C90.5457 76.0199 89.4439 76.0714 88.0848 76.0714C86.7249 76.0714 85.6235 76.0199 85.6235 75.9565C85.6235 75.8935 86.7249 75.842 88.0848 75.842C89.4439 75.842 90.5457 75.8935 90.5457 75.9565Z" fill="#17282F"/>
<path d="M97.3438 75.9565C97.3438 76.0199 96.2415 76.0714 94.8825 76.0714C93.523 76.0714 92.4212 76.0199 92.4212 75.9565C92.4212 75.8935 93.523 75.842 94.8825 75.842C96.2415 75.842 97.3438 75.8935 97.3438 75.9565Z" fill="#17282F"/>
<path d="M103.973 75.9565C103.973 76.0199 102.871 76.0714 101.512 76.0714C100.153 76.0714 99.0516 76.0199 99.0516 75.9565C99.0516 75.8935 100.153 75.842 101.512 75.842C102.871 75.842 103.973 75.8935 103.973 75.9565Z" fill="#17282F"/>
<path d="M110.604 75.9565C110.604 76.0199 109.502 76.0714 108.143 76.0714C106.783 76.0714 105.681 76.0199 105.681 75.9565C105.681 75.8935 106.783 75.842 108.143 75.842C109.502 75.842 110.604 75.8935 110.604 75.9565Z" fill="#17282F"/>
<path d="M74.9157 55.5189C74.9157 55.5264 74.8321 55.5343 74.6731 55.5418C74.4886 55.5475 74.2583 55.5546 73.9777 55.5634C73.3405 55.5722 72.4743 55.585 71.4187 55.5999C70.3278 55.607 69.0441 55.6149 67.6234 55.6242C66.9083 55.6264 66.1587 55.6286 65.3823 55.6312C64.9983 55.6272 64.5945 55.6537 64.181 55.5788C63.7727 55.5097 63.3698 55.3674 63.0012 55.1547C62.2587 54.7324 61.706 54.0441 61.4391 53.2875C61.3057 52.9101 61.2291 52.5173 61.2286 52.131C61.2291 51.7572 61.2295 51.3903 61.23 51.0327C61.2392 49.6116 61.2476 48.3274 61.2546 47.2371C61.2696 46.1815 61.2819 45.3152 61.2907 44.6784C61.2995 44.3975 61.307 44.1676 61.3123 43.9826C61.3198 43.8237 61.3277 43.74 61.3357 43.74C61.3436 43.74 61.3511 43.8237 61.3586 43.9826C61.3643 44.1672 61.3718 44.3975 61.3801 44.6784C61.3894 45.3152 61.4017 46.1815 61.4167 47.2371C61.4237 48.3274 61.4321 49.6116 61.4413 51.0327C61.4607 51.7488 61.3709 52.5067 61.6505 53.2109C61.9029 53.9177 62.4212 54.5615 63.1157 54.9561C63.4609 55.1552 63.837 55.2886 64.2188 55.3542C64.5971 55.4251 64.9908 55.4018 65.3823 55.4062C66.1587 55.4088 66.9083 55.411 67.6234 55.4128C69.0441 55.422 70.3278 55.4304 71.4187 55.4379C72.4743 55.4529 73.3405 55.4652 73.9777 55.474C74.2583 55.4828 74.4886 55.4898 74.6731 55.4956C74.8321 55.5031 74.9157 55.511 74.9157 55.5189Z" fill="#17282F"/>
<path d="M123.974 36.7799V69.2313H158.504V36.7799H123.974Z" fill="#FAFAF9"/>
<path d="M123.973 36.7799C123.973 36.7799 124.024 36.7764 124.128 36.7742C124.24 36.7729 124.396 36.7711 124.598 36.7685C125.022 36.7658 125.64 36.7619 126.442 36.7566C128.069 36.7509 130.442 36.7416 133.457 36.7306C139.52 36.7183 148.162 36.7006 158.504 36.6795H158.604V36.7799C158.609 46.2684 158.614 57.3899 158.619 69.2282V69.2313V69.3463H158.504C145.818 69.3401 133.957 69.3344 123.973 69.3295H123.875L123.876 69.2313C123.896 59.4702 123.914 51.3482 123.925 45.6598C123.936 42.8317 123.945 40.6099 123.951 39.0875C123.956 38.3371 123.96 37.7602 123.962 37.3639C123.966 36.975 123.973 36.7799 123.973 36.7799C123.973 36.7799 123.981 36.9895 123.984 37.385C123.987 37.7862 123.991 38.3693 123.996 39.1276C124.002 40.6557 124.01 42.885 124.021 45.7223C124.033 51.3958 124.051 59.4962 124.072 69.2313L123.973 69.1336C133.957 69.1283 145.818 69.123 158.504 69.1168L158.39 69.2313V69.2282C158.395 57.3899 158.4 46.2684 158.404 36.7799L158.504 36.8803C148.189 36.8587 139.569 36.8416 133.521 36.8292C130.496 36.8178 128.116 36.809 126.484 36.8028C125.673 36.798 125.049 36.794 124.621 36.7914C124.413 36.7887 124.254 36.787 124.14 36.7856C124.032 36.7839 123.973 36.7799 123.973 36.7799Z" fill="#17282F"/>
<path d="M123.973 36.7799C123.973 36.7799 124.024 36.7764 124.128 36.7742C124.24 36.7729 124.396 36.7711 124.598 36.7685C125.022 36.7658 125.64 36.7619 126.442 36.7566C128.069 36.7509 130.442 36.7416 133.457 36.7306C139.52 36.7183 148.162 36.7006 158.504 36.6795H158.604V36.7799C158.609 46.2684 158.614 57.3899 158.619 69.2282V69.2313V69.3463H158.504C145.818 69.3401 133.957 69.3344 123.973 69.3295H123.875L123.876 69.2313C123.896 59.4702 123.914 51.3482 123.925 45.6598C123.936 42.8317 123.945 40.6099 123.951 39.0875C123.956 38.3371 123.96 37.7602 123.962 37.3639C123.966 36.975 123.973 36.7799 123.973 36.7799C123.973 36.7799 123.981 36.9895 123.984 37.385C123.987 37.7862 123.991 38.3693 123.996 39.1276C124.002 40.6557 124.01 42.885 124.021 45.7223C124.033 51.3958 124.051 59.4962 124.072 69.2313L123.973 69.1336C133.957 69.1283 145.818 69.123 158.504 69.1168L158.39 69.2313V69.2282C158.395 57.3899 158.4 46.2684 158.404 36.7799L158.504 36.8803C148.189 36.8587 139.569 36.8416 133.521 36.8292C130.496 36.8178 128.116 36.809 126.484 36.8028C125.673 36.798 125.049 36.794 124.621 36.7914C124.413 36.7887 124.254 36.787 124.14 36.7856C124.032 36.7839 123.973 36.7799 123.973 36.7799Z" stroke="#A5ADAD" stroke-width="0.25"/>
<path d="M141.247 57.4961C137.632 57.4961 134.702 54.5662 134.702 50.9515C134.702 47.3369 137.632 44.4066 141.247 44.4066C144.861 44.4066 147.792 47.3369 147.792 50.9515C147.792 54.5662 144.861 57.4961 141.247 57.4961ZM141.086 40.4576C135.201 40.4576 130.431 45.2279 130.431 51.1123C130.431 56.9962 135.201 61.7665 141.086 61.7665C146.97 61.7665 151.74 56.9962 151.74 51.1123C151.74 45.2279 146.97 40.4576 141.086 40.4576Z" fill="#FD9407"/>
<path d="M134.702 50.9515C134.702 48.2863 136.296 45.9949 138.581 44.9741L136.943 41.2934C133.117 42.9101 130.431 46.6974 130.431 51.1122C130.431 51.2619 130.436 51.4108 130.443 51.5592H134.731C134.712 51.3588 134.702 51.1562 134.702 50.9515Z" fill="#DADBD8"/>
<path d="M149.902 64.4549C149.902 64.5104 145.955 64.5558 141.086 64.5558C136.216 64.5558 132.269 64.5104 132.269 64.4549C132.269 64.399 136.216 64.3536 141.086 64.3536C145.955 64.3536 149.902 64.399 149.902 64.4549Z" fill="#17282F"/>
<path d="M145.975 66.0733C145.975 66.1292 143.786 66.1746 141.086 66.1746C138.385 66.1746 136.196 66.1292 136.196 66.0733C136.196 66.0178 138.385 65.9724 141.086 65.9724C143.786 65.9724 145.975 66.0178 145.975 66.0733Z" fill="#17282F"/>
<path d="M140.316 49.5724V50.007L139.45 52.0275H138.692L139.52 50.1228H138.874V50.502H138.282V49.5724H140.316Z" fill="#17282F"/>
<path d="M142.408 51.2382C142.408 51.6769 142.079 52.0767 141.338 52.0767C140.998 52.0767 140.636 51.9926 140.387 51.8345L140.636 51.3118C140.836 51.4452 141.082 51.5152 141.317 51.5152C141.552 51.5152 141.71 51.4205 141.71 51.2558C141.71 51.1052 141.608 51.007 141.233 51.007H140.566L140.689 49.5723H142.253V50.1086H141.264L141.233 50.4667H141.398C142.124 50.4667 142.408 50.8036 142.408 51.2382Z" fill="#17282F"/>
<path d="M145.097 51.3787C145.097 51.1295 145.006 51.0313 144.89 51.0313C144.774 51.0313 144.683 51.1295 144.683 51.3787C144.683 51.6276 144.774 51.7258 144.89 51.7258C145.006 51.7258 145.097 51.6276 145.097 51.3787ZM144.262 51.3787C144.262 50.9542 144.525 50.6983 144.89 50.6983C145.255 50.6983 145.521 50.9542 145.521 51.3787C145.521 51.8063 145.255 52.0591 144.89 52.0591C144.525 52.0591 144.262 51.8063 144.262 51.3787ZM143.364 50.221C143.364 49.9722 143.276 49.874 143.157 49.874C143.045 49.874 142.95 49.9722 142.95 50.221C142.95 50.4702 143.045 50.5684 143.157 50.5684C143.276 50.5684 143.364 50.4702 143.364 50.221ZM144.609 49.5723H145.114L143.438 52.0274H142.932L144.609 49.5723ZM142.529 50.221C142.529 49.7964 142.796 49.5406 143.157 49.5406C143.522 49.5406 143.788 49.7964 143.788 50.221C143.788 50.649 143.522 50.9018 143.157 50.9018C142.796 50.9018 142.529 50.649 142.529 50.221Z" fill="#17282F"/>
<path d="M80.4964 1V37.7222H119.571V1H80.4964Z" fill="#FAFAF9" stroke="#A5ADAD" stroke-width="0.25"/>
<path d="M100.042 24.4425C95.9515 24.4425 92.6354 21.1264 92.6354 17.0361C92.6354 12.9458 95.9515 9.63016 100.042 9.63016C104.133 9.63016 107.448 12.9458 107.448 17.0361C107.448 21.1264 104.133 24.4425 100.042 24.4425ZM99.8599 5.1616C93.2013 5.1616 87.8035 10.5594 87.8035 17.218C87.8035 23.877 93.2013 29.2748 99.8599 29.2748C106.519 29.2748 111.916 23.877 111.916 17.218C111.916 10.5594 106.519 5.1616 99.8599 5.1616Z" fill="#DADBD8"/>
<path d="M100.045 5.16664C100.045 6.44904 100.045 8.17886 100.044 9.63036C104.134 9.63124 107.448 12.9469 107.448 17.0363C107.448 17.8197 107.326 18.5737 107.101 19.2823L111.47 20.4669C111.759 19.4333 111.917 18.3447 111.917 17.2182C111.917 10.6217 106.618 5.26573 100.045 5.16664Z" fill="#DADBD8"/>
<path d="M92.6354 17.0363C92.6354 14.0205 94.4392 11.4276 97.026 10.2724L95.1716 6.10772C90.8417 7.93663 87.8035 12.2229 87.8035 17.2182C87.8035 17.3881 87.8093 17.5564 87.8163 17.7242H92.6684C92.6477 17.4978 92.6354 17.2683 92.6354 17.0363Z" fill="#0079E3"/>
<path d="M100.042 24.4425C99.504 24.4425 98.9799 24.3839 98.4748 24.2747C98.289 25.3497 97.9367 27.4313 97.6601 29.0709C98.374 29.2026 99.1081 29.2748 99.8598 29.2748C105.392 29.2748 110.051 25.5465 111.47 20.4667L107.101 19.282C106.149 22.274 103.349 24.4425 100.042 24.4425Z" fill="#E7E8E5"/>
<path d="M109.837 32.3167C109.837 32.3801 105.37 32.4312 99.8604 32.4312C94.3499 32.4312 89.8835 32.3801 89.8835 32.3167C89.8835 32.2537 94.3499 32.2027 99.8604 32.2027C105.37 32.2027 109.837 32.2537 109.837 32.3167Z" fill="#17282F"/>
<path d="M105.394 34.1487C105.394 34.2122 102.916 34.2632 99.8601 34.2632C96.8039 34.2632 94.3271 34.2122 94.3271 34.1487C94.3271 34.0858 96.8039 34.0342 99.8601 34.0342C102.916 34.0342 105.394 34.0858 105.394 34.1487Z" fill="#17282F"/>
<path d="M99.0354 17.4115C99.0354 17.8286 98.7056 18.2284 97.9657 18.2284C97.6253 18.2284 97.2642 18.1443 97.0114 17.9867L97.2642 17.4639C97.4602 17.5969 97.7129 17.6669 97.9446 17.6669C98.1793 17.6669 98.3339 17.5758 98.3339 17.4115C98.3339 17.2635 98.2251 17.1724 97.9587 17.1724H97.6676V16.7342L98.1058 16.2608H97.1378V15.724H98.9125V16.1591L98.4039 16.706C98.8179 16.7941 99.0354 17.0605 99.0354 17.4115Z" fill="#17282F"/>
<path d="M101.152 17.3899C101.152 17.8286 100.823 18.2284 100.082 18.2284C99.7419 18.2284 99.3808 18.1443 99.1315 17.9867L99.3808 17.4639C99.5807 17.5969 99.826 17.6669 100.062 17.6669C100.296 17.6669 100.454 17.5727 100.454 17.4076C100.454 17.2569 100.353 17.1587 99.9771 17.1587H99.3103L99.4336 15.724H100.997V16.2608H100.008L99.9771 16.6184H100.142C100.868 16.6184 101.152 16.9553 101.152 17.3899Z" fill="#17282F"/>
<path d="M103.842 17.5304C103.842 17.2816 103.75 17.183 103.635 17.183C103.518 17.183 103.427 17.2816 103.427 17.5304C103.427 17.7792 103.518 17.8779 103.635 17.8779C103.75 17.8779 103.842 17.7792 103.842 17.5304ZM103.007 17.5304C103.007 17.1059 103.27 16.85 103.635 16.85C103.999 16.85 104.266 17.1059 104.266 17.5304C104.266 17.9585 103.999 18.2108 103.635 18.2108C103.27 18.2108 103.007 17.9585 103.007 17.5304ZM102.109 16.3727C102.109 16.1239 102.021 16.0256 101.901 16.0256C101.789 16.0256 101.695 16.1239 101.695 16.3727C101.695 16.6219 101.789 16.7201 101.901 16.7201C102.021 16.7201 102.109 16.6219 102.109 16.3727ZM103.354 15.724H103.859L102.182 18.1796H101.677L103.354 15.724ZM101.273 16.3727C101.273 15.9486 101.54 15.6923 101.901 15.6923C102.266 15.6923 102.533 15.9486 102.533 16.3727C102.533 16.8007 102.266 17.0535 101.901 17.0535C101.54 17.0535 101.273 16.8007 101.273 16.3727Z" fill="#17282F"/>
<path d="M37.0978 11.1734V43.6252H71.6287V11.1734H37.0978Z" fill="#FAFAF9"/>
<path d="M37.0982 11.1734C37.0982 11.1734 37.1488 11.1699 37.2532 11.1681C37.3651 11.1668 37.5205 11.1646 37.7231 11.1624C38.1476 11.1593 38.7646 11.1558 39.5666 11.1505C41.1938 11.1443 43.5666 11.1355 46.5819 11.1241C52.6451 11.1117 61.2871 11.0946 71.6287 11.0734L71.7291 11.073L71.7295 11.1734C71.7335 20.6619 71.7383 31.7833 71.7436 43.6217V43.6252V43.7397H71.6287C58.9425 43.7336 47.0821 43.7283 37.0982 43.7234H37V43.6252C37.0211 33.8641 37.0383 25.7422 37.0502 20.0537C37.0612 17.2256 37.07 15.0038 37.0762 13.481C37.081 12.7306 37.0846 12.1541 37.0872 11.7573C37.0912 11.3685 37.0982 11.1734 37.0982 11.1734C37.0982 11.1734 37.1057 11.383 37.1092 11.7785C37.1119 12.1801 37.1154 12.7627 37.1207 13.5211C37.1264 15.0492 37.1352 17.2784 37.1462 20.1158C37.1585 25.7893 37.1757 33.8897 37.1964 43.6252L37.0982 43.527C47.0821 43.5222 58.9425 43.5165 71.6287 43.5107L71.5142 43.6252V43.6217C71.5195 31.7833 71.5247 20.6619 71.5287 11.1734L71.6287 11.2738C61.3136 11.2527 52.6935 11.235 46.6462 11.2232C43.6207 11.2117 41.2405 11.2029 39.6084 11.1963C38.7976 11.1915 38.1741 11.1875 37.7456 11.1848C37.5377 11.1826 37.3792 11.1804 37.2647 11.1796C37.1563 11.1774 37.0982 11.1734 37.0982 11.1734Z" fill="#17282F"/>
<path d="M37.0982 11.1734C37.0982 11.1734 37.1488 11.1699 37.2532 11.1681C37.3651 11.1668 37.5205 11.1646 37.7231 11.1624C38.1476 11.1593 38.7646 11.1558 39.5666 11.1505C41.1938 11.1443 43.5666 11.1355 46.5819 11.1241C52.6451 11.1117 61.2871 11.0946 71.6287 11.0734L71.7291 11.073L71.7295 11.1734C71.7335 20.6619 71.7383 31.7833 71.7436 43.6217V43.6252V43.7397H71.6287C58.9425 43.7336 47.0821 43.7283 37.0982 43.7234H37V43.6252C37.0211 33.8641 37.0383 25.7422 37.0502 20.0537C37.0612 17.2256 37.07 15.0038 37.0762 13.481C37.081 12.7306 37.0846 12.1541 37.0872 11.7573C37.0912 11.3685 37.0982 11.1734 37.0982 11.1734ZM37.0982 11.1734C37.0982 11.1734 37.1057 11.383 37.1092 11.7785C37.1119 12.1801 37.1154 12.7627 37.1207 13.5211C37.1264 15.0492 37.1352 17.2784 37.1462 20.1158C37.1585 25.7893 37.1757 33.8897 37.1964 43.6252L37.0982 43.527C47.0821 43.5222 58.9425 43.5165 71.6287 43.5107L71.5142 43.6252V43.6217C71.5195 31.7833 71.5247 20.6619 71.5287 11.1734L71.6287 11.2738C61.3136 11.2527 52.6935 11.235 46.6462 11.2232C43.6207 11.2117 41.2405 11.2029 39.6084 11.1963C38.7976 11.1915 38.1741 11.1875 37.7456 11.1848C37.5377 11.1826 37.3792 11.1804 37.2647 11.1796C37.1563 11.1774 37.0982 11.1734 37.0982 11.1734Z" stroke="#A5ADAD" stroke-width="0.25"/>
<path d="M54.3708 31.89C50.7561 31.89 47.8258 28.9597 47.8258 25.345C47.8258 21.7304 50.7561 18.8001 54.3708 18.8001C57.9855 18.8001 60.9158 21.7304 60.9158 25.345C60.9158 28.9597 57.9855 31.89 54.3708 31.89ZM54.2101 14.8516C48.3261 14.8516 43.5554 19.6214 43.5554 25.5058C43.5554 31.3902 48.3261 36.1604 54.2101 36.1604C60.0945 36.1604 64.8647 31.3902 64.8647 25.5058C64.8647 19.6214 60.0945 14.8516 54.2101 14.8516Z" fill="#DADBD8"/>
<path d="M54.3733 14.8557C54.3733 15.9892 54.3729 17.5182 54.372 18.8002C57.9862 18.8011 60.9157 21.7314 60.9157 25.3452C60.9157 26.037 60.8073 26.7037 60.6087 27.3295L64.47 28.3768C64.725 27.4634 64.8646 26.5012 64.8646 25.5059C64.8646 19.6765 60.182 14.9433 54.3733 14.8557Z" fill="#FD9407"/>
<path d="M47.8258 25.3449C47.8258 22.6797 49.4196 20.3884 51.7056 19.3676L50.0669 15.6869C46.2409 17.3035 43.5554 21.0908 43.5554 25.5057C43.5554 25.6558 43.5611 25.8047 43.5669 25.9527H47.8549C47.8368 25.7527 47.8258 25.5502 47.8258 25.3449Z" fill="#E7E8E5"/>
<path d="M54.3707 31.89C53.8955 31.89 53.4327 31.838 52.9861 31.742C52.8214 32.6915 52.5105 34.5314 52.2661 35.9798C52.8967 36.0961 53.5459 36.1604 54.21 36.1604C59.0991 36.1604 63.2162 32.8659 64.47 28.3766L60.6087 27.3294C59.7676 29.9739 57.2935 31.89 54.3707 31.89Z" fill="#F2575D"/>
<path d="M54.21 36.1604C53.5459 36.1604 52.8967 36.0961 52.2661 35.9798C52.5105 34.5314 52.8214 32.6915 52.9861 31.742C53.4327 31.838 53.8955 31.89 54.3707 31.89C57.2935 31.89 59.7676 29.9739 60.6087 27.3294L64.47 28.3766C63.2162 32.8659 59.0991 36.1604 54.21 36.1604Z" fill="#FD9407" fill-opacity="0.6"/>
<path d="M63.0266 38.8483C63.0266 38.9042 59.079 38.9496 54.2105 38.9496C49.3408 38.9496 45.394 38.9042 45.394 38.8483C45.394 38.7924 49.3408 38.7474 54.2105 38.7474C59.079 38.7474 63.0266 38.7924 63.0266 38.8483Z" fill="#17282F"/>
<path d="M59.0997 40.4672C59.0997 40.5232 56.9101 40.5685 54.2101 40.5685C51.5088 40.5685 49.3201 40.5232 49.3201 40.4672C49.3201 40.4113 51.5088 40.3664 54.2101 40.3664C56.9101 40.3664 59.0997 40.4113 59.0997 40.4672Z" fill="#17282F"/>
<path d="M52.2589 25.667C52.2589 25.478 52.122 25.3587 51.922 25.3587C51.7221 25.3587 51.582 25.4846 51.582 25.6709C51.582 25.8532 51.715 25.9792 51.9255 25.9792C52.122 25.9792 52.2589 25.8603 52.2589 25.667ZM52.9323 25.6357C52.9323 26.1479 52.5042 26.4737 51.9678 26.4737C51.2799 26.4737 50.8307 26.0602 50.8307 25.264C50.8307 24.4079 51.361 23.9204 52.1356 23.9204C52.413 23.9204 52.6799 23.9834 52.8587 24.0992L52.6059 24.5973C52.4655 24.4991 52.3113 24.4713 52.1532 24.4713C51.8031 24.4713 51.5675 24.6673 51.5327 25.0429C51.6697 24.9236 51.8555 24.8606 52.0867 24.8606C52.55 24.8606 52.9323 25.1658 52.9323 25.6357Z" fill="#17282F"/>
<path d="M54.5723 25.1975C54.5723 24.6818 54.4102 24.4889 54.1896 24.4889C53.9655 24.4889 53.8034 24.6818 53.8034 25.1975C53.8034 25.7128 53.9655 25.9061 54.1896 25.9061C54.4102 25.9061 54.5723 25.7128 54.5723 25.1975ZM53.1058 25.1975C53.1058 24.3868 53.5621 23.9204 54.1896 23.9204C54.8136 23.9204 55.2703 24.3868 55.2703 25.1975C55.2703 26.0074 54.8136 26.4737 54.1896 26.4737C53.5621 26.4737 53.1058 26.0074 53.1058 25.1975Z" fill="#17282F"/>
<path d="M58.032 25.7762C58.032 25.5269 57.9409 25.4287 57.8251 25.4287C57.7092 25.4287 57.6181 25.5269 57.6181 25.7762C57.6181 26.025 57.7092 26.1232 57.8251 26.1232C57.9409 26.1232 58.032 26.025 58.032 25.7762ZM57.1975 25.7762C57.1975 25.3517 57.46 25.0958 57.8251 25.0958C58.1897 25.0958 58.4566 25.3517 58.4566 25.7762C58.4566 26.2038 58.1897 26.4566 57.8251 26.4566C57.46 26.4566 57.1975 26.2038 57.1975 25.7762ZM56.2991 24.6184C56.2991 24.3696 56.2115 24.271 56.0922 24.271C55.9799 24.271 55.8852 24.3696 55.8852 24.6184C55.8852 24.8677 55.9799 24.9659 56.0922 24.9659C56.2115 24.9659 56.2991 24.8677 56.2991 24.6184ZM57.5445 23.9693H58.0497L56.3727 26.4249H55.8676L57.5445 23.9693ZM55.4642 24.6184C55.4642 24.1939 55.7306 23.938 56.0922 23.938C56.4572 23.938 56.7237 24.1939 56.7237 24.6184C56.7237 25.0465 56.4572 25.2988 56.0922 25.2988C55.7306 25.2988 55.4642 25.0465 55.4642 24.6184Z" fill="#17282F"/>
<path d="M26.1132 127.428L16.6709 135.173L26.2462 146.97C27.3171 145.986 24.6259 138.047 24.6259 138.047L30.8794 133.333L26.1132 127.428Z" fill="#33535F"/>
<path d="M26.2061 147L25.4258 146.026C25.4448 146.026 25.4609 146.026 25.48 146.026L26.2464 146.97C26.3697 146.857 26.443 146.651 26.4765 146.376C26.482 146.597 26.4361 146.869 26.2061 147Z" fill="white"/>
<path d="M25.4807 146.026C25.4615 146.026 25.4453 146.026 25.4262 146.026L25.3665 145.951L25.4199 145.951L25.4807 146.026Z" fill="#9BA6A6"/>
<path d="M26.2466 146.97L25.4801 146.026L25.4197 145.951L26.3558 145.947L26.4327 146.05C26.4327 146.05 26.4722 146.195 26.4767 146.376C26.4432 146.651 26.3699 146.857 26.2466 146.97Z" fill="#A6B7B9"/>
<path d="M21.9089 141.634L21.3979 140.997L21.9089 141.626V141.634ZM16.7089 135.142L16.7078 135.141L17.6578 134.354L17.6622 134.36L16.7089 135.142Z" fill="white"/>
<path d="M21.9088 141.626L21.3977 140.997L16.7087 135.142L17.662 134.36L21.8935 140L21.9088 141.626Z" fill="#A6B7B9"/>
<path d="M24.8413 138.19C24.7821 138.234 24.5222 137.967 24.107 137.834C23.6953 137.69 23.3272 137.747 23.3069 137.675C23.2749 137.613 23.689 137.42 24.1892 137.589C24.6904 137.754 24.9045 138.159 24.8413 138.19Z" fill="#17282F"/>
<path d="M25.3337 139.842C25.2884 139.901 24.988 139.73 24.5856 139.733C24.1832 139.723 23.8796 139.888 23.8355 139.828C23.7827 139.781 24.0877 139.467 24.5881 139.474C25.0883 139.477 25.3875 139.796 25.3337 139.842Z" fill="#17282F"/>
<path d="M24.4232 141.747C24.3684 141.704 24.5913 141.391 25.0268 141.282C25.4617 141.171 25.8066 141.342 25.7783 141.405C25.7575 141.476 25.4461 141.439 25.0899 141.533C24.7316 141.619 24.4754 141.799 24.4232 141.747Z" fill="#17282F"/>
<path d="M26.1472 136.957C26.0751 136.975 25.9401 136.646 25.6537 136.339C25.3735 136.026 25.0588 135.861 25.0837 135.791C25.0983 135.723 25.5122 135.798 25.8444 136.165C26.1795 136.529 26.2155 136.948 26.1472 136.957Z" fill="#17282F"/>
<path d="M27.3189 135.54C27.2956 135.56 27.0751 135.361 26.8424 134.946C26.7267 134.74 26.6127 134.479 26.5305 134.174C26.4896 134.022 26.4564 133.86 26.4352 133.689C26.426 133.606 26.4088 133.513 26.4293 133.398C26.4375 133.285 26.5608 133.125 26.7143 133.123C26.854 133.109 26.9798 133.184 27.0507 133.268C27.1242 133.353 27.164 133.437 27.2002 133.514C27.2749 133.672 27.3312 133.83 27.3723 133.984C27.4526 134.293 27.4717 134.581 27.4569 134.819C27.4255 135.299 27.286 135.566 27.259 135.556C27.2188 135.545 27.2909 135.266 27.2742 134.817C27.2656 134.594 27.2293 134.329 27.1433 134.05C27.0997 133.91 27.0437 133.767 26.9726 133.625C26.904 133.474 26.8186 133.367 26.737 133.38C26.7063 133.385 26.6968 133.391 26.6815 133.447C26.6697 133.501 26.6777 133.578 26.6864 133.66C26.703 133.82 26.7292 133.973 26.7614 134.117C26.8265 134.406 26.9164 134.659 27.006 134.866C27.1861 135.28 27.3508 135.516 27.3189 135.54Z" fill="#17282F"/>
<path d="M27.1755 135.532C27.1502 135.518 27.2638 135.237 27.6197 134.913C27.7968 134.753 28.0367 134.59 28.332 134.468C28.4798 134.408 28.6412 134.359 28.8129 134.328C28.9855 134.302 29.21 134.26 29.4169 134.462C29.5161 134.576 29.5037 134.747 29.4527 134.843C29.4044 134.947 29.3423 135.01 29.2852 135.08C29.165 135.213 29.0277 135.32 28.8875 135.403C28.6063 135.569 28.314 135.636 28.0726 135.646C27.5795 135.664 27.3157 135.479 27.3313 135.458C27.3447 135.416 27.6189 135.526 28.0557 135.464C28.271 135.433 28.5248 135.356 28.7626 135.2C28.8813 135.123 28.9957 135.027 29.0952 134.912C29.2057 134.792 29.2684 134.663 29.2175 134.627C29.171 134.567 28.9956 134.544 28.8565 134.577C28.7015 134.602 28.5541 134.642 28.4173 134.691C28.1442 134.79 27.9138 134.923 27.7348 135.054C27.3756 135.319 27.2099 135.556 27.1755 135.532Z" fill="#17282F"/>
<path d="M21.835 133.754L21.9493 145.966L37.143 145.901C37.0479 144.45 29.1754 141.57 29.1754 141.57L29.4231 133.743L21.835 133.754Z" fill="#33535F"/>
<path d="M24.622 142.086C24.3639 142.086 24.1084 141.896 24.0487 141.641C23.9836 141.363 24.1567 141.055 24.4203 140.95C24.4779 140.919 24.5417 140.905 24.6076 140.905C24.8485 140.905 25.1156 141.091 25.1957 141.316C25.2981 141.603 25.0436 141.993 24.7487 142.07C24.7069 142.081 24.6644 142.086 24.622 142.086Z" fill="#A6B7B9"/>
<path d="M37.1425 145.893C37.1282 145.728 37.015 145.545 36.8254 145.35C36.9867 145.474 37.1557 145.66 37.147 145.893C37.1453 145.893 37.1446 145.893 37.1425 145.893Z" fill="white"/>
<path d="M37.1411 145.951L29.4675 145.934L37.1432 145.901C37.1432 145.898 37.1429 145.895 37.1425 145.892C37.1446 145.892 37.1453 145.892 37.1471 145.892C37.1464 145.912 37.1446 145.932 37.1411 145.951Z" fill="#9BA6A6"/>
<path d="M21.9476 145.912L21.9304 144.684L21.9376 144.684L21.9492 145.912H21.9476Z" fill="white"/>
<path d="M21.9475 145.917H21.9491V145.912H21.9475V145.917Z" fill="#9BA6A6"/>
<path d="M29.4675 145.934L21.9491 145.917V145.912L21.9375 144.684L36.543 145.179C36.543 145.179 36.6813 145.24 36.8255 145.35C37.015 145.545 37.1282 145.728 37.1425 145.892C37.1429 145.895 37.1432 145.898 37.1432 145.901L29.4675 145.934Z" fill="#A6B7B9"/>
<path d="M29.4215 141.491C29.4195 141.566 29.0487 141.601 28.6846 141.841C28.3143 142.071 28.1275 142.394 28.0592 142.365C27.9906 142.35 28.0993 141.906 28.5453 141.624C28.9885 141.337 29.4373 141.423 29.4215 141.491Z" fill="#17282F"/>
<path d="M31.0176 142.143C31.035 142.216 30.7141 142.343 30.4636 142.658C30.2036 142.965 30.1414 143.305 30.0677 143.302C29.9979 143.314 29.9447 142.879 30.2638 142.494C30.5795 142.106 31.0157 142.073 31.0176 142.143Z" fill="#17282F"/>
<path d="M31.931 144.047C31.8637 144.063 31.7589 143.693 31.9475 143.286C32.1337 142.878 32.4827 142.716 32.5144 142.777C32.5566 142.838 32.3322 143.057 32.1824 143.394C32.0246 143.727 32.0048 144.04 31.931 144.047Z" fill="#17282F"/>
<path d="M29.28 139.701C29.2491 139.769 28.9083 139.668 28.4892 139.699C28.0692 139.72 27.7435 139.862 27.7046 139.799C27.6615 139.745 27.979 139.469 28.4732 139.441C28.967 139.408 29.316 139.643 29.28 139.701Z" fill="#17282F"/>
<path d="M28.9104 137.9C28.9114 137.931 28.6184 137.978 28.1494 137.899C27.9162 137.86 27.6411 137.785 27.3522 137.658C27.2082 137.594 27.0607 137.518 26.9144 137.428C26.8442 137.383 26.7609 137.338 26.6839 137.25C26.6014 137.173 26.5538 136.976 26.6482 136.855C26.7255 136.738 26.8628 136.688 26.9725 136.685C27.0845 136.68 27.1753 136.703 27.2581 136.723C27.4275 136.763 27.5863 136.818 27.7318 136.883C28.0227 137.014 28.2593 137.18 28.4354 137.341C28.7893 137.666 28.9109 137.942 28.8855 137.957C28.8519 137.981 28.6795 137.75 28.3197 137.482C28.1402 137.348 27.9111 137.211 27.6392 137.102C27.5031 137.049 27.3567 137.003 27.2018 136.97C27.0407 136.928 26.9038 136.927 26.8628 136.999C26.848 137.026 26.8462 137.037 26.88 137.084C26.915 137.128 26.9803 137.17 27.0494 137.214C27.1842 137.301 27.3197 137.377 27.4525 137.442C27.718 137.573 27.9718 137.661 28.1892 137.721C28.6251 137.841 28.9116 137.86 28.9104 137.9Z" fill="#17282F"/>
<path d="M28.8144 138.007C28.7881 138.018 28.6398 137.753 28.6105 137.273C28.5969 137.035 28.6204 136.746 28.7108 136.439C28.7568 136.287 28.8198 136.13 28.9027 135.977C28.9912 135.826 29.0988 135.624 29.3865 135.59C29.5369 135.584 29.6622 135.701 29.7052 135.801C29.756 135.904 29.7663 135.992 29.7844 136.08C29.8133 136.257 29.8105 136.431 29.787 136.593C29.7407 136.916 29.6094 137.186 29.4656 137.38C29.1702 137.775 28.8609 137.864 28.8547 137.84C28.8296 137.802 29.0879 137.658 29.3134 137.278C29.4245 137.092 29.523 136.845 29.5509 136.563C29.5653 136.422 29.5625 136.273 29.5352 136.123C29.5108 135.962 29.4495 135.832 29.3892 135.848C29.3137 135.848 29.1858 135.97 29.1241 136.099C29.0467 136.235 28.9852 136.375 28.9374 136.512C28.8432 136.787 28.8029 137.05 28.7933 137.272C28.7742 137.718 28.8547 137.996 28.8144 138.007Z" fill="#17282F"/>
<path d="M23.137 63.0144C23.137 63.0144 21.0081 65.2942 19.9623 67.479C18.9166 69.6638 18.2478 74.8771 18.2478 74.8771C18.2478 74.8771 15.3074 81.4262 15.7542 84.777C16.201 88.1275 19.1954 111.043 19.1954 111.043C19.1954 111.043 19.0473 133.32 21.1683 137.292L21.6416 139.436L30.2067 137.915L30.1534 136.63L32.1765 92.9495L37.3307 63.2126L23.137 63.0144Z" fill="#17282F"/>
<path d="M42.0394 69.5101C42.0394 69.5101 47.1604 97.7044 47.612 102.6C48.0638 107.495 30.6324 133.296 30.6324 133.296L22.6611 124.995L34.1012 103.729L30.3829 82.2982L35.5554 63.3617L40.9883 63.5523L42.0394 69.5101Z" fill="#17282F"/>
<path d="M19.8398 130.357C19.8398 130.357 19.8441 130.572 19.9011 130.98C19.9532 131.389 20.0539 131.99 20.1959 132.765C20.481 134.317 20.9427 136.567 21.5632 139.378L21.5761 139.436L21.6356 139.426C24.0563 139.002 26.9624 138.492 30.2039 137.924L30.2689 137.913L30.2716 137.847C30.5098 131.968 30.7946 124.941 31.0997 117.406C31.416 109.298 31.7091 101.78 31.9496 95.6123L31.9489 95.6193C32.5911 90.6641 33.1223 86.567 33.4939 83.6997C33.6732 82.2755 33.8139 81.1572 33.9109 80.3865C33.9556 80.011 33.9901 79.7204 34.0145 79.5159C34.0364 79.3191 34.0417 79.2167 34.0417 79.2167C34.0417 79.2167 34.0202 79.3166 33.9903 79.5128C33.9603 79.7169 33.9181 80.0061 33.8634 80.3803C33.7563 81.1499 33.601 82.2661 33.4033 83.6879C33.0156 86.5531 32.4611 90.6474 31.7909 95.5987L31.7904 95.6018V95.6057C31.5399 101.773 31.235 109.29 30.9062 117.398C30.6118 124.934 30.3374 131.961 30.1079 137.84L30.1754 137.763C26.9364 138.345 24.0325 138.867 21.6135 139.302L21.6856 139.35C21.0489 136.544 20.5682 134.299 20.2627 132.753C20.1104 131.979 19.9991 131.381 19.9355 130.975C19.9004 130.772 19.8807 130.617 19.8665 130.513C19.8518 130.409 19.8398 130.357 19.8398 130.357Z" fill="#33535F"/>
<path d="M35.185 15.46C35.4412 13.9651 34.3012 12.459 32.8544 12.0047C31.4076 11.55 29.7903 11.9942 28.5466 12.8621C27.6209 13.508 26.855 14.3758 25.8753 14.9364C24.9844 15.4461 23.9545 15.6792 23.0744 16.2077C21.6989 17.034 20.7955 18.5948 20.7643 20.1992C20.7425 21.314 21.0984 22.5034 20.5993 23.5005C20.0559 24.5858 18.6861 25.0328 18.0662 26.0762C17.5042 27.0221 17.6884 28.2205 17.9566 29.2873C18.2249 30.3544 18.5604 31.4763 18.2499 32.5319C17.9668 33.4927 17.1928 34.2268 16.7606 35.1309C15.9023 36.9275 16.6854 39.3325 18.437 40.2794L27.6363 36.5443L35.185 15.46Z" fill="#17282F"/>
<path d="M35.2934 14.8694C36.7105 14.7345 37.9985 15.8605 38.5472 17.174C39.0963 18.4874 39.0806 19.9566 39.1015 21.3801C39.1224 22.8036 39.2057 24.2895 39.915 25.5235C40.2878 26.1715 40.8153 26.7157 41.2431 27.3285C41.6706 27.9417 42.0068 28.6737 41.9113 29.4154C41.7378 30.7626 40.2592 31.5918 39.8861 32.8979C39.584 33.956 40.0701 35.1071 39.8269 36.1805C39.6398 37.0072 39.0315 37.6904 38.3159 38.1444C37.5996 38.5983 36.7778 38.8516 35.9624 39.0836L31.3457 35.5105L32.4683 14.5774L35.2934 14.8694Z" fill="#17282F"/>
<path d="M25.1542 21.9843L25.7046 36.8366C25.7982 39.3624 27.9864 41.2957 30.5042 41.0776C32.8543 40.8741 34.4936 38.8914 34.4038 36.5345C34.3614 35.4166 34.3848 34.093 34.3881 33.978C34.3881 33.978 38.1087 33.1423 38.2432 29.3897C38.308 27.5764 38.2648 24.5293 38.0715 21.1426C37.8638 17.5051 34.8931 14.6388 31.2507 14.5535L30.8886 14.5451C26.9781 14.6817 24.9096 18.0789 25.1542 21.9843Z" fill="#F8A58D"/>
<path d="M34.4038 33.9968C34.4038 33.9968 32.0272 34.1341 29.5432 32.4914C29.5432 32.4914 30.6365 35.2197 34.3899 34.9695L34.4038 33.9968Z" fill="#F68260"/>
<path d="M37.1723 24.4722C37.1758 24.7551 36.9386 24.9917 36.6428 25.0007C36.3475 25.0094 36.105 24.7879 36.1016 24.5046C36.0982 24.221 36.3351 23.9845 36.6306 23.9754C36.9264 23.9664 37.1689 24.1886 37.1723 24.4722Z" fill="#17282F"/>
<path d="M37.2483 23.2072C37.18 23.2755 36.7811 22.9654 36.2041 22.9536C35.6281 22.9334 35.1977 23.2201 35.1371 23.148C35.107 23.116 35.1776 22.9916 35.365 22.8616C35.5495 22.732 35.8621 22.6094 36.2214 22.6195C36.5808 22.6299 36.8797 22.7689 37.0504 22.9087C37.2246 23.0487 37.2817 23.1766 37.2483 23.2072Z" fill="#17282F"/>
<path d="M31.7029 24.4722C31.7063 24.7554 31.4691 24.9917 31.1735 25.0007C30.8782 25.0098 30.6355 24.7878 30.6321 24.5046C30.629 24.221 30.8661 23.9845 31.1612 23.9754C31.457 23.9663 31.6996 24.1886 31.7029 24.4722Z" fill="#17282F"/>
<path d="M31.7335 23.2886C31.6651 23.3569 31.2656 23.0469 30.6892 23.035C30.1133 23.0148 29.6828 23.3015 29.6219 23.2294C29.5921 23.1974 29.6619 23.073 29.8502 22.943C30.0346 22.8134 30.3471 22.6912 30.7064 22.7006C31.0657 22.7114 31.3648 22.8504 31.5356 22.9901C31.7092 23.1301 31.7665 23.258 31.7335 23.2886Z" fill="#17282F"/>
<path d="M33.5426 27.2673C33.5408 27.2342 33.9007 27.1806 34.4833 27.12C34.631 27.1085 34.7711 27.0823 34.7982 26.9823C34.8355 26.8768 34.7777 26.7165 34.7103 26.5434C34.5799 26.1838 34.4439 25.8069 34.3008 25.4118C33.7334 23.8005 33.3264 22.4776 33.3913 22.455C33.4565 22.4327 33.9693 23.7207 34.5368 25.3313C34.673 25.7288 34.8035 26.1072 34.9275 26.4695C34.9792 26.6385 35.0707 26.8304 34.9904 27.0496C34.948 27.1586 34.8382 27.236 34.7431 27.2593C34.648 27.2858 34.5651 27.2854 34.4921 27.2882C33.9068 27.306 33.5441 27.2997 33.5426 27.2673Z" fill="#17282F"/>
<path d="M31.5545 21.0242C31.4898 21.1782 30.9182 21.0751 30.238 21.1221C29.5568 21.1559 29.0016 21.3263 28.9191 21.1813C28.8825 21.1123 28.985 20.9699 29.2131 20.8291C29.4213 20.7079 29.6158 20.5661 30.2596 20.5664C30.6678 20.5431 30.9795 20.5967 31.2207 20.7093C31.4639 20.8218 31.5826 20.9514 31.5545 21.0242Z" fill="#17282F"/>
<path d="M37.476 21.0026C37.3558 21.1322 36.8924 20.9914 36.3333 20.9785C35.7748 20.9496 35.2999 21.0555 35.1923 20.9172C35.1454 20.8503 35.2213 20.7197 35.4295 20.5981C35.6346 20.4765 35.9768 20.3793 36.3607 20.3932C36.7447 20.4082 37.0764 20.5305 37.2697 20.6667C37.4655 20.8036 37.5289 20.9391 37.476 21.0026Z" fill="#17282F"/>
<path d="M33.7223 29.1131C33.6943 28.9978 33.6627 28.8814 33.6047 28.778C33.4743 28.5438 33.2133 28.3954 32.946 28.3777C32.6787 28.3599 32.4107 28.4648 32.2079 28.64C32.0174 28.8145 31.9238 29.0124 31.9192 29.2577C31.918 29.3207 31.9385 29.3821 31.9635 29.4399C32.1012 29.7604 32.3936 30.0179 32.7363 30.0837C33.0789 30.1496 33.4603 30.0074 33.653 29.7165C33.709 29.6319 33.7494 29.5357 33.7599 29.4347C33.7709 29.3267 33.7477 29.2187 33.7223 29.1131Z" fill="#F68260"/>
<path d="M25.7387 26.9925L25.6919 27.0308L25.7469 27.0559L25.7453 26.9953L25.7142 26.9977" fill="#17282F"/>
<path d="M25.7932 26.8322L25.7463 26.8705L25.8013 26.8956L25.7995 26.835L25.7687 26.8374" fill="#17282F"/>
<path d="M34.219 29.3692C34.2268 29.4128 34.0721 29.4967 33.7947 29.5382C33.5231 29.5786 33.1077 29.5803 32.701 29.3779C32.2892 29.1821 32.0386 28.8327 31.9248 28.5794C31.8078 28.3202 31.803 28.1425 31.8465 28.1268C31.9485 28.0756 32.201 28.7271 32.8617 29.0525C33.1869 29.2159 33.5333 29.2563 33.7867 29.2818C34.0416 29.3072 34.2105 29.3142 34.219 29.3692Z" fill="#17282F"/>
<path d="M23.7465 25.2383C22.8872 22.2105 23.3238 18.7488 25.257 16.2648C27.1902 13.7811 30.6943 12.5008 33.67 13.5265C34.0901 13.6714 34.5071 13.8651 34.8128 14.1881C35.1187 14.5107 35.2948 14.9848 35.1677 15.4106C34.9678 16.0812 34.1579 16.3481 33.4589 16.3794C32.7597 16.4111 32.0092 16.3226 31.4056 16.677C30.34 17.3023 30.3651 18.8701 29.6077 19.8463C29.2351 20.3264 28.6806 20.6486 28.3429 21.1538C27.4303 22.5198 28.185 23.341 27.6004 24.8763C27.4383 25.3021 26.6976 25.6909 26.2462 25.7526C25.7946 25.8139 26.154 25.8083 25.1908 25.7031L23.7465 25.2383Z" fill="#17282F"/>
<path d="M26.4767 25.7536C26.4146 25.723 23.9578 24.8628 23.9058 27.413C23.8538 29.9625 26.4246 29.4891 26.4304 29.4159C26.4364 29.3431 26.4767 25.7536 26.4767 25.7536Z" fill="#F8A58D"/>
<path d="M25.6713 28.4341C25.6601 28.4257 25.6261 28.4644 25.5504 28.4971C25.4766 28.5292 25.3502 28.5498 25.2182 28.4971C24.9509 28.393 24.7326 27.9606 24.7298 27.5007C24.7279 27.2684 24.7812 27.0482 24.8671 26.867C24.9488 26.682 25.0721 26.5542 25.2081 26.5329C25.3437 26.5047 25.4381 26.5876 25.4678 26.6601C25.5006 26.7318 25.4833 26.7827 25.4966 26.7872C25.5037 26.7939 25.5523 26.7454 25.5339 26.6399C25.5244 26.589 25.4958 26.5284 25.4369 26.4779C25.3766 26.427 25.2872 26.4002 25.1925 26.4082C24.9957 26.4179 24.815 26.5949 24.7204 26.7942C24.6152 26.9938 24.55 27.2408 24.552 27.5018C24.5578 28.016 24.8111 28.502 25.1775 28.6163C25.3559 28.6665 25.5067 28.6156 25.5851 28.5567C25.6654 28.4957 25.6801 28.439 25.6713 28.4341Z" fill="#F68260"/>
<path d="M20.8476 20.773C20.8594 20.7309 21.4648 21.1277 22.5679 21.1598C23.1131 21.1747 23.7674 21.0932 24.4525 20.865C25.1385 20.6389 25.8463 20.2592 26.5408 19.7909C27.2354 19.3202 27.8593 18.814 28.4333 18.3597C29.0062 17.9044 29.5331 17.5037 29.9959 17.1958C30.4589 16.8874 30.8535 16.669 31.1342 16.5356C31.415 16.4018 31.5783 16.3467 31.5824 16.3561C31.5885 16.3697 31.4351 16.4464 31.1669 16.5983C30.8984 16.7495 30.518 16.9825 30.0687 17.3013C29.6193 17.6201 29.1045 18.0281 28.5379 18.49C27.9702 18.951 27.3465 19.4641 26.6423 19.9414C25.9382 20.4163 25.2127 20.8002 24.5044 21.0239C23.7974 21.2496 23.1224 21.32 22.5626 21.288C22.0016 21.2542 21.5595 21.1267 21.2727 21.004C21.1292 20.9413 21.0204 20.8884 20.9509 20.8445C20.8801 20.8026 20.8445 20.7783 20.8476 20.773Z" fill="#33535F"/>
<path d="M20.6464 21.0126C20.6626 20.9868 21.0118 21.1986 21.6057 21.4753C22.1983 21.7529 23.0474 22.0755 24.0241 22.2807C25.0018 22.4828 25.9093 22.5257 26.5634 22.5082C27.2185 22.4915 27.623 22.4368 27.6275 22.4668C27.6296 22.4793 27.5302 22.5044 27.3484 22.5396C27.1668 22.5769 26.9003 22.6114 26.5696 22.6361C25.9087 22.6873 24.9826 22.6643 23.9871 22.4584C22.9926 22.2497 22.1344 21.901 21.5489 21.5902C21.2557 21.4356 21.0251 21.2976 20.8735 21.191C20.7205 21.0861 20.6398 21.0231 20.6464 21.0126Z" fill="#33535F"/>
<path d="M39.0335 19.4744C39.0289 19.52 38.4189 19.4089 37.8545 18.9267C37.2852 18.4501 37.0745 17.8669 37.1191 17.8551C37.1675 17.8289 37.4371 18.3424 37.9716 18.7884C38.4997 19.2413 39.0509 19.4221 39.0335 19.4744Z" fill="#33535F"/>
<path d="M38.9298 21.9479C38.9598 21.9863 38.8214 22.1389 38.5891 22.2183C38.3567 22.2991 38.1536 22.2639 38.1536 22.2152C38.1518 22.1636 38.3267 22.118 38.5298 22.0469C38.7336 21.9779 38.8998 21.9065 38.9298 21.9479Z" fill="#33535F"/>
<path d="M53.1756 52.8891C53.1756 52.8891 53.1164 51.5784 53.7836 50.6737C54.4504 49.7689 55.8663 49.3547 55.9882 48.7227C56.1098 48.0903 57.1943 46.8278 57.7155 47.1208C58.2367 47.4134 58.4733 48.0952 57.7023 48.8826C56.9313 49.6699 56.3491 50.5521 56.3491 50.5521C56.3491 50.5521 63.1222 49.3797 63.6176 49.4654C64.1127 49.5515 64.6081 49.6372 64.6105 50.0542C64.613 50.4716 63.2988 50.5862 63.2988 50.5862L61.0921 52.1202C61.0921 52.1202 60.2717 53.2657 59.3118 53.9583C58.352 54.6506 56.839 54.8366 56.839 54.8366L54.4953 56.334C54.4953 56.334 52.2074 54.6377 53.1756 52.8891Z" fill="#F8A58D"/>
<path d="M63.1751 50.6359C63.1629 50.6415 63.1347 50.585 63.0573 50.5122C62.9803 50.4408 62.8465 50.3554 62.6605 50.33C62.2881 50.2819 61.7425 50.4429 61.238 50.7512C60.7283 51.0634 60.3413 51.4574 60.0594 51.7365C59.7796 52.0197 59.6037 52.1949 59.5852 52.1789C59.5689 52.1643 59.7128 51.9622 59.9723 51.6563C60.2339 51.3543 60.6168 50.9362 61.1509 50.6084C61.6826 50.2854 62.2591 50.1286 62.6817 50.2136C62.8929 50.2586 63.0361 50.3749 63.1057 50.4687C63.1765 50.5652 63.1838 50.6331 63.1751 50.6359Z" fill="#F68260"/>
<path d="M60.8039 50.7169C60.8136 50.7622 60.3579 50.8984 59.7859 51.0211C59.2135 51.1437 58.7421 51.2068 58.7323 51.1615C58.7226 51.1162 59.1783 50.9799 59.7507 50.8573C60.3227 50.7347 60.7945 50.6716 60.8039 50.7169Z" fill="#F68260"/>
<path d="M57.3097 51.0401C57.303 50.9969 57.8099 50.9871 58.289 51.3425C58.7719 51.693 58.915 52.1793 58.8715 52.1859C58.8266 52.2079 58.6304 51.7943 58.1897 51.4776C57.7559 51.1526 57.3023 51.0899 57.3097 51.0401Z" fill="#F68260"/>
<path d="M40.1133 37.8675C40.1133 37.8675 43.438 39.559 44.2473 41.7904C44.6727 42.9624 47.1898 55.4439 47.1898 55.4439L52.2526 52.0035L55.6825 57.1597L47.5824 63.4663C45.9987 63.8621 44.3215 63.7624 42.8196 63.1235C42.2677 62.8886 41.8253 62.6176 41.7197 62.3284C41.3915 61.4285 40.1133 37.8675 40.1133 37.8675Z" fill="#0079E3"/>
<path d="M47.1897 55.4438C47.1897 55.4438 47.1894 55.4425 47.1887 55.4395C47.1951 55.4345 47.2011 55.4298 47.2074 55.4251V55.4318L47.1897 55.4438Z" fill="#A7A9A8"/>
<path d="M44.9211 60.6338C44.8674 60.6338 44.8152 60.6195 44.7692 60.5878C44.6953 60.5369 44.6528 60.4526 44.6176 60.3701C44.2264 59.4433 44.488 58.3438 45.043 57.5049C45.5931 56.6722 46.3958 56.0451 47.1887 55.4393C47.1894 55.4424 47.1898 55.4438 47.1898 55.4438L47.2083 55.4313L47.2079 55.4727C46.1276 56.675 45.4726 58.2515 45.3816 59.8649C45.3708 60.0589 45.3649 60.2634 45.2642 60.4296C45.1925 60.5477 45.0531 60.6338 44.9211 60.6338Z" fill="#035BA8"/>
<path d="M16.603 39.5286L26.215 36.4112C28.0817 41.3751 34.0968 40.5306 34.4035 36.5345L40.1131 37.9089C40.1131 37.9089 42.0234 50.0288 41.5603 52.5469C40.8158 56.5977 42.6856 69.7494 43.6772 74.4796C44.5363 78.5773 42.0258 81.0119 40.765 82.1268C34.3462 87.7989 31.015 87.0359 26.3174 84.0896C21.5431 81.0955 15.9453 78.9853 15.9453 78.9853C16.4106 73.4981 19.4518 67.804 21.4074 63.6861L20.5167 54.1164L16.603 39.5286Z" fill="#0079E3"/>
<path d="M43.5081 73.0369C43.5022 73.0382 43.4743 72.9417 43.4273 72.7564C43.3813 72.5707 43.3105 72.2979 43.2318 71.9432C43.0684 71.2353 42.8521 70.2062 42.6301 68.9258C42.4072 67.6462 42.1947 66.1119 42.0337 64.4013C41.8748 62.69 41.7776 60.8017 41.7508 58.82C41.7215 56.8394 41.6926 54.9532 41.5623 53.2447C41.4397 51.5359 41.2205 50.0061 40.9276 48.7453C40.6377 47.4841 40.3029 46.4877 40.0259 45.8188C39.9008 45.4784 39.7691 45.2289 39.6988 45.0513C39.6228 44.876 39.5855 44.7827 39.5911 44.7795C39.5967 44.7767 39.6448 44.8649 39.7315 45.0356C39.8127 45.2084 39.9555 45.4537 40.0911 45.7916C40.3893 46.4549 40.745 47.451 41.0526 48.716C41.3634 49.9807 41.5968 51.5174 41.7289 53.2322C41.8689 54.9463 41.903 56.8367 41.9323 58.8173C41.9591 60.7958 42.0508 62.6785 42.1999 64.3863C42.3518 66.0934 42.5504 67.6249 42.757 68.9049C42.9618 70.1856 43.1586 71.2169 43.3008 71.9283C43.3687 72.2714 43.4227 72.5449 43.4628 72.7484C43.4987 72.9362 43.5144 73.0355 43.5081 73.0369Z" fill="#17282F"/>
<path d="M17.7398 71.7843C17.6283 71.7286 17.5184 71.6697 17.4102 71.6073L17.1719 71.5223C17.4982 71.2969 17.8149 71.0558 18.1246 70.805C17.9932 71.129 17.8647 71.4554 17.7398 71.7843Z" fill="#A7A9A8"/>
<path d="M20.7872 72.4861C19.7337 72.4861 18.6813 72.2544 17.7397 71.7844C17.8647 71.4555 17.9931 71.1291 18.1246 70.8051C20.2178 69.1084 22.0074 66.9498 24.52 66.0172C25.7715 65.5527 27.1052 65.4332 28.4481 65.4332C29.1387 65.4332 29.8318 65.465 30.5172 65.4977C30.9511 66.4436 30.5548 67.6891 29.6538 68.2099C29.158 68.4967 28.5702 68.5698 28.0358 68.775C26.8118 69.2446 25.9668 70.3515 24.9207 71.1413C23.7413 72.0314 22.2632 72.4861 20.7872 72.4861Z" fill="#035BA8"/>
<path d="M16.6032 39.5588C16.2997 39.7103 14.8921 40.5806 14.1685 42.326C13.5129 43.9088 11.731 65.2359 12.0345 66.6016C12.338 67.9669 13.764 70.0141 16.1312 71.0774C18.1204 71.9707 23.2659 69.8023 25.3493 69.0351C25.416 69.0107 24.8832 68.2101 24.6715 67.675L22.8828 62.0499L20.0536 62.3571L21.1048 51.7782L16.6032 39.5588Z" fill="#0079E3"/>
<path d="M19.745 46.7295C19.7574 46.7271 19.8082 46.9382 19.8898 47.3232C19.9641 47.7092 20.0561 48.2705 20.1455 48.9673C20.327 50.3605 20.4939 52.293 20.6509 54.428C20.8012 56.5493 20.937 58.4683 21.0381 59.8956C21.0947 60.5711 21.1416 61.1293 21.1768 61.5498C21.216 61.9396 21.2321 62.1563 21.2197 62.1581C21.2072 62.1602 21.1675 61.9466 21.1066 61.5581C21.05 61.1693 20.9806 60.6053 20.9103 59.9068C20.7681 58.5101 20.6257 56.5765 20.4701 54.4412C20.313 52.3069 20.1666 50.3755 20.0181 48.9823C19.9452 48.2851 19.8729 47.7232 19.8201 47.3351C19.7603 46.948 19.7329 46.7323 19.745 46.7295Z" fill="#17282F"/>
<path d="M23.3338 61.8396C23.3367 61.8591 22.9963 61.9288 22.4141 62.0315C21.8322 62.134 21.0087 62.2699 20.0459 62.4214L20.021 62.4252L19.9972 62.4141C19.5305 62.2026 18.9776 62.0584 18.3921 62.0326C17.7111 62.003 17.0598 62.1305 16.5175 62.3629C15.9721 62.5918 15.5341 62.9102 15.2055 63.2147C14.5494 63.8355 14.3234 64.3713 14.291 64.3501C14.2826 64.3459 14.3288 64.2107 14.4547 63.9867C14.5799 63.7627 14.7916 63.4519 15.1163 63.1224C15.4429 62.7973 15.8879 62.4562 16.4514 62.2092C17.0121 61.9587 17.6912 61.8204 18.4003 61.8514C19.01 61.8779 19.5856 62.0322 20.0689 62.2594L20.0203 62.2524C20.9852 62.1134 21.812 62.0005 22.3985 61.9274C22.9849 61.8539 23.3308 61.8201 23.3338 61.8396Z" fill="#17282F"/>
<path d="M24.7243 67.6919C24.7348 67.6867 24.8093 67.8048 24.9372 68.0267C25.0791 68.2814 25.2566 68.6001 25.4698 68.9827L25.503 69.0422L25.4368 69.068C24.475 69.4415 23.0569 69.9759 21.4751 70.5577C21.0002 70.7316 20.5402 70.8999 20.1092 71.0577L20.0573 70.8901L20.0656 70.888L20.0697 70.887L20.0717 70.8866L20.0727 70.8863H20.0732L20.1164 71.0559V71.0563H20.1162L20.1002 71.0601L20.0922 71.0622L20.0881 71.0633L20.086 71.0636L20.0852 71.064H20.0847L20.0844 71.0643L20.0413 70.8946H20.0411L20.0414 70.8943L20.0573 70.8905L20.1067 71.058C18.9365 71.4528 17.8411 71.4437 17.1023 71.3259C16.7298 71.2695 16.4391 71.1956 16.2424 71.1375C16.0463 71.0772 15.9426 71.0368 15.9454 71.027C15.9523 71.0002 16.3791 71.1319 17.1164 71.2162C17.8488 71.3019 18.9131 71.2869 20.0508 70.8922L20.1005 71.0598L20.0847 71.064L20.0843 71.0643H20.0844L20.0413 70.8943H20.0414H20.042L20.043 70.8939L20.0448 70.8936L20.0489 70.8925L20.0569 70.8905L20.0731 70.8863H20.0732L20.1164 71.0559L20.116 71.0563L20.1149 71.0566L20.1129 71.057L20.1088 71.058L20.1005 71.0601L20.0486 70.8929C20.4789 70.7333 20.9382 70.5633 21.4125 70.3877C22.9942 69.8056 24.4204 69.2931 25.3949 68.9537L25.3621 69.0391C25.1685 68.6465 25.0073 68.319 24.8786 68.0573C24.7689 67.826 24.7139 67.6975 24.7243 67.6919Z" fill="#17282F"/>
<path d="M47.2668 55.3846C47.3058 55.4282 46.7393 55.8957 46.293 56.6583C45.845 57.4189 45.6753 58.1327 45.6182 58.1171C45.5778 58.1132 45.6694 57.3624 46.1366 56.5657C46.6059 55.7675 47.2465 55.3473 47.2668 55.3846Z" fill="#17282F"/>
<path d="M35.5039 16.5892L35.5065 16.6617L35.5066 16.6624L35.5039 16.5892Z" fill="#17282F"/>
<path d="M28.5776 66.6927C28.5245 66.7066 28.2801 65.9221 28.1489 64.9204C28.0151 63.9188 28.0473 63.098 28.1022 63.0976C28.1615 63.0962 28.2222 63.9049 28.3543 64.8932C28.4836 65.8816 28.6354 66.6784 28.5776 66.6927Z" fill="#33535F"/>
<path d="M25.2156 29.4102L16.6658 38.1844C17.7896 40.0058 17.8537 42.432 16.8278 44.3106C19.2079 44.3868 21.5879 44.4635 23.9678 44.5398C23.9821 43.8984 23.9967 43.2567 24.0111 42.6149C24.1981 43.3894 24.9132 44.0698 25.7141 44.2984C26.7985 44.6077 27.954 44.3203 29.04 44.0169C27.2211 39.3125 25.9354 34.4023 25.2156 29.4102Z" fill="#17282F"/>
<path d="M27.1282 47.7932C27.1282 48.0493 27.0774 63.6802 27.0774 63.6802L40.3283 64.1202L40.9885 48.312L27.1282 47.7932Z" fill="#E7E8E5"/>
<path d="M28.4843 46.6254C28.4843 46.9452 26.647 65.6521 26.647 65.6521L41.0207 65.3086L43.4379 46.6254H28.4843Z" fill="#F3F2F1"/>
<path d="M41.5496 50.4001C41.5496 50.4503 39.0857 50.4907 36.0468 50.4907C33.0068 50.4907 30.5435 50.4503 30.5435 50.4001C30.5435 50.35 33.0068 50.3092 36.0468 50.3092C39.0857 50.3092 41.5496 50.35 41.5496 50.4001Z" fill="#17282F"/>
<path d="M41.4127 51.6306C41.4127 51.6808 38.9485 51.7216 35.9099 51.7216C32.8702 51.7216 30.4067 51.6808 30.4067 51.6306C30.4067 51.5805 32.8702 51.54 35.9099 51.54C38.9485 51.54 41.4127 51.5805 41.4127 51.6306Z" fill="#17282F"/>
<path d="M41.1665 53.1897C41.1665 53.2399 38.7023 53.2806 35.6638 53.2806C32.6239 53.2806 30.1604 53.2399 30.1604 53.1897C30.1604 53.1399 32.6239 53.0991 35.6638 53.0991C38.7023 53.0991 41.1665 53.1399 41.1665 53.1897Z" fill="#17282F"/>
<path d="M40.9053 54.5847C40.9053 54.6349 38.4411 54.6757 35.4024 54.6757C32.3625 54.6757 29.8992 54.6349 29.8992 54.5847C29.8992 54.5346 32.3625 54.4941 35.4024 54.4941C38.4411 54.4941 40.9053 54.5346 40.9053 54.5847Z" fill="#17282F"/>
<path d="M40.9053 55.9796C40.9053 56.0298 38.4411 56.0706 35.4024 56.0706C32.3625 56.0706 29.8992 56.0298 29.8992 55.9796C29.8992 55.9295 32.3625 55.889 35.4024 55.889C38.4411 55.889 40.9053 55.9295 40.9053 55.9796Z" fill="#17282F"/>
<path d="M40.7733 57.4439C40.7733 57.494 38.3092 57.5348 35.2706 57.5348C32.2308 57.5348 29.7673 57.494 29.7673 57.4439C29.7673 57.3937 32.2308 57.3533 35.2706 57.3533C38.3092 57.3533 40.7733 57.3937 40.7733 57.4439Z" fill="#17282F"/>
<path d="M40.6419 58.9082C40.6419 58.9584 38.1781 58.9991 35.1393 58.9991C32.0995 58.9991 29.636 58.9584 29.636 58.9082C29.636 58.858 32.0995 58.8176 35.1393 58.8176C38.1781 58.8176 40.6419 58.858 40.6419 58.9082Z" fill="#17282F"/>
<path d="M40.5104 60.3724C40.5104 60.4226 38.0466 60.4634 35.0075 60.4634C31.9678 60.4634 29.5044 60.4226 29.5044 60.3724C29.5044 60.3226 31.9678 60.2819 35.0075 60.2819C38.0466 60.2819 40.5104 60.3226 40.5104 60.3724Z" fill="#17282F"/>
<path d="M40.3787 61.8367C40.3787 61.8869 37.9149 61.9276 34.876 61.9276C31.8363 61.9276 29.3728 61.8869 29.3728 61.8367C29.3728 61.7869 31.8363 61.7461 34.876 61.7461C37.9149 61.7461 40.3787 61.7869 40.3787 61.8367Z" fill="#17282F"/>
<path d="M40.2471 63.301C40.2471 63.3512 37.7832 63.392 34.7446 63.392C31.7047 63.392 29.2412 63.3512 29.2412 63.301C29.2412 63.2509 31.7047 63.2105 34.7446 63.2105C37.7832 63.2105 40.2471 63.2509 40.2471 63.301Z" fill="#17282F"/>
<path d="M22.4989 63.6505C22.4989 63.6505 23.6433 61.1233 23.8818 60.9801C24.1201 60.8372 28.2151 60.3704 29.0311 60.3603C29.9124 60.3498 31.2718 60.3854 31.498 60.816C31.6644 61.133 31.5105 61.6002 30.843 61.6957C30.843 61.6957 31.7557 61.6476 31.6569 62.22C31.5583 62.7921 29.5079 63.8411 29.5079 63.8411C29.5079 63.8411 29.8895 64.2703 29.1266 65.0806L28.7928 65.5099C28.7928 65.5099 28.9358 66.2728 28.5067 66.6066C28.0776 66.9403 25.3492 67.8911 25.3492 67.8911L24.3108 67.5601L23.6433 67.8911C23.6433 67.8911 21.4689 65.7764 22.4989 63.6505Z" fill="#F8A58D"/>
<path d="M31.1647 61.5817C31.1716 61.6047 30.824 61.7329 30.2513 61.9064C29.6788 62.0799 28.88 62.2945 27.9885 62.492C27.0967 62.6892 26.2818 62.8314 25.6897 62.9157C25.0971 63 24.7281 63.0303 24.7244 63.0066C24.7206 62.9808 25.0827 62.9056 25.6679 62.7892C26.2532 62.6728 27.0609 62.5112 27.9495 62.315C28.8375 62.1182 29.6378 61.9238 30.2176 61.7827C30.7973 61.6413 31.1574 61.5569 31.1647 61.5817Z" fill="#F68260"/>
<path d="M29.4264 63.9167C29.4445 63.9596 28.6095 64.3295 27.5126 64.5647C26.4164 64.8044 25.5032 64.8135 25.502 64.7668C25.498 64.7135 26.3936 64.6239 27.4741 64.3877C28.5552 64.1557 29.4078 63.8662 29.4264 63.9167Z" fill="#F68260"/>
<path d="M28.7505 65.4873C28.7783 65.5242 28.2564 65.92 27.4965 66.1635C26.7378 66.4123 26.0834 66.3984 26.0842 66.352C26.0802 66.298 26.7084 66.2318 27.4405 65.9911C28.1742 65.7563 28.7222 65.4413 28.7505 65.4873Z" fill="#F68260"/>
<path d="M24.6597 66.4708C24.6612 66.4886 24.4469 66.4987 24.1814 66.3088C24.0513 66.2154 23.9159 66.0708 23.822 65.8761C23.7219 65.6883 23.697 65.4201 23.7231 65.1992C23.7282 65.088 23.7199 64.994 23.676 64.9212C23.632 64.8449 23.5546 64.7766 23.4833 64.6978C23.3347 64.5344 23.2665 64.3414 23.2458 64.1819C23.2083 63.854 23.3322 63.675 23.3477 63.6865C23.3767 63.6945 23.307 63.8791 23.3721 64.1589C23.4055 64.2961 23.4757 64.454 23.6051 64.5832C23.67 64.6508 23.7587 64.7187 23.8288 64.8302C23.9015 64.9459 23.9105 65.0884 23.9044 65.2065C23.8333 65.6618 24.0451 66.0196 24.262 66.2088C24.4768 66.4029 24.6682 66.4401 24.6597 66.4708Z" fill="#F68260"/>
<path d="M25.349 67.6165C25.3517 67.6674 25.0455 67.6594 24.8297 67.3897C24.6108 67.1222 24.6673 66.8212 24.7164 66.8344C24.7679 66.8358 24.7966 67.0678 24.9706 67.2758C25.1376 67.489 25.3582 67.566 25.349 67.6165Z" fill="#F68260"/>
</svg>
