<svg width="281" height="93" viewBox="0 0 281 93" fill="none" xmlns="http://www.w3.org/2000/svg">
<path d="M33.4236 54.8847H48.2022C51.0909 54.8847 53.6013 55.3145 55.7334 56.1743C57.8655 57.034 59.5075 58.3064 60.6596 59.9914C61.8288 61.6765 62.4134 63.757 62.4134 66.233C62.4134 68.3823 62.0781 70.1791 61.4075 71.6234C60.7369 73.0678 59.7998 74.2628 58.5962 75.2085C57.4098 76.137 56.0257 76.9021 54.4438 77.5039L51.4777 79.1804H39.072L39.0204 72.1909H48.2022C49.3542 72.1909 50.3085 71.9845 51.0651 71.5719C51.8216 71.1592 52.389 70.5746 52.7673 69.818C53.1628 69.0443 53.3605 68.1244 53.3605 67.0583C53.3605 65.9751 53.1628 65.0466 52.7673 64.2728C52.3718 63.4991 51.7872 62.9059 51.0135 62.4932C50.2569 62.0805 49.3198 61.8742 48.2022 61.8742H42.4765V92.4373H33.4236V54.8847ZM53.9795 92.4373L45.6746 75.8275L55.2691 75.7759L63.6772 92.0504V92.4373H53.9795Z" fill="#0079E3"/>
<path d="M83.7947 62.7769L74.6386 92.4373H64.9152L78.7137 54.8847H84.8779L83.7947 62.7769ZM91.3774 92.4373L82.1956 62.7769L81.0092 54.8847H87.2508L101.127 92.4373H91.3774ZM91.0163 78.4324V85.422H71.75V78.4324H91.0163ZM79.0748 52.9245L84.1815 44.8259H93.3634L86.1675 52.9245H79.0748Z" fill="#0079E3"/>
<path d="M118.871 79.6962H109.535V72.7067H118.871C120.144 72.7067 121.175 72.4918 121.966 72.0619C122.757 71.632 123.333 71.0388 123.694 70.2823C124.073 69.5085 124.262 68.6402 124.262 67.6773C124.262 66.6457 124.073 65.6914 123.694 64.8145C123.333 63.9375 122.757 63.2326 121.966 62.6995C121.175 62.1493 120.144 61.8742 118.871 61.8742H112.939V92.4373H103.886V54.8847H118.871C121.88 54.8847 124.468 55.4349 126.635 56.5353C128.818 57.6358 130.495 59.1489 131.664 61.0747C132.833 62.9832 133.418 65.1669 133.418 67.6257C133.418 70.0502 132.833 72.1651 131.664 73.9705C130.495 75.7759 128.818 77.1858 126.635 78.2003C124.468 79.1976 121.88 79.6962 118.871 79.6962Z" fill="#0079E3"/>
<path d="M147.913 54.8847V92.4373H138.886V54.8847H147.913Z" fill="#0079E3"/>
<path d="M166.483 92.4373H158.152L158.204 85.4736H166.483C168.202 85.4736 169.655 85.0609 170.841 84.2356C172.045 83.4102 172.956 82.1808 173.575 80.5474C174.212 78.8967 174.53 76.8677 174.53 74.4605V72.8357C174.53 71.0302 174.349 69.4484 173.988 68.09C173.644 66.7144 173.128 65.571 172.441 64.6597C171.753 63.7312 170.893 63.0348 169.861 62.5706C168.847 62.1063 167.678 61.8742 166.354 61.8742H157.997V54.8847H166.354C168.899 54.8847 171.228 55.3231 173.343 56.2C175.475 57.0598 177.315 58.2978 178.863 59.914C180.427 61.5131 181.631 63.4131 182.474 65.614C183.333 67.7977 183.763 70.2221 183.763 72.8872V74.4605C183.763 77.1085 183.333 79.5329 182.474 81.7338C181.631 83.9347 180.436 85.8346 178.888 87.4337C177.341 89.0328 175.51 90.2708 173.395 91.1477C171.297 92.0074 168.993 92.4373 166.483 92.4373ZM163.336 54.8847V92.4373H154.283V54.8847H163.336Z" fill="#0079E3"/>
<path d="M220.258 72.913V74.4347C220.258 77.3062 219.854 79.8854 219.046 82.1722C218.255 84.4419 217.129 86.3849 215.667 88.0011C214.206 89.6002 212.478 90.8296 210.483 91.6894C208.489 92.5319 206.288 92.9531 203.881 92.9531C201.456 92.9531 199.238 92.5319 197.226 91.6894C195.232 90.8296 193.495 89.6002 192.016 88.0011C190.555 86.3849 189.42 84.4419 188.612 82.1722C187.821 79.8854 187.426 77.3062 187.426 74.4347V72.913C187.426 70.0416 187.821 67.4624 188.612 65.1755C189.42 62.8887 190.546 60.9457 191.991 59.3466C193.452 57.7303 195.18 56.5009 197.175 55.6584C199.187 54.7987 201.405 54.3688 203.829 54.3688C206.236 54.3688 208.437 54.7987 210.432 55.6584C212.443 56.5009 214.18 57.7303 215.642 59.3466C217.103 60.9457 218.238 62.8887 219.046 65.1755C219.854 67.4624 220.258 70.0416 220.258 72.913ZM211.076 74.4347V72.8614C211.076 71.0044 210.913 69.371 210.586 67.961C210.277 66.5339 209.813 65.3389 209.194 64.376C208.575 63.4131 207.81 62.6909 206.898 62.2095C206.004 61.7109 204.981 61.4615 203.829 61.4615C202.625 61.4615 201.577 61.7109 200.682 62.2095C199.788 62.6909 199.04 63.4131 198.439 64.376C197.837 65.3389 197.381 66.5339 197.072 67.961C196.779 69.371 196.633 71.0044 196.633 72.8614V74.4347C196.633 76.2745 196.779 77.908 197.072 79.3352C197.381 80.7451 197.837 81.9401 198.439 82.9202C199.058 83.9003 199.814 84.6396 200.708 85.1383C201.62 85.6369 202.677 85.8862 203.881 85.8862C205.033 85.8862 206.056 85.6369 206.95 85.1383C207.844 84.6396 208.592 83.9003 209.194 82.9202C209.813 81.9401 210.277 80.7451 210.586 79.3352C210.913 77.908 211.076 76.2745 211.076 74.4347Z" fill="#0079E3"/>
<path d="M244.296 82.4559C244.296 81.8713 244.21 81.3469 244.038 80.8826C243.866 80.4012 243.548 79.9542 243.084 79.5415C242.62 79.1288 241.949 78.7162 241.072 78.3035C240.212 77.8736 239.078 77.4266 237.668 76.9623C236.017 76.4121 234.426 75.7931 232.896 75.1053C231.366 74.4003 229.999 73.5836 228.795 72.6551C227.592 71.7094 226.637 70.609 225.932 69.3538C225.227 68.0814 224.875 66.6027 224.875 64.9176C224.875 63.3013 225.236 61.8484 225.958 60.5588C226.68 59.2521 227.686 58.143 228.976 57.2317C230.283 56.3032 231.813 55.5982 233.567 55.1168C235.321 54.6182 237.238 54.3688 239.318 54.3688C242.069 54.3688 244.494 54.8503 246.592 55.8132C248.706 56.7589 250.357 58.1086 251.544 59.8625C252.747 61.5991 253.349 58.8519 253.349 61.2247H244.348C244.348 60.279 244.15 59.4451 243.754 58.7229C243.376 58.0008 242.8 62.2353 242.026 61.8226C241.253 61.41 240.281 61.2036 239.112 61.2036C237.977 61.2036 237.023 61.3756 236.249 61.7195C235.475 62.0633 234.891 62.5276 234.495 63.1122C234.1 63.6796 233.902 64.3072 233.902 64.995C233.902 65.5624 234.057 66.0782 234.366 66.5425C234.693 66.9895 235.149 67.4108 235.733 67.8063C236.335 68.2018 237.057 68.58 237.9 68.9411C238.76 69.3022 239.722 69.6547 240.788 69.9986C242.783 70.6348 244.554 71.3483 246.102 72.1393C247.666 72.913 248.982 73.7985 250.048 74.7958C251.131 75.7759 251.948 76.8935 252.498 78.1487C253.065 79.4039 253.349 80.8225 253.349 82.4044C253.349 84.0894 253.022 85.5853 252.369 86.8921C251.715 88.1989 250.778 89.3079 249.558 90.2192C248.337 91.1133 246.875 91.7925 245.173 92.2568C243.471 92.721 241.571 92.9531 239.473 92.9531C237.547 92.9531 235.647 92.7124 233.773 92.231C231.916 91.7323 230.231 90.9758 228.718 89.9613C227.205 88.9296 225.993 87.6143 225.081 86.0152C224.187 84.3989 223.74 82.4817 223.74 80.2636H232.819C232.819 81.3641 232.965 82.2926 233.257 83.0491C233.55 83.8057 233.979 84.4161 234.547 84.8804C235.114 85.3274 235.811 85.6541 236.636 85.8604C237.461 86.0496 238.407 86.1441 239.473 86.1441C240.625 86.1441 241.554 85.9808 242.259 85.6541C242.964 85.3102 243.479 84.8632 243.806 84.3129C244.133 83.7455 244.296 83.1265 244.296 82.4559Z" fill="#0079E3"/>
<path d="M52.8213 5.66476H67.5999C70.4886 5.66476 72.999 6.09462 75.1311 6.95434C77.2632 7.81406 78.9052 9.08645 80.0573 10.7715C81.2265 12.4566 81.8111 14.5371 81.8111 17.0131C81.8111 19.1624 81.4758 20.9592 80.8052 22.4035C80.1346 23.8479 79.1975 25.0429 77.9939 25.9886C76.8075 26.9171 75.4234 27.6822 73.8415 28.284L70.8754 29.9605H58.4697L58.4181 22.971H67.5999C68.7519 22.971 69.7062 22.7646 70.4628 22.352C71.2193 21.9393 71.7867 21.3547 72.165 20.5981C72.5605 19.8244 72.7582 18.9045 72.7582 17.8384C72.7582 16.7552 72.5605 15.8267 72.165 15.0529C71.7696 14.2792 71.1849 13.686 70.4112 13.2733C69.6546 12.8606 68.7175 12.6543 67.5999 12.6543H61.8742V43.2174H52.8213V5.66476ZM73.3772 43.2174L65.0723 26.6076L74.6668 26.556L83.0749 42.8305V43.2174H73.3772Z" fill="#0079E3"/>
<path d="M119.054 23.6931V25.2148C119.054 28.0863 118.65 30.6655 117.842 32.9523C117.051 35.222 115.925 37.165 114.463 38.7812C113.002 40.3803 111.274 41.6097 109.279 42.4694C107.285 43.312 105.084 43.7332 102.677 43.7332C100.252 43.7332 98.034 43.312 96.0223 42.4694C94.0277 41.6097 92.2911 40.3803 90.8124 38.7812C89.3509 37.165 88.216 35.222 87.4079 32.9523C86.6169 30.6655 86.2215 28.0863 86.2215 25.2148V23.6931C86.2215 20.8216 86.6169 18.2425 87.4079 15.9556C88.216 13.6688 89.3423 11.7258 90.7866 10.1267C92.2481 8.51044 93.9762 7.28104 95.9707 6.43851C97.9825 5.57879 100.201 5.14893 102.625 5.14893C105.032 5.14893 107.233 5.57879 109.228 6.43851C111.239 7.28104 112.976 8.51044 114.438 10.1267C115.899 11.7258 117.034 13.6688 117.842 15.9556C118.65 18.2425 119.054 20.8216 119.054 23.6931ZM109.872 25.2148V23.6415C109.872 21.7845 109.709 20.1511 109.382 18.7411C109.073 17.314 108.609 16.119 107.99 15.1561C107.371 14.1932 106.605 13.471 105.694 12.9896C104.8 12.4909 103.777 12.2416 102.625 12.2416C101.421 12.2416 100.372 12.4909 99.4784 12.9896C98.5843 13.471 97.8363 14.1932 97.2345 15.1561C96.6327 16.119 96.1771 17.314 95.8675 18.7411C95.5752 20.1511 95.4291 21.7845 95.4291 23.6415V25.2148C95.4291 27.0546 95.5752 28.6881 95.8675 30.1152C96.1771 31.5252 96.6327 32.7202 97.2345 33.7003C97.8535 34.6804 98.6101 35.4197 99.5042 35.9184C100.415 36.417 101.473 36.6663 102.677 36.6663C103.829 36.6663 104.852 36.417 105.746 35.9184C106.64 35.4197 107.388 34.6804 107.99 33.7003C108.609 32.7202 109.073 31.5252 109.382 30.1152C109.709 28.6881 109.872 27.0546 109.872 25.2148Z" fill="#0079E3"/>
<path d="M138.682 31.4306V5.66476H147.709V31.4306C147.709 33.941 147.133 36.1161 145.981 37.9559C144.846 39.7957 143.298 41.2228 141.338 42.2373C139.395 43.2346 137.212 43.7332 134.787 43.7332C132.277 43.7332 130.041 43.312 128.081 42.4694C126.138 41.6269 124.608 40.3287 123.49 38.5749C122.39 36.8211 121.84 34.5858 121.84 31.8691H130.918C130.918 33.1415 131.065 34.1387 131.357 34.8609C131.649 35.5659 132.079 36.0645 132.646 36.3568C133.231 36.6319 133.945 36.7695 134.787 36.7695C135.612 36.7695 136.309 36.5632 136.876 36.1505C137.461 35.7206 137.908 35.1102 138.217 34.3193C138.527 33.5111 138.682 32.5483 138.682 31.4306Z" fill="#0079E3"/>
<path d="M179.304 36.2537V43.2174H159.289V36.2537H179.304ZM162.513 5.66476V43.2174H153.46V5.66476H162.513ZM176.724 20.5723V27.3039H159.289V20.5723H176.724ZM179.381 5.66476V12.6543H159.289V5.66476H179.381Z" fill="#0079E3"/>
<path d="M201.716 5.66476V43.2174H192.664V5.66476H201.716ZM213.013 5.66476V12.6543H181.625V5.66476H213.013Z" fill="#0079E3"/>
<path d="M247.909 23.6931V25.2148C247.909 28.0863 247.505 30.6655 246.697 32.9523C245.906 35.222 244.78 37.165 243.318 38.7812C241.857 40.3803 240.129 41.6097 238.134 42.4694C236.14 43.312 233.939 43.7332 231.532 43.7332C229.107 43.7332 226.889 43.312 224.877 42.4694C222.883 41.6097 221.146 40.3803 219.667 38.7812C218.206 37.165 217.071 35.222 216.263 32.9523C215.472 30.6655 215.077 28.0863 215.077 25.2148V23.6931C215.077 20.8216 215.472 18.2425 216.263 15.9556C217.071 13.6688 218.197 11.7258 219.642 10.1267C221.103 8.51044 222.831 7.28104 224.826 6.43851C226.838 5.57879 229.056 5.14893 231.48 5.14893C233.887 5.14893 236.088 5.57879 238.083 6.43851C240.094 7.28104 241.831 8.51044 243.293 10.1267C244.754 11.7258 245.889 13.6688 246.697 15.9556C247.505 18.2425 247.909 20.8216 247.909 23.6931ZM238.727 25.2148V23.6415C238.727 21.7845 238.564 20.1511 238.237 18.7411C237.928 17.314 237.464 16.119 236.845 15.1561C236.226 14.1932 235.461 13.471 234.549 12.9896C233.655 12.4909 232.632 12.2416 231.48 12.2416C230.276 12.2416 229.228 12.4909 228.333 12.9896C227.439 13.471 226.691 14.1932 226.09 15.1561C225.488 16.119 225.032 17.314 224.723 18.7411C224.43 20.1511 224.284 21.7845 224.284 23.6415V25.2148C224.284 27.0546 224.43 28.6881 224.723 30.1152C225.032 31.5252 225.488 32.7202 226.09 33.7003C226.709 34.6804 227.465 35.4197 228.359 35.9184C229.271 36.417 230.328 36.6663 231.532 36.6663C232.684 36.6663 233.707 36.417 234.601 35.9184C235.495 35.4197 236.243 34.6804 236.845 33.7003C237.464 32.7202 237.928 31.5252 238.237 30.1152C238.564 28.6881 238.727 27.0546 238.727 25.2148Z" fill="#0079E3"/>
<path d="M271.947 33.236C271.947 32.6514 271.861 32.127 271.689 31.6627C271.517 31.1813 271.199 30.7342 270.735 30.3216C270.271 29.9089 269.6 29.4962 268.723 29.0836C267.863 28.6537 266.729 28.2067 265.319 27.7424C263.668 27.1922 262.078 26.5732 260.547 25.8854C259.017 25.1804 257.65 24.3637 256.446 23.4352C255.243 22.4895 254.288 21.3891 253.583 20.1339C252.879 18.8615 252.526 17.3828 252.526 15.6977C252.526 14.0814 252.887 12.6285 253.609 11.3389C254.331 10.0321 255.337 8.9231 256.627 8.0118C257.934 7.0833 259.464 6.37833 261.218 5.89688C262.972 5.39825 264.889 5.14893 266.969 5.14893C269.72 5.14893 272.145 5.63037 274.243 6.59326C276.358 7.53895 278.008 8.88871 279.195 10.6425C280.398 12.3792 281 14.4339 281 16.8068H271.999C271.999 15.8611 271.801 15.0271 271.406 14.305C271.027 13.5828 270.451 13.0154 269.677 12.6027C268.904 12.19 267.932 11.9837 266.763 11.9837C265.628 11.9837 264.674 12.1557 263.9 12.4995C263.126 12.8434 262.542 13.3077 262.146 13.8923C261.751 14.4597 261.553 15.0873 261.553 15.7751C261.553 16.3425 261.708 16.8583 262.017 17.3226C262.344 17.7696 262.8 18.1909 263.384 18.5864C263.986 18.9818 264.708 19.3601 265.551 19.7212C266.411 20.0823 267.373 20.4348 268.439 20.7787C270.434 21.4149 272.205 22.1284 273.753 22.9194C275.317 23.6931 276.633 24.5786 277.699 25.5759C278.782 26.556 279.599 27.6736 280.149 28.9288C280.716 30.184 281 31.6026 281 33.1844C281 34.8695 280.673 36.3654 280.02 37.6722C279.367 38.979 278.429 40.088 277.209 40.9993C275.988 41.8934 274.526 42.5726 272.824 43.0369C271.122 43.5011 269.222 43.7332 267.124 43.7332C265.198 43.7332 263.298 43.4925 261.424 43.0111C259.567 42.5124 257.882 41.7559 256.369 40.7414C254.856 39.7097 253.644 38.3944 252.732 36.7953C251.838 35.179 251.391 33.2618 251.391 31.0437H260.47C260.47 32.1442 260.616 33.0727 260.908 33.8292C261.201 34.5858 261.63 35.1962 262.198 35.6604C262.765 36.1075 263.462 36.4342 264.287 36.6405C265.112 36.8297 266.058 36.9242 267.124 36.9242C268.276 36.9242 269.205 36.7609 269.91 36.4342C270.615 36.0903 271.13 35.6432 271.457 35.093C271.784 34.5256 271.947 33.9066 271.947 33.236Z" fill="#0079E3"/>
<path d="M8.01073 2.08223e-05L5.61547e-05 8.03091L8.01073 16.0618L15.9175 16.0618L11.3789 11.5139L34.1226 11.5138C37.9541 11.5138 41.071 14.6391 41.071 18.4805C41.071 22.3215 37.9541 25.4468 34.1226 25.4468C30.2914 25.4468 27.1741 22.3215 27.1741 18.4805L20.2253 18.4805C20.2253 26.1633 26.4595 32.4131 34.1226 32.4131C41.7851 32.4131 48.0194 26.1633 48.0194 18.4805C48.0194 10.7982 41.7851 4.54756 34.1226 4.54756L11.3789 4.54756L15.9175 2.04767e-05L8.01073 2.08223e-05Z" fill="#0079E3"/>
<rect x="18.0072" y="16.8068" width="9.60387" height="26.4106" fill="#0079E3"/>
<mask id="mask0_223_602" style="mask-type:alpha" maskUnits="userSpaceOnUse" x="223" y="49" width="52" height="22">
<rect x="223.29" y="49.2198" width="51.6208" height="21.6087" fill="#0079E3"/>
</mask>
<g mask="url(#mask0_223_602)">
<path d="M248.138 78.321C248.138 72.4363 243.351 71.2505 237.467 71.2505L235.162 71.2505C233.692 71.2505 232.494 66.4521 232.494 64.9812C232.494 63.51 233.692 62.3132 235.162 62.3132L252.892 62.3132L247.8 67.4024L255.519 67.4024L264.611 58.3112L255.519 49.2198L247.8 49.2198L252.892 54.3091L235.162 54.3091C229.278 54.3091 224.49 59.0967 224.49 64.9812C224.49 70.8655 231.679 75.653 237.563 75.653L239.868 75.653C241.338 75.653 242.536 76.8498 242.536 78.321C242.536 79.7921 241.338 80.9889 239.868 80.9889L230.894 80.9889L230.894 88.9932L239.868 88.9932C245.752 88.9932 248.138 84.2056 248.138 78.321Z" fill="#0079E3"/>
</g>
</svg>
